<svg id="圖層_1" data-name="圖層 1" xmlns="http://www.w3.org/2000/svg" viewBox="0 0 40 80"><defs><style>.cls-1{fill:none;}.cls-2{fill:#4e4d4d;}.cls-3{fill:#fff;}</style></defs><title>icons_cartBtn</title><rect class="cls-1" width="40" height="80"/><path class="cls-2" d="M13,27.55h20.3A0.78,0.78,0,0,0,34,27l5.08-14.72a0.78,0.78,0,1,0-1.47-.51L33,25.32h0A1.28,1.28,0,0,1,32,26H12.81a1.09,1.09,0,0,1-1-.67h0L7,4.7a0.78,0.78,0,0,0-.76-0.6H1.61a0.78,0.78,0,1,0,0,1.55H5.19A0.54,0.54,0,0,1,5.73,6h0l5.5,23.57A3.69,3.69,0,1,0,16,31.33h0a0.31,0.31,0,0,1,.33-0.49H28.2a0.37,0.37,0,0,1,.3.49h0A3.65,3.65,0,0,0,28.11,33,3.69,3.69,0,1,0,34,30.05h0a2.92,2.92,0,0,0-1.39-.74l-0.18,0h-19a0.66,0.66,0,0,1-.75-0.36v0h0l-0.19-.81h0A0.45,0.45,0,0,1,13,27.55ZM31.8,30.84A2.14,2.14,0,1,1,29.66,33,2.14,2.14,0,0,1,31.8,30.84ZM14.85,33a2.14,2.14,0,1,1-2.14-2.14A2.14,2.14,0,0,1,14.85,33Z"/><path class="cls-3" d="M13,66.78h20.3A0.78,0.78,0,0,0,34,66.26l5.08-14.72A0.78,0.78,0,1,0,37.65,51L33,64.56h0a1.28,1.28,0,0,1-1,.67H12.81a1.09,1.09,0,0,1-1-.67h0L7,43.93a0.78,0.78,0,0,0-.76-0.6H1.61a0.78,0.78,0,1,0,0,1.55H5.19a0.54,0.54,0,0,1,.54.38h0l5.5,23.57A3.69,3.69,0,1,0,16,70.56h0a0.31,0.31,0,0,1,.33-0.49H28.2a0.37,0.37,0,0,1,.3.49h0a3.65,3.65,0,0,0-.39,1.65A3.69,3.69,0,1,0,34,69.29h0a2.92,2.92,0,0,0-1.39-.74l-0.18,0h-19a0.66,0.66,0,0,1-.75-0.36v0h0l-0.19-.81h0A0.45,0.45,0,0,1,13,66.78ZM31.8,70.08a2.14,2.14,0,1,1-2.14,2.14A2.14,2.14,0,0,1,31.8,70.08ZM14.85,72.21a2.14,2.14,0,1,1-2.14-2.14A2.14,2.14,0,0,1,14.85,72.21Z"/></svg>