<svg id="圖層_1" data-name="圖層 1" xmlns="http://www.w3.org/2000/svg" viewBox="0 0 80 40"><defs><style>.cls-1{fill:#4e4d4d;}.cls-2{fill:none;}</style></defs><title>icon_banksInfo</title><path class="cls-1" d="M36.46,32.63H32.19a7.47,7.47,0,0,0,1.33-6.57l1.31-.81a3.36,3.36,0,0,0,1.08-4.62l-8-12.91a3.36,3.36,0,0,0-4.62-1.08L4.45,18.32a3.36,3.36,0,0,0-1.08,4.62l6,9.69H3.72a0.67,0.67,0,0,0,0,1.34H36.46A0.67,0.67,0,0,0,36.46,32.63Zm-32-10.39a2,2,0,0,1,.65-2.77L24,7.78a2,2,0,0,1,2.77.65l1.39,2.24L28,10.74,5.92,24.51ZM11,32.63L7.19,26.56,29.27,12.78l0.12-.09,5.37,8.65a2,2,0,0,1-.65,2.77L33,24.78A7.5,7.5,0,0,0,31.83,23a7.47,7.47,0,0,0-11.42,9.62H11Zm15.77,0,0-1A2.33,2.33,0,0,0,28.23,31a1.9,1.9,0,0,0,.67-1.4,1.67,1.67,0,0,0-.78-1.57h0a6.55,6.55,0,0,0-1.58-.59,3.15,3.15,0,0,1-.8-0.31,0.65,0.65,0,0,1-.33-0.61A0.74,0.74,0,0,1,25.7,26a1.31,1.31,0,0,1,.86-0.22,1.08,1.08,0,0,1,1.17.86,0.58,0.58,0,0,0,.52.55,0.52,0.52,0,0,0,.56-0.57,1.48,1.48,0,0,0-.2-0.79,2,2,0,0,0-1.51-1l0.05-1.07a0.52,0.52,0,1,0-1,0l-0.05,1.09a2.15,2.15,0,0,0-1.13.47,1.78,1.78,0,0,0-.63,1.33A1.65,1.65,0,0,0,25,28a2.08,2.08,0,0,0,.65.35l1.17,0.34a2.39,2.39,0,0,1,.69.28,0.71,0.71,0,0,1,.31.67,0.81,0.81,0,0,1-.48.72,1.82,1.82,0,0,1-1,.21,1.39,1.39,0,0,1-1-.38,0.84,0.84,0,0,1-.19-0.28s0-.11-0.17-0.6A0.51,0.51,0,0,0,24.18,29a0.53,0.53,0,0,0-.2.39,2,2,0,0,0,.2.89,2.05,2.05,0,0,0,1.57,1.21l-0.05,1.09H22.26a5.84,5.84,0,0,1-.49-0.48l-0.2-.25a6.12,6.12,0,0,1,4.74-10h0.29a6.11,6.11,0,0,1,5.71,4.91,6.1,6.1,0,0,1-2,5.82H26.74Z" transform="translate(0 -0.02)"/><circle class="cls-1" cx="13.67" cy="28.28" r="1.46"/><path class="cls-1" d="M73.75,16.06L68.47,7.21a3,3,0,0,0-2.56-1.52A2.54,2.54,0,0,0,64.6,6L49,15.33H48.19a3.13,3.13,0,0,0-3,3.2V31.16a3.13,3.13,0,0,0,3,3.2H71.81a3.13,3.13,0,0,0,3-3.2V18.53A3.26,3.26,0,0,0,73.75,16.06Zm-11.88-.73c-0.59,0,0-.53,0-0.53h0l6.22-3.9h0l0.25-.16a0.73,0.73,0,0,1,1,.36l2.11,3.54h0a0.58,0.58,0,0,1-.64.69h-9Zm3.36-8.24a1.31,1.31,0,0,1,.68-0.18,1.81,1.81,0,0,1,1.52.93l0.07,0.11h0a0.92,0.92,0,0,1-.39,1l-9.56,6h0a2.58,2.58,0,0,1-1.16.4H52.19A0.22,0.22,0,0,1,52,15Zm8.41,24.07a1.91,1.91,0,0,1-1.83,2H48.19a1.91,1.91,0,0,1-1.83-2V18.53a1.91,1.91,0,0,1,1.83-2H71.81a1.91,1.91,0,0,1,1.83,2V31.16Z" transform="translate(0 -0.02)"/><path class="cls-1" d="M71.24,20.91a3.07,3.07,0,0,0-4.79-2.54,3.07,3.07,0,1,0,0,5.09A3.07,3.07,0,0,0,71.24,20.91Zm-4.79,1.15a0.61,0.61,0,0,0-.43.17,1.85,1.85,0,1,1,0-2.65,0.61,0.61,0,0,0,.85,0,1.85,1.85,0,1,1,0,2.65A0.61,0.61,0,0,0,66.45,22.06Z" transform="translate(0 -0.02)"/><path class="cls-1" d="M52.14,28.86h-4a0.61,0.61,0,1,0,0,1.22h4A0.61,0.61,0,0,0,52.14,28.86Z" transform="translate(0 -0.02)"/><path class="cls-1" d="M58.77,28.86h-4a0.61,0.61,0,1,0,0,1.22h4A0.61,0.61,0,0,0,58.77,28.86Z" transform="translate(0 -0.02)"/><path class="cls-1" d="M65.4,28.86h-4a0.61,0.61,0,0,0,0,1.22h4A0.61,0.61,0,0,0,65.4,28.86Z" transform="translate(0 -0.02)"/><path class="cls-1" d="M72,28.86H68a0.61,0.61,0,1,0,0,1.22h4A0.61,0.61,0,1,0,72,28.86Z" transform="translate(0 -0.02)"/><rect class="cls-2" width="80" height="40"/></svg>