<svg id="圖層_1" data-name="圖層 1" xmlns="http://www.w3.org/2000/svg" viewBox="0 0 150 50"><defs><style>.cls-1{fill:none;}.cls-2{fill:#4e4d4d;}.cls-3{fill:#fff;}</style></defs><title>icon_accounts</title><rect class="cls-1" width="150" height="50"/><path class="cls-2" d="M20.63,5a5.84,5.84,0,0,0-8.43,0A5.88,5.88,0,0,0,8,3.21a6.21,6.21,0,0,0-4.58,2A5.75,5.75,0,0,0,1.94,9.65C2.15,12,3.54,14,5.71,16.4a36.39,36.39,0,0,0,6.22,5.4,0.48,0.48,0,0,0,.26.08,0.46,0.46,0,0,0,.25-0.07A38.92,38.92,0,0,0,19,16.44c3.14-3.35,3.43-5.21,3.46-6.82A6.35,6.35,0,0,0,20.63,5ZM18.3,15.8a36.06,36.06,0,0,1-5.19,4.41,1.53,1.53,0,0,1-1.78,0,34.69,34.69,0,0,1-4.92-4.44c-2-2.3-3.35-4.14-3.54-6.22A4.83,4.83,0,0,1,4.1,5.83,5.27,5.27,0,0,1,8,4.14,5,5,0,0,1,11.83,6a0.48,0.48,0,0,0,.72,0A4.92,4.92,0,0,1,20,5.67,5.43,5.43,0,0,1,21.51,9.6C21.49,10.73,21.46,12.43,18.3,15.8Z"/><path class="cls-2" d="M41.53,11.49a0.44,0.44,0,0,0-.79.37l0.79,1.69a0.44,0.44,0,0,0,.79-0.37Z"/><path class="cls-2" d="M40.74,9.8L40,8.1a0.44,0.44,0,0,0-.79.37l0.79,1.69A0.44,0.44,0,1,0,40.74,9.8Z"/><path class="cls-2" d="M48.77,13.21L47.69,10.9a0.89,0.89,0,0,0-1.09-.46l-0.08,0a2.15,2.15,0,0,1-1.78-3.82,0.9,0.9,0,0,0,.48-1A1.12,1.12,0,0,0,45,5.24l-1-2.09a0.44,0.44,0,0,0-.58-0.21L25.59,11.29a0.44,0.44,0,0,0-.21.58l1.08,2.32a0.93,0.93,0,0,0,1.17.43,2.15,2.15,0,0,1,1.78,3.82,2.09,2.09,0,0,1-.32.2h0a0.66,0.66,0,0,0-.16.83v0L29,19.61l1.08,2.32a0.44,0.44,0,0,0,.58.21l17.91-8.35A0.44,0.44,0,0,0,48.77,13.21Zm-1.46.2-4,1.87-0.18-.4a0.44,0.44,0,0,0-.79.37l0.19,0.4L31.09,21c-0.39.18-.53,0-0.55-0.1L29.9,19.5A0.36,0.36,0,0,1,30,19.07h0a3,3,0,0,0-2.39-5.34h0a0.45,0.45,0,0,1-.51-0.21l-0.62-1.33a0.38,0.38,0,0,1,.29-0.49l11.4-5.32,0.19,0.4a0.44,0.44,0,1,0,.79-0.37L39,6,42.86,4.2a0.64,0.64,0,0,1,.88.31l0.44,0.94a0.53,0.53,0,0,1-.09.59h0a3,3,0,0,0,2.27,5.33h0l0.15,0a0.59,0.59,0,0,1,.59.36l0.5,1.08A0.45,0.45,0,0,1,47.31,13.41Z"/><path class="cls-2" d="M38.49,11.87l-1.84-.34L35.77,9.89a0.46,0.46,0,0,0-.8,0l-0.89,1.64-1.84.34a0.46,0.46,0,0,0-.25.76L33.28,14,33,15.84a0.46,0.46,0,0,0,.65.47l1.69-.81,1.68,0.81a0.46,0.46,0,0,0,.2,0,0.46,0.46,0,0,0,.45-0.52L37.45,14l1.29-1.35A0.46,0.46,0,0,0,38.49,11.87Zm-1.85,1.65a0.45,0.45,0,0,0-.12.37l0.16,1.23-1.12-.54a0.46,0.46,0,0,0-.39,0L34,15.13l0.16-1.23a0.46,0.46,0,0,0-.12-0.37l-0.86-.9,1.22-.23a0.45,0.45,0,0,0,.32-0.23l0.59-1.09L36,12.16a0.45,0.45,0,0,0,.32.23l1.22,0.23Z"/><path class="cls-2" d="M70.7,8.08L65.39,3l0,0,0,0,0,0,0,0H57.48a2.22,2.22,0,0,0-2.13,2.3V19.91a2.22,2.22,0,0,0,2.13,2.3H68.72a2.22,2.22,0,0,0,2.12-2.3V8.41A0.46,0.46,0,0,0,70.7,8.08ZM65.53,5.19c0-.24.07-0.62,0.37-0.43l2.89,2.77s0.32,0.34-.06.42H66.91a1.38,1.38,0,0,1-1.38-1.38V5.19Zm4.39,14.73a1.3,1.3,0,0,1-1.2,1.38H57.48a1.3,1.3,0,0,1-1.2-1.38V5.17a1.3,1.3,0,0,1,1.2-1.38h6.41a0.79,0.79,0,0,1,.72,1V6.57a2.31,2.31,0,0,0,2.3,2.3H69a1,1,0,0,1,.91,1.26v9.79Z"/><path class="cls-2" d="M68.21,12.65H57.87a0.46,0.46,0,1,0,0,.92H68.21A0.46,0.46,0,1,0,68.21,12.65Z"/><path class="cls-2" d="M68.21,15.26H57.87a0.46,0.46,0,1,0,0,.92H68.21A0.46,0.46,0,1,0,68.21,15.26Z"/><path class="cls-2" d="M68.21,17.87H57.87a0.46,0.46,0,0,0,0,.92H68.21A0.46,0.46,0,1,0,68.21,17.87Z"/><path class="cls-2" d="M87.38,2.31c-6,0-10.87,4.12-10.87,9.18,0,4.53,4,8.43,9.3,9.08l0.17,0a0.67,0.67,0,0,1,.35.11,0.87,0.87,0,0,1,0,.47c-0.06.25-.14,0.49-0.21,0.73a1.92,1.92,0,0,0-.16,1.23,0.85,0.85,0,0,0,.83.53h0a2.84,2.84,0,0,0,1.41-.54c1.1-.69,5.56-4,6.31-4.6a8.07,8.07,0,0,0,.78-0.7,8.44,8.44,0,0,0,3-6.34C98.25,6.42,93.38,2.31,87.38,2.31Zm7.25,14.85,0,0a7.11,7.11,0,0,1-.7.63c-0.74.59-5.15,3.86-6.23,4.54a2.22,2.22,0,0,1-.9.4,5.09,5.09,0,0,1,.17-0.58c0.08-.24.17-0.52,0.23-0.81a1.49,1.49,0,0,0-.09-1.19,1.34,1.34,0,0,0-1-.49l-0.11,0H85.94c-4.86-.58-8.53-4.1-8.53-8.18,0-4.56,4.47-8.27,10-8.27s10,3.71,10,8.27A7.55,7.55,0,0,1,94.63,17.16Z"/><path class="cls-2" d="M87.63,15.79a0.68,0.68,0,0,0-.5.2,0.72,0.72,0,0,0-.22.52,0.72,0.72,0,0,0,1.22.51,0.73,0.73,0,0,0,0-1A0.75,0.75,0,0,0,87.63,15.79Z"/><path class="cls-2" d="M87.83,7.12a2.93,2.93,0,0,0-2.25,1,2.34,2.34,0,0,0-.72,1.58A0.47,0.47,0,0,0,85,10a0.58,0.58,0,0,0,.4.16A0.53,0.53,0,0,0,86,9.72,1.78,1.78,0,0,1,87.75,8.1,1.68,1.68,0,0,1,89,8.58a1.64,1.64,0,0,1,.5,1.21,1.58,1.58,0,0,1-.27.89,6.3,6.3,0,0,1-.86.91,4.72,4.72,0,0,0-1,1.21A3.2,3.2,0,0,0,87,14.22a0.54,0.54,0,0,0,.53.66,0.5,0.5,0,0,0,.53-0.57,3.61,3.61,0,0,1,.19-1,4.17,4.17,0,0,1,.9-1A5.25,5.25,0,0,0,90.26,11a2.47,2.47,0,0,0,.34-1.26A2.59,2.59,0,0,0,87.83,7.12Z"/><path class="cls-2" d="M116.65,13a6.46,6.46,0,1,0-.94.68,9.88,9.88,0,0,1,6.48,8.07,0.6,0.6,0,0,1-.55.73H103.06a0.54,0.54,0,0,1-.45-0.59,9.86,9.86,0,0,1,4.15-7h0a0.45,0.45,0,0,0,.1-0.13l0,0v0h0a0.48,0.48,0,0,0-.06-0.45,0.49,0.49,0,0,0-.5-0.19h0l0,0,0,0a1.77,1.77,0,0,0-.33.22h0A10.82,10.82,0,0,0,101.57,23a0.49,0.49,0,0,0,.49.49h20.69a0.49,0.49,0,0,0,.49-0.49A10.85,10.85,0,0,0,116.65,13Zm-1.08-.4a5.49,5.49,0,1,1,2.33-4.49A5.45,5.45,0,0,1,115.57,12.6Z"/><path class="cls-2" d="M146.1,2.29h-9.63a0.48,0.48,0,0,0-.49.45V6a0.5,0.5,0,0,0,1,0V3.46c0-.05,0-0.26.43-0.26h7.76a0.42,0.42,0,0,1,.45.44V21.42a0.55,0.55,0,0,1-.51.46h-7.71A0.39,0.39,0,0,1,137,21.5V19.13a0.5,0.5,0,0,0-1,0v3.21a0.48,0.48,0,0,0,.49.45h9.63a0.48,0.48,0,0,0,.49-0.45V2.75A0.48,0.48,0,0,0,146.1,2.29Z"/><path class="cls-2" d="M130.83,13.51c-0.08-.07-0.24-0.28.22-0.28h10.6a0.46,0.46,0,1,0,0-.91H131s-0.42,0-.08-0.33l3.32-2.94a0.43,0.43,0,0,0,0-.64,0.52,0.52,0,0,0-.7,0l-4.58,4a0.44,0.44,0,0,0-.15.33,0.44,0.44,0,0,0,.15.33l4.58,4.1a0.51,0.51,0,0,0,.34.13,0.52,0.52,0,0,0,.35-0.14,0.43,0.43,0,0,0,0-.64Z"/><path class="cls-3" d="M20.63,29.71a5.84,5.84,0,0,0-8.43,0A5.88,5.88,0,0,0,8,27.9a6.21,6.21,0,0,0-4.58,2,5.75,5.75,0,0,0-1.47,4.45c0.21,2.34,1.6,4.32,3.77,6.75a36.39,36.39,0,0,0,6.22,5.4,0.48,0.48,0,0,0,.26.08,0.46,0.46,0,0,0,.25-0.07A38.92,38.92,0,0,0,19,41.14c3.14-3.35,3.43-5.21,3.46-6.82A6.35,6.35,0,0,0,20.63,29.71ZM18.3,40.5a36.06,36.06,0,0,1-5.19,4.41,1.53,1.53,0,0,1-1.78,0,34.69,34.69,0,0,1-4.92-4.44c-2-2.3-3.35-4.14-3.54-6.22A4.83,4.83,0,0,1,4.1,30.52,5.27,5.27,0,0,1,8,28.84a5,5,0,0,1,3.84,1.86,0.48,0.48,0,0,0,.72,0A4.92,4.92,0,0,1,20,30.36a5.43,5.43,0,0,1,1.55,3.93C21.49,35.42,21.46,37.13,18.3,40.5Z"/><path class="cls-3" d="M41.53,36.19a0.44,0.44,0,0,0-.79.37l0.79,1.69a0.44,0.44,0,0,0,.79-0.37Z"/><path class="cls-3" d="M40.74,34.49L40,32.8a0.44,0.44,0,0,0-.79.37l0.79,1.69A0.44,0.44,0,1,0,40.74,34.49Z"/><path class="cls-3" d="M48.77,37.91l-1.08-2.32a0.89,0.89,0,0,0-1.09-.46l-0.08,0a2.15,2.15,0,0,1-1.78-3.82,0.9,0.9,0,0,0,.48-1A1.12,1.12,0,0,0,45,29.94l-1-2.09a0.44,0.44,0,0,0-.58-0.21L25.59,36a0.44,0.44,0,0,0-.21.58l1.08,2.32a0.93,0.93,0,0,0,1.17.43,2.15,2.15,0,0,1,1.78,3.82,2.09,2.09,0,0,1-.32.2h0a0.66,0.66,0,0,0-.16.83v0L29,44.31l1.08,2.32a0.44,0.44,0,0,0,.58.21l17.91-8.35A0.44,0.44,0,0,0,48.77,37.91Zm-1.46.2L43.3,40l-0.18-.4a0.44,0.44,0,0,0-.79.37l0.19,0.4L31.09,45.67c-0.39.18-.53,0-0.55-0.1L29.9,44.19A0.36,0.36,0,0,1,30,43.77h0a3,3,0,0,0-2.39-5.34h0a0.45,0.45,0,0,1-.51-0.21l-0.62-1.33a0.38,0.38,0,0,1,.29-0.49l11.4-5.32,0.19,0.4a0.44,0.44,0,1,0,.79-0.37L39,30.71l3.88-1.81a0.64,0.64,0,0,1,.88.31l0.44,0.94a0.53,0.53,0,0,1-.09.59h0a3,3,0,0,0,2.27,5.33h0l0.15,0a0.59,0.59,0,0,1,.59.36l0.5,1.08A0.45,0.45,0,0,1,47.31,38.11Z"/><path class="cls-3" d="M38.49,36.57l-1.84-.34-0.89-1.64a0.46,0.46,0,0,0-.8,0l-0.89,1.64-1.84.34a0.46,0.46,0,0,0-.25.76l1.29,1.35L33,40.54a0.46,0.46,0,0,0,.65.47l1.69-.81L37.05,41a0.46,0.46,0,0,0,.2,0,0.46,0.46,0,0,0,.45-0.52l-0.25-1.85,1.29-1.35A0.46,0.46,0,0,0,38.49,36.57Zm-1.85,1.65a0.45,0.45,0,0,0-.12.37l0.16,1.23-1.12-.54a0.46,0.46,0,0,0-.39,0L34,39.82l0.16-1.23a0.46,0.46,0,0,0-.12-0.37l-0.86-.9,1.22-.23a0.45,0.45,0,0,0,.32-0.23l0.59-1.09L36,36.86a0.45,0.45,0,0,0,.32.23l1.22,0.23Z"/><path class="cls-3" d="M70.7,32.77l-5.31-5.08,0,0,0,0,0,0,0,0H57.48a2.22,2.22,0,0,0-2.13,2.3V44.61a2.22,2.22,0,0,0,2.13,2.3H68.72a2.22,2.22,0,0,0,2.12-2.3V33.11A0.46,0.46,0,0,0,70.7,32.77Zm-5.17-2.89c0-.24.07-0.62,0.37-0.43l2.89,2.77s0.32,0.34-.06.42H66.91a1.38,1.38,0,0,1-1.38-1.38V29.88Zm4.39,14.73A1.3,1.3,0,0,1,68.72,46H57.48a1.3,1.3,0,0,1-1.2-1.38V29.87a1.3,1.3,0,0,1,1.2-1.38h6.41a0.79,0.79,0,0,1,.72,1v1.81a2.31,2.31,0,0,0,2.3,2.3H69a1,1,0,0,1,.91,1.26v9.79Z"/><path class="cls-3" d="M68.21,37.35H57.87a0.46,0.46,0,1,0,0,.92H68.21A0.46,0.46,0,1,0,68.21,37.35Z"/><path class="cls-3" d="M68.21,40H57.87a0.46,0.46,0,1,0,0,.92H68.21A0.46,0.46,0,1,0,68.21,40Z"/><path class="cls-3" d="M68.21,42.57H57.87a0.46,0.46,0,0,0,0,.92H68.21A0.46,0.46,0,1,0,68.21,42.57Z"/><path class="cls-3" d="M87.38,27c-6,0-10.87,4.12-10.87,9.18,0,4.53,4,8.43,9.3,9.08l0.17,0a0.67,0.67,0,0,1,.35.11,0.87,0.87,0,0,1,0,.47c-0.06.25-.14,0.49-0.21,0.73a1.92,1.92,0,0,0-.16,1.23,0.85,0.85,0,0,0,.83.53h0a2.84,2.84,0,0,0,1.41-.54c1.1-.69,5.56-4,6.31-4.6a8.07,8.07,0,0,0,.78-0.7,8.44,8.44,0,0,0,3-6.34C98.25,31.12,93.38,27,87.38,27Zm7.25,14.85,0,0a7.11,7.11,0,0,1-.7.63c-0.74.59-5.15,3.86-6.23,4.54a2.22,2.22,0,0,1-.9.4,5.09,5.09,0,0,1,.17-0.58c0.08-.24.17-0.52,0.23-0.81a1.49,1.49,0,0,0-.09-1.19,1.34,1.34,0,0,0-1-.49l-0.11,0H85.94c-4.86-.58-8.53-4.1-8.53-8.18,0-4.56,4.47-8.27,10-8.27s10,3.71,10,8.27A7.55,7.55,0,0,1,94.63,41.85Z"/><path class="cls-3" d="M87.63,40.49a0.68,0.68,0,0,0-.5.2,0.72,0.72,0,0,0-.22.52,0.72,0.72,0,0,0,1.22.51,0.73,0.73,0,0,0,0-1A0.75,0.75,0,0,0,87.63,40.49Z"/><path class="cls-3" d="M87.83,31.81a2.93,2.93,0,0,0-2.25,1,2.34,2.34,0,0,0-.72,1.58,0.47,0.47,0,0,0,.17.36,0.58,0.58,0,0,0,.4.16A0.53,0.53,0,0,0,86,34.42a1.78,1.78,0,0,1,1.77-1.62,1.68,1.68,0,0,1,1.21.48,1.64,1.64,0,0,1,.5,1.21,1.58,1.58,0,0,1-.27.89,6.3,6.3,0,0,1-.86.91,4.72,4.72,0,0,0-1,1.21A3.2,3.2,0,0,0,87,38.92a0.54,0.54,0,0,0,.53.66A0.5,0.5,0,0,0,88.11,39a3.61,3.61,0,0,1,.19-1,4.17,4.17,0,0,1,.9-1,5.25,5.25,0,0,0,1.06-1.28,2.47,2.47,0,0,0,.34-1.26A2.59,2.59,0,0,0,87.83,31.81Z"/><path class="cls-3" d="M116.65,37.69a6.46,6.46,0,1,0-.94.68,9.88,9.88,0,0,1,6.48,8.07,0.6,0.6,0,0,1-.55.73H103.06a0.54,0.54,0,0,1-.45-0.59,9.86,9.86,0,0,1,4.15-7h0a0.45,0.45,0,0,0,.1-0.13l0,0v0h0a0.48,0.48,0,0,0-.06-0.45,0.49,0.49,0,0,0-.5-0.19h0l0,0,0,0a1.77,1.77,0,0,0-.33.22h0a10.82,10.82,0,0,0-4.35,8.67,0.49,0.49,0,0,0,.49.49h20.69a0.49,0.49,0,0,0,.49-0.49A10.85,10.85,0,0,0,116.65,37.69Zm-1.08-.4a5.49,5.49,0,1,1,2.33-4.49A5.45,5.45,0,0,1,115.57,37.29Z"/><path class="cls-3" d="M146.1,27h-9.63a0.48,0.48,0,0,0-.49.45v3.21a0.5,0.5,0,0,0,1,0V28.16c0-.05,0-0.26.43-0.26h7.76a0.42,0.42,0,0,1,.45.44V46.12a0.55,0.55,0,0,1-.51.46h-7.71a0.39,0.39,0,0,1-.43-0.38V43.83a0.5,0.5,0,0,0-1,0V47a0.48,0.48,0,0,0,.49.45h9.63a0.48,0.48,0,0,0,.49-0.45V27.44A0.48,0.48,0,0,0,146.1,27Z"/><path class="cls-3" d="M130.83,38.21c-0.08-.07-0.24-0.28.22-0.28h10.6a0.46,0.46,0,1,0,0-.91H131s-0.42,0-.08-0.33l3.32-2.94a0.43,0.43,0,0,0,0-.64,0.52,0.52,0,0,0-.7,0l-4.58,4a0.44,0.44,0,0,0-.15.33,0.44,0.44,0,0,0,.15.33l4.58,4.1a0.51,0.51,0,0,0,.34.13,0.52,0.52,0,0,0,.35-0.14,0.43,0.43,0,0,0,0-.64Z"/></svg>