<?xml version="1.0" encoding="utf-8"?>
<!-- Generator: Adobe Illustrator 19.2.0, SVG Export Plug-In . SVG Version: 6.00 Build 0)  -->
<svg version="1.1" id="Layer_1" xmlns="http://www.w3.org/2000/svg" xmlns:xlink="http://www.w3.org/1999/xlink" x="0px" y="0px"
	 viewBox="0 0 400 156" style="enable-background:new 0 0 400 156;" xml:space="preserve">
<style type="text/css">
	.st0{fill:none;}
	.st1{fill:url(#SVGID_1_);}
	.st2{fill:url(#SVGID_2_);}
	.st3{fill:url(#SVGID_3_);}
	.st4{fill:#001856;}
	.st5{fill:url(#SVGID_4_);}
	.st6{fill:url(#SVGID_5_);}
	.st7{fill:url(#SVGID_6_);}
</style>
<g>
	<g>
		<g>
			<g>
				<g>
					<path class="st0" d="M80.9,53.6c8.4-11.8,21.4-22.4,34.9-28.7c0,0-0.1,0-0.1-0.1C102.2,31.2,89.3,41.8,80.9,53.6z"/>
					<radialGradient id="SVGID_1_" cx="70.2937" cy="78.6016" r="51.9789" gradientUnits="userSpaceOnUse">
						<stop  offset="0.2708" style="stop-color:#FFFFFF"/>
						<stop  offset="0.4843" style="stop-color:#FDFDFD"/>
						<stop  offset="0.6883" style="stop-color:#F3F3F2"/>
						<stop  offset="0.888" style="stop-color:#E2E1E0"/>
						<stop  offset="1" style="stop-color:#D5D5D2"/>
					</radialGradient>
					<path class="st1" d="M73.8,57.1c8.7-14,24.1-26.9,40.1-33.5c-22.7-13.7-61.6,8.2-77.6,34c-16.2,26-11,58.9,11.6,73.4
						c13.1,8.4,29.1,8.8,43.4,2.6c-2-0.9-4-1.9-5.9-3.1C62.7,116,57.5,83.1,73.8,57.1z"/>
					<radialGradient id="SVGID_2_" cx="112.9347" cy="78.223" r="52.0859" gradientUnits="userSpaceOnUse">
						<stop  offset="0.19" style="stop-color:#FFEC00"/>
						<stop  offset="0.4033" style="stop-color:#FBCD00"/>
						<stop  offset="0.8859" style="stop-color:#ED7103"/>
						<stop  offset="1" style="stop-color:#EA5608"/>
					</radialGradient>
					<path class="st2" d="M114.6,115.3c-9.6-16.5-9.3-39.3,2.7-58.4c2.9-4.7,6.6-9.3,10.9-13.6c8.2-8.2,18.3-15.3,28.7-19.7
						c0,0,0,0,0,0c-5.7-3.7-12.5-5-19.7-4.5c-6.8,0.5-14.1,2.6-21.1,5.8c-13.6,6.3-26.5,16.9-34.9,28.7c-0.8,1.1-1.6,2.3-2.3,3.5
						c-16.2,26.1-11,58.9,11.6,73.4c1.2,0.7,2.3,1.4,3.5,2c5.7,2.9,11.8,4.5,18,4.7c-0.6,0-1.2,0.1-1.8,0.1c0.5,0,1.1,0.1,1.7,0.1
						c7.5,0.3,15.1-1.2,22.2-4.3c-1.7-0.8-3.4-1.7-5.1-2.8C122.8,126.5,118,121.3,114.6,115.3z"/>
					<radialGradient id="SVGID_3_" cx="164.6585" cy="77.8518" r="55.7552" gradientUnits="userSpaceOnUse">
						<stop  offset="0.2708" style="stop-color:#FFFFFF"/>
						<stop  offset="0.4843" style="stop-color:#FDFDFD"/>
						<stop  offset="0.6883" style="stop-color:#F3F3F2"/>
						<stop  offset="0.888" style="stop-color:#E2E1E0"/>
						<stop  offset="1" style="stop-color:#D5D5D2"/>
					</radialGradient>
					<path class="st3" d="M200.3,23.2c-5.7-3.7-12.5-5-19.7-4.5c-7.1,0.5-14.6,2.7-22,6.2c-11,5.2-21.5,13.2-29.4,22.4
						c-2.7,3.1-5.1,6.3-7.1,9.5c-11,17.7-12.1,38.4-4.7,54.5c3.5,7.6,9,14.2,16.3,18.9c0.9,0.6,1.8,1.1,2.8,1.6
						c5.9,3.2,12.3,4.9,18.8,5.1c18.2,0.8,37.3-9.3,48.7-27.7C220.2,83.3,222.9,37.7,200.3,23.2z"/>
				</g>
				<g>
					<g>
						<path class="st4" d="M124.4,65.6l-0.9,2.7c0.9-1.1,1.9-1.9,3-2.5c1.1-0.5,2.2-0.8,3.4-0.8c1.5,0,2.7,0.3,3.5,1.1
							c0.8,0.7,1.2,1.7,1.2,2.8c0,1.1-0.4,3-1,5.6l-5.3,20.9l-8.9,0.1l5.3-20.6c0.5-2,0.8-3.3,0.8-3.8c0-0.4-0.3-0.7-0.9-0.6
							c-0.6,0-1.1,0.3-1.4,0.8c-0.3,0.5-0.7,1.9-1.3,4.1l-5.1,20.1l-8.9,0.1l7.6-29.8L124.4,65.6z"/>
						<path class="st4" d="M147.5,76l0.6-2.2c0.4-1.6,0.6-2.5,0.5-3c-0.1-0.4-0.3-0.7-0.8-0.7c-0.6,0-1.1,0.2-1.3,0.6
							c-0.2,0.4-0.6,1.4-1,3.1l-0.6,2.2L147.5,76z M155.2,80.7l-11.5,0.1l-1.6,6.4c-0.3,1.4-0.5,2.2-0.4,2.6
							c0.1,0.4,0.4,0.6,0.9,0.6c0.7,0,1.2-0.3,1.5-0.8c0.4-0.5,0.7-1.5,1.1-3l1-3.9l8.5-0.1l-0.6,2.2c-0.5,1.8-0.9,3.2-1.4,4.2
							c-0.5,1-1.3,2.1-2.4,3.2c-1.1,1.1-2.4,2-3.8,2.6c-1.4,0.6-3.1,0.9-5.1,0.9c-1.9,0-3.5-0.2-4.8-0.8c-1.3-0.5-2.2-1.3-2.8-2.3
							c-0.6-1-0.8-2-0.9-3.2c0-1.1,0.3-2.8,0.8-5l2.2-8.7c0.6-2.6,1.5-4.6,2.6-6.2c1.1-1.5,2.5-2.7,4.3-3.5c1.8-0.8,3.7-1.2,5.7-1.3
							c2.5,0,4.4,0.4,5.8,1.4c1.4,1,2.2,2.2,2.4,3.8c0.2,1.6,0,3.8-0.7,6.7L155.2,80.7z"/>
						<path class="st4" d="M190.8,65l-11.2,29.8h-9.4c0-0.1-0.1-0.2-0.1-0.3c0.4-3.6,1-8.3,1.8-14c-1,2.6-2,5.3-3.2,8l-2.6,6.5
							l-9.6,0.1l3.8-29.7l7.6-0.1c-0.1,0.8-0.9,6.5-2.4,17.1c0.4-1.1,2.6-6.8,6.4-17.1l7.3-0.1l-2.5,17.1c1.6-5.1,3.7-10.8,6.4-17.2
							L190.8,65z"/>
						<path class="st4" d="M202,75.4l0.5-2.2c0.4-1.6,0.6-2.6,0.5-3c0-0.5-0.3-0.7-0.8-0.7c-0.6,0-1.1,0.2-1.3,0.6
							c-0.2,0.4-0.6,1.4-1,3.1l-0.6,2.2L202,75.4z M209.7,80.2l-11.5,0.1l-1.7,6.4c-0.3,1.4-0.5,2.2-0.4,2.6
							c0.1,0.4,0.4,0.6,0.9,0.6c0.7,0,1.2-0.2,1.5-0.8c0.4-0.5,0.7-1.5,1.1-3l1-3.9l8.5-0.1l-0.6,2.2c-0.5,1.8-0.9,3.3-1.4,4.3
							c-0.5,1-1.3,2-2.4,3.2c-1.1,1.1-2.4,2-3.8,2.6c-1.4,0.6-3.1,0.9-5,0.9c-1.9,0-3.5-0.2-4.8-0.8c-1.3-0.5-2.2-1.3-2.8-2.2
							c-0.6-1-0.8-2-0.9-3.2c0-1.2,0.3-2.8,0.8-5.1l2.2-8.7c0.7-2.6,1.5-4.6,2.6-6.1c1.1-1.5,2.5-2.7,4.3-3.5
							c1.8-0.8,3.7-1.2,5.7-1.2c2.5,0,4.4,0.5,5.8,1.4c1.4,1,2.2,2.2,2.4,3.8c0.2,1.6,0,3.8-0.7,6.7L209.7,80.2z"/>
						<path class="st4" d="M225.9,72.5c0.3-1.4,0.5-2.2,0.4-2.6c-0.1-0.4-0.3-0.6-0.9-0.6c-0.5,0-0.9,0.2-1.3,0.7
							c-0.3,0.4-0.7,1.3-1,2.5l-2.6,10c-0.3,1.3-0.5,2.2-0.4,2.6c0.1,0.4,0.4,0.6,0.9,0.6c0.6,0,1-0.3,1.3-0.7
							c0.3-0.5,0.7-1.6,1.1-3.3L225.9,72.5z M236.8,64.6L231,87.5c-0.8,3.1-1.4,5.1-1.8,6c-0.4,0.9-1.1,1.9-2.2,2.9
							c-1.1,1-2.5,1.8-4.1,2.3c-1.7,0.6-3.6,0.8-5.9,0.8c-2.9,0-5-0.4-6.5-1.4c-1-0.6-1.3-1.4-1.3-2.7v-3.1l8.8,0
							c-0.4,1.3,0,2,0.9,2c0.7,0,1.2-0.2,1.5-0.6c0.3-0.4,0.7-1.3,1-2.6l0.6-2.3c-1,0.7-1.9,1.3-2.8,1.6c-0.9,0.4-1.9,0.6-2.8,0.6
							c-1.6,0-2.8-0.3-3.7-0.9c-0.9-0.6-1.4-1.5-1.5-2.6c-0.1-1.1,0.1-2.6,0.6-4.6l2.8-10.8c0.7-2.8,1.7-4.9,3.1-6.1
							c1.3-1.2,3-1.9,5-1.9c1.1,0,2.1,0.2,2.9,0.7c0.8,0.5,1.5,1.1,2,2.1l1.2-2.3L236.8,64.6z"/>
						<path class="st4" d="M249.3,72.3c0.3-1.4,0.5-2.2,0.4-2.6c-0.1-0.4-0.4-0.5-0.9-0.5c-0.5,0-0.9,0.2-1.3,0.6
							c-0.3,0.4-0.6,1.3-1,2.5l-2.6,10c-0.3,1.3-0.5,2.2-0.4,2.6c0.1,0.4,0.3,0.6,0.9,0.6c0.6,0,1-0.2,1.3-0.7
							c0.3-0.5,0.7-1.6,1.1-3.3L249.3,72.3z M260.3,64.4l-5.8,23c-0.8,3.1-1.4,5.1-1.8,6c-0.4,0.9-1.1,1.8-2.2,2.9
							c-1.1,1-2.5,1.8-4.1,2.3c-1.7,0.5-3.6,0.8-5.9,0.9c-2.9,0-5-0.4-6.5-1.4c-1.5-1-1.9-2.9-1.2-5.8l8.7-0.1c-0.3,1.4,0,2,0.9,2
							c0.7,0,1.2-0.2,1.5-0.6c0.3-0.4,0.7-1.3,1-2.6l0.6-2.3c-0.9,0.7-1.9,1.3-2.8,1.6c-0.9,0.4-1.9,0.6-2.8,0.6
							c-1.6,0-2.9-0.3-3.7-0.9c-0.9-0.6-1.4-1.5-1.5-2.6c-0.1-1,0.1-2.6,0.6-4.5l2.7-10.8c0.7-2.8,1.8-4.9,3.1-6.1
							c1.3-1.2,3-1.9,5.1-1.9c1.1,0,2.1,0.2,2.9,0.7c0.8,0.4,1.4,1.1,1.9,2.1l1.2-2.3L260.3,64.4z"/>
					</g>
				</g>
			</g>
		</g>
	</g>
	<g>
		<g>
			<path class="st4" d="M261.4,90.7h5v4.7h-5V90.7z"/>
			<path class="st4" d="M278.9,90.6l4.5,0.5c-0.2,0.9-0.6,1.7-1.2,2.4c-0.6,0.7-1.3,1.2-2.1,1.6c-0.9,0.4-2,0.6-3.3,0.6
				c-1.3,0-2.4-0.1-3.2-0.4c-0.9-0.2-1.6-0.6-2.2-1.2c-0.6-0.5-1.1-1.2-1.5-1.9c-0.4-0.7-0.5-1.7-0.5-2.9c0-1.3,0.2-2.3,0.6-3.1
				c0.3-0.6,0.7-1.2,1.3-1.7c0.5-0.5,1.1-0.8,1.7-1.1c0.9-0.4,2.1-0.6,3.5-0.6c2,0,3.5,0.4,4.6,1.1c1,0.7,1.8,1.8,2.2,3.1l-4.4,0.6
				c-0.1-0.5-0.4-0.9-0.8-1.2c-0.4-0.3-0.9-0.4-1.5-0.4c-0.8,0-1.4,0.3-1.9,0.8c-0.5,0.6-0.7,1.4-0.7,2.5c0,1,0.2,1.8,0.7,2.3
				c0.5,0.5,1.1,0.8,1.8,0.8c0.6,0,1.1-0.2,1.5-0.5C278.4,91.7,278.7,91.2,278.9,90.6z"/>
			<path class="st4" d="M285.5,89.3c0-1.9,0.6-3.4,1.9-4.6c1.3-1.2,3-1.8,5.1-1.8c2.4,0,4.3,0.7,5.5,2.1c1,1.1,1.5,2.6,1.5,4.2
				c0,1.9-0.6,3.4-1.9,4.6c-1.2,1.2-3,1.8-5.2,1.8c-2,0-3.5-0.5-4.8-1.5C286.3,92.9,285.5,91.3,285.5,89.3z M290.3,89.3
				c0,1.1,0.2,1.9,0.7,2.4c0.4,0.5,1,0.8,1.6,0.8c0.7,0,1.2-0.3,1.6-0.8c0.4-0.5,0.6-1.3,0.6-2.5c0-1.1-0.2-1.8-0.7-2.4
				c-0.4-0.5-1-0.8-1.6-0.8c-0.7,0-1.2,0.3-1.7,0.8C290.5,87.4,290.3,88.2,290.3,89.3z"/>
			<path class="st4" d="M302.5,83.1h4.4v1.8c0.6-0.7,1.3-1.3,1.9-1.6c0.6-0.3,1.4-0.5,2.3-0.5c1,0,1.7,0.2,2.3,0.5
				c0.6,0.3,1,0.9,1.4,1.5c0.7-0.8,1.4-1.3,2-1.6c0.6-0.3,1.4-0.4,2.2-0.4c1.3,0,2.3,0.4,3.1,1.2c0.7,0.8,1.1,2,1.1,3.7v7.7h-4.7v-7
				c0-0.6-0.1-1-0.3-1.2c-0.3-0.4-0.7-0.6-1.2-0.6c-0.5,0-1,0.2-1.3,0.6c-0.3,0.4-0.5,1-0.5,1.9v6.3h-4.7v-6.7c0-0.5,0-0.9-0.1-1.1
				c-0.1-0.3-0.3-0.6-0.5-0.7c-0.2-0.2-0.5-0.3-0.9-0.3c-0.5,0-1,0.2-1.3,0.6c-0.3,0.4-0.5,1.1-0.5,2v6.2h-4.7V83.1z"/>
			<path class="st4" d="M326.6,90.7h5v4.7h-5V90.7z"/>
			<path class="st4" d="M340.7,78.5v4.7h2.6v3.4h-2.6v4.3c0,0.5,0,0.9,0.1,1c0.2,0.3,0.4,0.4,0.8,0.4c0.3,0,0.8-0.1,1.5-0.3l0.3,3.2
				c-1.2,0.3-2.2,0.4-3.3,0.4c-1.2,0-2-0.1-2.6-0.4c-0.6-0.3-1-0.8-1.2-1.4c-0.3-0.6-0.4-1.6-0.4-3v-4.3h-1.7v-3.4h1.7v-2.2
				L340.7,78.5z"/>
			<path class="st4" d="M344.7,83.1h4.5l2,7.7l2.5-7.7h4.2l2.6,7.7l2-7.7h4.5l-4.5,12.2h-4.2l-2.5-7.4l-2.4,7.4h-4.2L344.7,83.1z"/>
		</g>
	</g>
</g>
</svg>
