<svg xmlns="http://www.w3.org/2000/svg" xmlns:xlink="http://www.w3.org/1999/xlink" viewBox="0 0 190 90"><defs><style>.cls-1{fill:none;}.cls-2{isolation:isolate;}.cls-3{fill:#096eb6;}.cls-4{clip-path:url(#clip-path);}.cls-5{opacity:0.52;}.cls-6{mix-blend-mode:soft-light;}.cls-10,.cls-11,.cls-12,.cls-13,.cls-14,.cls-15,.cls-7,.cls-8,.cls-9{fill:#fff;}.cls-7{opacity:0.9;}.cls-8{opacity:0.5;}.cls-9{opacity:0.8;}.cls-10{opacity:0.7;}.cls-12{opacity:0.4;}.cls-13{opacity:0.3;}.cls-14{opacity:0.2;}.cls-15{opacity:0.6;}</style><clipPath id="clip-path"><rect class="cls-1" y="0.29" width="190.19" height="89.53"/></clipPath></defs><title>usaPurchase_01</title><g class="cls-2"><g id="圖層_1" data-name="圖層 1"><rect class="cls-3" x="-1.77" width="191.96" height="90"/><g class="cls-4"><g class="cls-5"><g class="cls-6"><polyline class="cls-7" points="-0.81 161.35 18.55 112.33 -0.81 63.27"/><polygon class="cls-8" points="18.49 14.07 -0.81 63.27 18.55 112.33 38.02 63.13 18.49 14.07"/><polygon class="cls-9" points="37.95 -35.13 18.49 14.07 38.02 63.13 57.4 14.25 37.95 -35.13"/><polyline class="cls-10" points="-0.81 63.27 18.49 14.07 -0.81 -35.1"/><polyline class="cls-7" points="193.41 62.67 174.37 112.37 193.41 162.48"/><polygon class="cls-10" points="193.41 62.67 174.16 14.18 193.41 -35.36 193.41 62.67"/></g><g class="cls-6"><polygon class="cls-8" points="154.66 -35.26 135.3 14.25 154.84 63.31 174.16 14.18 154.66 -35.26"/></g><g class="cls-6"><polygon class="cls-9" points="135.13 -84.33 115.8 -35.2 135.3 14.25 154.66 -35.26 135.13 -84.33"/><polygon class="cls-10" points="96.29 -84.36 76.82 -34.81 96.32 14.25 115.8 -35.2 96.29 -84.36"/></g><g class="cls-6"><polygon class="cls-11" points="18.75 -85.24 37.95 -35.13 18.49 14.07 -0.81 -35.1 18.75 -85.24"/><polygon class="cls-12" points="57.46 -84.64 76.82 -34.81 57.4 14.25 37.95 -35.13 57.46 -84.64"/><polygon class="cls-13" points="174.19 -84.11 193.41 -35.36 174.16 14.18 154.66 -35.26 174.19 -84.11"/></g><g class="cls-6"><polygon class="cls-9" points="38.07 63.12 57.6 112.18 38.13 161.38 18.6 112.32 38.07 63.12"/><polygon class="cls-10" points="76.94 63.31 96.47 112.37 77.1 161.05 57.6 112.18 76.94 63.31"/><polygon class="cls-14" points="57.4 14.25 76.94 63.31 57.6 112.18 37.94 63.45 57.4 14.25"/><polygon class="cls-15" points="115.89 63.31 135.42 112.37 115.95 161.57 96.47 112.37 115.89 63.31"/><polygon class="cls-7" points="96.35 14.24 115.89 63.31 96.47 112.37 76.88 63.45 96.35 14.24"/><polygon class="cls-8" points="76.82 -34.81 96.35 14.24 76.88 63.45 57.35 14.38 76.82 -34.81"/><polygon class="cls-7" points="154.84 63.31 174.37 112.37 154.9 161.57 135.37 112.51 154.84 63.31"/><polygon class="cls-9" points="135.3 14.25 154.84 63.31 135.37 112.51 115.84 63.45 135.3 14.25"/><polygon class="cls-11" points="115.8 -35.2 135.3 14.25 115.84 63.45 96.3 14.39 115.8 -35.2"/><polygon class="cls-11" points="174.16 14.18 193.41 62.67 174.37 112.37 154.84 63.31 174.16 14.18"/></g></g></g><path class="cls-11" d="M67.75,48.17H58.3V46.62L62.9,42a17.11,17.11,0,0,0,2.81-3.36,4.83,4.83,0,0,0,.53-2.21,2.86,2.86,0,0,0-.79-2.16,3.15,3.15,0,0,0-2.27-.76,5.89,5.89,0,0,0-4.06,1.84V33.49A6.63,6.63,0,0,1,63.4,32a4.61,4.61,0,0,1,3.27,1.14,4,4,0,0,1,1.23,3.09,6,6,0,0,1-.81,2.95A19,19,0,0,1,64,42.91l-3.68,3.66v0h7.41v1.56Z"/><path class="cls-11" d="M80.67,43.91h-2v4.27H76.94V43.91H69.48V42.78l7.05-10.49h2.1v10.2h2v1.42Zm-3.73-1.42v-7q0-.73,0-1.65h0q-0.08.23-.6,1.22l-5,7.42h5.57Z"/><path class="cls-11" d="M92.56,48.17H90.87V41.63q0-3.61-2.68-3.61a2.9,2.9,0,0,0-2.27,1A3.93,3.93,0,0,0,85,41.75v6.42h-1.7V31.39H85v7.34H85a4.09,4.09,0,0,1,3.71-2.16q3.8,0,3.8,4.62v7Z"/><path class="cls-11" d="M101.79,38.59a2.2,2.2,0,0,0-1.36-.36,2.3,2.3,0,0,0-2,1.14,5.28,5.28,0,0,0-.77,3v5.8H96V36.83h1.7v2.35h0.05a4,4,0,0,1,1.18-1.88,2.67,2.67,0,0,1,1.75-.67,3,3,0,0,1,1.1.15v1.79Z"/><path class="cls-11" d="M114.5,39l-0.92.58a18.88,18.88,0,0,0-1.13-2.11l-2.85.46v3.29h4v1.08h-4v4.3q2.44-.35,4.63-0.83v1.09q-5.36,1.12-10.79,1.72l-0.24-1.07q3.54-.44,5.34-0.7V42.34h-4.76V41.26h4.76V38.11q-2.53.32-4.7,0.42l-0.18-.9a13.37,13.37,0,0,0,4-5.17H103.5V31.36h10.7v1.11H109a22.72,22.72,0,0,1-3.35,4.87,56,56,0,0,0,6.22-.82q-0.56-.87-1.42-2l0.94-.55A26.75,26.75,0,0,1,114.5,39Zm2.29,6.23h-1.1v-13h1.1v13Zm4.18,2a1.61,1.61,0,0,1-1.77,1.87q-2.15,0-2.82,0L115.93,48q1.55,0.08,3,.08a0.81,0.81,0,0,0,.9-0.94V30.78H121V47.25Z"/><path class="cls-11" d="M131,31.42a11.91,11.91,0,0,1-2.38,2.05V37h-1.06V34.17a30.33,30.33,0,0,1-2.88,1.34l-0.62-.94a15,15,0,0,0,6-3.76Zm8.45,14.37h-8.53l0.64,0.63a23.92,23.92,0,0,1-6.74,2.9l-0.67-1a22.53,22.53,0,0,0,6.33-2.53h-2.93V37.84h11.9v7.95Zm-1.08-5.61V38.83h-9.71v1.34h9.71Zm0,2.29V41.12h-9.71v1.34h9.71Zm0,2.31V43.43h-9.71v1.34h9.71ZM142,34.44a3,3,0,0,1-.39,1.68,1.4,1.4,0,0,1-1.19.62q-0.8,0-2.67,0-4,0-4.42-.08a1.13,1.13,0,0,1-.73-0.48,1.5,1.5,0,0,1-.3-0.91V30.89h1.06v1.35h7.1v0.94h-7.1v1.89q0,0.71,1,.7h5.81a0.62,0.62,0,0,0,.65-0.38,4.3,4.3,0,0,0,.14-1.34Zm0.4,13.89-0.56,1a29.94,29.94,0,0,0-5.89-2.1l0.65-1A35.61,35.61,0,0,1,142.43,48.34Z"/><path class="cls-11" d="M57.38,57.45h-5.6l0.82,0.68a18.34,18.34,0,0,1-1.15,2.54H56.1v11a1.52,1.52,0,0,1-.45,1.12,2.87,2.87,0,0,1-1.94.45q-0.4,0-.9,0l-0.37-1.09,2.1,0a0.44,0.44,0,0,0,.49-0.5V61.67h-4.2v1.85a0.48,0.48,0,0,0,.56.52H54.1v1H51a1.32,1.32,0,0,1-.85-0.33A1,1,0,0,1,49.75,64V61.67H46.94a4.35,4.35,0,0,1-1.17,2.72A5.4,5.4,0,0,1,43,66L42.5,65q3.13-.76,3.33-3.3H41.68V73.24H40.59V60.67h4.54A14.24,14.24,0,0,0,44,58.1l0.67-.66H39.3v-1h8.5A10.42,10.42,0,0,0,47.1,55l1.11-.32a8.25,8.25,0,0,1,.73,1.78h8.43v1ZM52.56,70.83H44.19V66.44h8.37v4.39Zm-1-13.38H45q0.85,1.94,1.29,3.22h4A24.6,24.6,0,0,0,51.6,57.45ZM51.43,69.8V67.45H45.27V69.8h6.16Z"/><path class="cls-11" d="M68,73.22H66.92V71.73H62.3v1.49H61.18V64H68v9.2Zm-1.1-2.55V65.12H62.3v5.55h4.6Zm8.77-9H63.37V55.4H75.66v6.23Zm-1.09-1V56.46H64.47v4.12h10.1Zm2.76,12.63H76.23V71.73H71.58v1.49H70.47V64h6.87v9.2Zm-1.11-2.55V65.12H71.58v5.55h4.65Z"/><path class="cls-11" d="M85.85,61.27a8.93,8.93,0,0,1,1.82,4.94,2.71,2.71,0,0,1-.73,2,4,4,0,0,1-2.93.63l-0.44-1.11q0.52,0,1,0a2.37,2.37,0,0,0,1.55-.36,1.83,1.83,0,0,0,.4-1.37,7.17,7.17,0,0,0-1.89-4.54q0.65-1.75,1.65-5.07H83.05V73.2H82V55.4h5.38v1.07A47,47,0,0,1,85.85,61.27ZM98,63.71H90.42v8.14a24,24,0,0,0,3.41-1.26l0.08,1.16a34.61,34.61,0,0,1-4.32,1.49l-0.5-1.07a0.84,0.84,0,0,0,.22-0.58V55.36H98v8.36ZM96.86,58.9V56.44H90.42V58.9h6.43Zm0,3.73V60H90.42v2.67h6.43Zm2.75,9.77-0.75.94A13.23,13.23,0,0,1,93,65.52l1-.44a13.5,13.5,0,0,0,1,2.65A16.49,16.49,0,0,0,98.21,65L99,65.68a23.08,23.08,0,0,1-3.51,2.94A10.33,10.33,0,0,0,99.61,72.41Z"/><path class="cls-11" d="M120,72.74H101.92V71.9h8.5V70.51h-7.25V69.69h7.25V68.35h-6.64V63.48h14.4v4.87H111.5v1.34h7.27v0.82H111.5V71.9H120v0.84Zm-0.16-10.48H102.16V61.42h17.68v0.84Zm-1.61-2H103.81V55.4h14.42v4.83Zm-7.81,5.29v-1.2h-5.6v1.2h5.6Zm0,2V66.32h-5.6v1.21h5.6Zm6.7-10.1V56.24H104.85v1.19h12.27Zm0,2v-1.2H104.85v1.2h12.27Zm0,6.11v-1.2H111.5v1.2h5.62Zm0,2V66.32H111.5v1.21h5.62Z"/><path class="cls-11" d="M127,55.14q-0.23,1-.64,2.48L126,59.07V73.31h-1V61.8a22.1,22.1,0,0,1-1.54,2.8l-0.79-.88A26.06,26.06,0,0,0,126,54.78Zm13.61,1.26h-6.16a6.16,6.16,0,0,1-.48,1.11h4.66v5.17h1.83v2.58h-1.1V63.62H128.33v1.64h-1V62.68h1.75V57.51h3.79a7.09,7.09,0,0,0,.51-1.11h-5.58v-1h12.85v1Zm0.21,16.21-0.54.84a32.41,32.41,0,0,1-5.87-1.56,18.94,18.94,0,0,1-6.59,1.46l-0.52-1a19.18,19.18,0,0,0,5.92-1,19.48,19.48,0,0,1-2.73-1.64A15.27,15.27,0,0,1,128,70.91l-0.6-.86a13.3,13.3,0,0,0,2.33-1l-0.58-.58,0.71-.62a7.13,7.13,0,0,0,.76.76,8.26,8.26,0,0,0,1.65-1.38A1.22,1.22,0,0,1,131,66V64.38h1.09V66a0.37,0.37,0,0,0,.22.37,7.3,7.3,0,0,0,1.69.1,4.12,4.12,0,0,0,1.94-.25,1.5,1.5,0,0,0,.29-1.11l0.94,0.44a1.7,1.7,0,0,1-.86,1.62,10.44,10.44,0,0,1-2.85.21q-0.59.7-.75,0.84h5.53v0.86a11.09,11.09,0,0,1-2.59,2.29A31.94,31.94,0,0,0,140.86,72.61Zm-10.38-7.73a11.12,11.12,0,0,1-2,2.92l-0.84-.63a9.59,9.59,0,0,0,1.94-2.7Zm7.11-5.65V58.35h-7.49v0.88h7.49Zm0,1.72V60h-7.49V61h7.49Zm0,1.72V61.73h-7.49v0.94h7.49Zm-0.7,6.39h-5.32l-0.15.16a11.69,11.69,0,0,0,3,1.66A10.12,10.12,0,0,0,136.89,69.07Zm-1.61-4-0.52.77a10.46,10.46,0,0,0-1.81-1l0.54-.76A7.88,7.88,0,0,1,135.28,65Zm5,2.23-0.88.52a13.84,13.84,0,0,0-1.93-3l0.79-.54A13.85,13.85,0,0,1,140.28,67.26Z"/><path class="cls-11" d="M161.63,56.4v1h-8.38v1.45h6.47v5.95h-1.12a22.38,22.38,0,0,1,2.77,3l-0.84.67q-0.42-.56-1-1.3-8.26.53-15.6,0.51l-0.3-1q5,0,8.58-.1V64.76h-6.45V58.81h6.45V57.37h-8.37v-1h8.37V54.86h1.06V56.4h8.38Zm-14.4,12.54a15.18,15.18,0,0,1-2.57,3.55l-0.88-.66a14.58,14.58,0,0,0,2.57-3.51Zm5-7.63V59.75h-5.36v1.57h5.36Zm0,2.5V62.18h-5.36v1.64h5.36Zm5.51,6.68a5.18,5.18,0,0,1-.57,1.83,1.6,1.6,0,0,1-1,.74,15,15,0,0,1-2.83.16,12.87,12.87,0,0,1-3.62-.28,1.19,1.19,0,0,1-.64-1.23V68.35h1v3.07a0.61,0.61,0,0,0,.36.64,12.13,12.13,0,0,0,2.62.14,9.26,9.26,0,0,0,3-.25,2.85,2.85,0,0,0,.63-1.89Zm-2.51-.32-0.88.68A11.7,11.7,0,0,0,152,68.6l0.88-.66A12.63,12.63,0,0,1,155.2,70.17Zm3.49-8.86V59.75h-5.43v1.57h5.43Zm0,2.5V62.18h-5.43v1.64h5.43Zm-0.21,2.37a12.46,12.46,0,0,0-1-.9l0.67-.52h-4.91v1.72Zm3.16,5.67-0.88.66A15.92,15.92,0,0,0,158,69.07l0.88-.7A17.81,17.81,0,0,1,161.63,71.86Z"/><ellipse class="cls-11" cx="27.2" cy="23.02" rx="18.11" ry="18.22"/><path class="cls-3" d="M22.48,25.44a12.3,12.3,0,0,0,1.88-2,4.26,4.26,0,0,0,.75-1.67A2.13,2.13,0,0,0,24.78,20a2.09,2.09,0,0,0-1.7-.67,4.31,4.31,0,0,0-2.5.82l-0.25,1.33a3.67,3.67,0,0,1,2.31-1A1.09,1.09,0,0,1,23.81,22a3.11,3.11,0,0,1-.65,1.38,13.13,13.13,0,0,1-1.48,1.5l-2.92,2.61-0.22,1.16h5.2L24,27.41H20.25v0Z"/><path class="cls-3" d="M31.38,25.29h-1l1.11-5.84H30.05l-4.79,6-0.17.9h3.83l-0.43,2.26h1.2l0.43-2.26h1Zm-1.57-3.58-0.68,3.58H26.51l3-3.79A7.14,7.14,0,0,0,30,20.79h0Q29.88,21.31,29.81,21.71Z"/><path class="cls-3" d="M39.21,26.83L40,23.94q0.6-2.09-2.19-2.1a4.65,4.65,0,0,0-3,1h0l1.69-6.94H35.26l-2.84,11H30.79v0.52H40.6V26.83H39.21Zm-4.79-2.65a2.07,2.07,0,0,1,1-1.21,3.49,3.49,0,0,1,1.8-.47q2,0,1.5,1.64L38,26.83h-4.3Z"/><rect class="cls-3" x="30.79" y="28.35" width="9.81" height="0.52"/><path class="cls-3" d="M17.2,22.08a13.73,13.73,0,0,1,9.24-5.47L26.3,19a0.26,0.26,0,0,0,.24.27h0A0.26,0.26,0,0,0,26.82,19L27,16.55c0.26,0,.52,0,0.78,0,3.58,0.08,5.75,2.2,5.7,5.1,0.35-3.15-2.08-5.5-6.24-5.59H27l0.11-1.85a0.26,0.26,0,0,0-.24-0.27,0.25,0.25,0,0,0-.27.24l-0.11,1.89A15.46,15.46,0,0,0,16,21.17L14.35,20a0.26,0.26,0,0,0-.36.06,0.26,0.26,0,0,0,.06.36l1.58,1.14a9.83,9.83,0,0,0-1.16,1.85c-1.7,3.61,0,6.69,3.7,7.52-2.44-1.23-3.35-3.94-2-7a9.75,9.75,0,0,1,.76-1.41L18,23.29a0.26,0.26,0,0,0,.36-0.06,0.26,0.26,0,0,0-.06-0.36Z"/></g></g></svg>
