<svg xmlns="http://www.w3.org/2000/svg" xmlns:xlink="http://www.w3.org/1999/xlink" viewBox="0 0 375 130"><defs><style>.cls-1{fill:none;}.cls-2{isolation:isolate;}.cls-3{fill:#dbdbdb;}.cls-4{fill:#fff;}.cls-5{fill:#ee2e27;}.cls-6{opacity:0.47;}.cls-7{clip-path:url(#clip-path);}.cls-8,.cls-9{fill:#af1b12;}.cls-8{fill-rule:evenodd;}.cls-10{opacity:0.5;mix-blend-mode:multiply;}</style><clipPath id="clip-path"><rect class="cls-1" x="-3.78" y="-0.02" width="381.19" height="129.78"/></clipPath></defs><title>daySoonBuy_logo</title><g class="cls-2"><g id="特賣"><rect class="cls-3" x="-3.39" y="-136.82" width="383.82" height="1815"/><rect class="cls-4" x="-3.39" y="0.24" width="379.24" height="129.53"/><rect class="cls-5" x="-3.78" y="0.24" width="381.19" height="129.53"/><g class="cls-6"><g class="cls-7"><path class="cls-8" d="M81.58-27c-4.74.57-6.55,2-5.51,7.12,1.47,7.3,6.5,11.49-4.19,18.33-1.11.71-2.08,1.35-2.26,2.69V8.81h0c0,6.45.23,13,.36,19.45,0,0.15.15,0.17,0.31,0.17s0.31,0,.31-0.17c0.13-6.46.36-13,.36-19.45h1.17c0,6.45.23,13,.36,19.45,0,0.15.15,0.17,0.31,0.17s0.31,0,.31-0.17c0.13-6.46.36-13,.36-19.45h1.15c0,6.45.23,13,.36,19.45,0,0.15.15,0.17,0.31,0.17s0.31,0,.31-0.17c0.13-6.46.36-13,.36-19.45h1.28c0,6.45.23,13,.36,19.45,0,0.15.15,0.17,0.31,0.17s0.31,0,.31-0.17c0.13-6.46.36-13,.36-19.45h1.18c0,6.45.23,13,.36,19.45,0,0.15.15,0.17,0.31,0.17s0.31,0,.31-0.17c0.13-6.46.36-13,.36-19.45h1.18c0,6.45.23,13,.36,19.45,0,0.15.15,0.17,0.31,0.17s0.31,0,.31-0.17c0.13-6.46.36-13,.36-19.45h1.18c0,6.45.23,13,.36,19.45,0,0.15.15,0.17,0.31,0.17s0.31,0,.31-0.17c0.13-6.46.36-13,.36-19.45h1.18c0,6.45.23,13,.36,19.45,0,0.15.15,0.17,0.31,0.17s0.31,0,.31-0.17c0.13-6.46.36-13,.36-19.45h1.1c0,6.45.23,13,.36,19.45,0,0.15.15,0.17,0.31,0.17s0.31,0,.31-0.17c0.13-6.46.36-13,.36-19.45h1c0,6.45.23,13,.36,19.45,0,0.15.15,0.17,0.31,0.17s0.31,0,.31-0.17c0.13-6.49.36-13.06,0.36-19.55h0V1.16c-0.18-1.34-1.15-2-2.26-2.69-10.7-6.83-5.66-11-4.19-18.33C88.13-25,86.32-26.41,81.58-27Z"/><path class="cls-8" d="M-11.67-24A18.18,18.18,0,0,1,6.51-5.78,18.18,18.18,0,0,1-11.67,12.4,18.18,18.18,0,0,1-29.85-5.78,18.18,18.18,0,0,1-11.67-24h0Zm6.49-17h0a0.76,0.76,0,0,1,.56.25A5,5,0,0,0-4.94-39a5,5,0,0,0,.32,1.76,0.76,0.76,0,0,1-.56.25h0a0.76,0.76,0,0,1-.76-0.76V-38H-8.17a3.86,3.86,0,0,1-2,2.76h-2.93a3.94,3.94,0,0,1-2.11-3.57,3.75,3.75,0,0,1,3.57-3.91A3.63,3.63,0,0,1-8.25-40h2.31v-0.28A0.76,0.76,0,0,1-5.18-41h0Zm11-5C11.43-46,16-42.86,16-39s-4.57,7-10.2,7S-4.4-35.08-4.4-39s4.57-7,10.2-7h0Zm-19.3,11.32h3.67a3.48,3.48,0,0,1,3.47,3.47v7.12H-6.57a18.19,18.19,0,0,0-5.1-.73,18.19,18.19,0,0,0-5.1.73H-17v-7.12a3.48,3.48,0,0,1,3.47-3.47h0ZM-26-7.36a14.44,14.44,0,0,1,4.72-9.22,14.44,14.44,0,0,1,9.67-3.7,0.53,0.53,0,0,0,.53-0.53,0.53,0.53,0,0,0-.53-0.53,15.5,15.5,0,0,0-10.38,4A15.5,15.5,0,0,0-27-7.48a0.53,0.53,0,0,0,.47.58A0.53,0.53,0,0,0-26-7.36Z"/><path class="cls-8" d="M90.54,137.26a18.18,18.18,0,0,1,18.16,17.49H72.38a18.18,18.18,0,0,1,18.16-17.49h0Zm6.49-17h0a0.76,0.76,0,0,1,.56.25,5,5,0,0,0,0,3.53,0.76,0.76,0,0,1-.56.25h0a0.76,0.76,0,0,1-.76-0.76v-0.28H94A3.86,3.86,0,0,1,92,126H89.08A3.94,3.94,0,0,1,87,122.42a3.75,3.75,0,0,1,3.57-3.91A3.63,3.63,0,0,1,94,121.27h2.31V121a0.76,0.76,0,0,1,.76-0.76h0Zm11-5c5.63,0,10.2,3.15,10.2,7s-4.57,7-10.2,7-10.2-3.15-10.2-7,4.57-7,10.2-7h0ZM88.7,126.53h3.67A3.48,3.48,0,0,1,95.85,130v7.12H95.64a18.27,18.27,0,0,0-10.2,0H85.23V130a3.48,3.48,0,0,1,3.47-3.47h0ZM76.23,153.85a14.47,14.47,0,0,1,14.39-12.92,0.53,0.53,0,1,0,0-1.07,15.54,15.54,0,0,0-15.45,13.87A0.53,0.53,0,0,0,76.23,153.85Z"/><path class="cls-8" d="M76.62,63.72c8,0,14.53,8.79,14.53,19.62S84.65,103,76.62,103,62.09,94.18,62.09,83.34,68.6,63.72,76.62,63.72h0Zm-3.2,39.51c0,3.14,2,7.51.66,17.6-2.74,21.35,7.8,21.17,5.08,0-1.29-10,.61-14.41.66-17.55a11,11,0,0,1-6.4,0h0Zm3.2-35.41c-6.35,0-11.5,7-11.5,15.52s5.15,15.52,11.5,15.52,11.5-7,11.5-15.52S83,67.82,76.62,67.82h0ZM81.57,86.3l-7,4.4a0.6,0.6,0,1,0,.63,1l7-4.4a0.6,0.6,0,0,0-.63-1h0Zm-6.45-9.11L69,81a0.6,0.6,0,1,0,.63,1l6.11-3.83a0.6,0.6,0,0,0-.63-1h0Zm4.46-6.54L69,77.31a0.5,0.5,0,0,0,.53.85L80.11,71.5a0.5,0.5,0,1,0-.53-0.85h0Zm-3-4c-6.84,0-12.38,7.49-12.38,16.72s5.54,16.72,12.38,16.72S89,92.58,89,83.34,83.46,66.62,76.62,66.62Z"/><path class="cls-8" d="M107.16,19.69a16.12,16.12,0,0,1,1.57,3.25c3.3,9.65-.38,21.17.63,22.94,2,3.52,11.59.59,8.06-10.09-1.8-5.45-3.13-8.66-2.7-14.65,0-.46.06-0.85,0.09-1.16,0.5-.09,1-0.2,1.55-0.34,3.66-.95,11.88-1.1,15.78-1,2.32-3,2.32-13.2,0-16.23-3.9.09-12.12-.07-15.78-1-17.45-4.52-20.52,14.53-9.2,18.3h0Zm26.07-1.21c2.25-3.08,2.25-13,0-16.1a62.42,62.42,0,0,1,7.38-2.44c8.5-1,8.5,22,0,21a62.53,62.53,0,0,1-7.38-2.44h0ZM102.73,6.13h0a0.47,0.47,0,0,1,.47.47v7.48a0.47,0.47,0,0,1-.47.47h0a0.47,0.47,0,0,1-.47-0.47V6.6a0.47,0.47,0,0,1,.47-0.47h0ZM104.54,4h0a0.47,0.47,0,0,1,.47.47V16.24a0.47,0.47,0,0,1-.47.47h0a0.47,0.47,0,0,1-.47-0.47V4.45A0.47,0.47,0,0,1,104.54,4h0Zm1.77-1.53h0a0.47,0.47,0,0,1,.47.47V17.76a0.47,0.47,0,0,1-.47.47h0a0.47,0.47,0,0,1-.47-0.47V2.92a0.47,0.47,0,0,1,.47-0.47h0Zm10.35,19.38a14.71,14.71,0,0,0,.07,2.32,5.27,5.27,0,0,0,.59,1.78,0.79,0.79,0,0,1-1.4.74,6.78,6.78,0,0,1-.76-2.29,16,16,0,0,1-.08-2.57A0.79,0.79,0,0,1,116.66,21.83Z"/><path class="cls-8" d="M120.18,69.71h-4.69c-1.21,2.19-2.68,4.52-2.89,7.06-0.28,3.42,1.6,5.82,2.72,9.28a0.79,0.79,0,0,0-.12.41V87a0.8,0.8,0,0,0,.8.8h8.33a0.8,0.8,0,0,0,.8-0.8V86.46a0.79,0.79,0,0,0-.12-0.41c1.13-3.45,3-5.85,2.72-9.28-0.2-2.54-1.67-4.88-2.89-7.06h-4.69Zm-7.6-8.84L115.43,69h9.51l2.85-8.15c5.19-11.33-20.4-11.33-15.21,0h0Zm14.63-3.76h0a0.4,0.4,0,0,1,.24.51l-3.61,9.93a0.4,0.4,0,0,1-.51.24h0a0.4,0.4,0,0,1-.24-0.51l3.61-9.93a0.4,0.4,0,0,1,.51-0.24h0Zm-14.05,0a0.4,0.4,0,0,1,.51.24l3.61,9.93a0.4,0.4,0,0,1-.24.51h0a0.4,0.4,0,0,1-.51-0.24l-3.61-9.93a0.4,0.4,0,0,1,.24-0.51h0ZM124,55.4h0a0.4,0.4,0,0,1,.32.46l-2,11.61a0.4,0.4,0,0,1-.46.32h0a0.4,0.4,0,0,1-.32-0.46l2-11.61A0.4,0.4,0,0,1,124,55.4h0Zm-7.54,0a0.4,0.4,0,0,1,.46.32l2,11.61a0.4,0.4,0,0,1-.32.46h0a0.4,0.4,0,0,1-.46-0.32l-2-11.61a0.4,0.4,0,0,1,.32-0.46h0Zm3.77-1.19a0.4,0.4,0,0,1,.4.4v12.8a0.4,0.4,0,0,1-.4.4h0a0.4,0.4,0,0,1-.4-0.4V54.63a0.4,0.4,0,0,1,.4-0.4h0Zm-3,16.45-0.2.4a16.11,16.11,0,0,0-2,5.85,12.7,12.7,0,0,0,1.25,5.72c0.35,0.9.72,1.84,1,2.89h-0.81c-0.28-.91-0.6-1.74-0.91-2.55a13.44,13.44,0,0,1-1.31-6.13,16.77,16.77,0,0,1,2.14-6.19h0.87Z"/><path class="cls-8" d="M212.08,29.73H207.4c-1.21,2.19-2.68,4.52-2.89,7.06-0.28,3.42,1.6,5.82,2.72,9.28a0.79,0.79,0,0,0-.12.41V47a0.8,0.8,0,0,0,.8.8h8.33a0.8,0.8,0,0,0,.8-0.8V46.48a0.79,0.79,0,0,0-.12-0.41c1.13-3.45,3-5.85,2.72-9.28-0.2-2.54-1.67-4.88-2.89-7.06h-4.69Zm-7.6-8.84L207.33,29h9.51l2.85-8.15c5.19-11.33-20.4-11.33-15.21,0h0Zm14.63-3.76h0a0.4,0.4,0,0,1,.24.51l-3.61,9.93a0.4,0.4,0,0,1-.51.24h0A0.4,0.4,0,0,1,215,27.3l3.61-9.93a0.4,0.4,0,0,1,.51-0.24h0Zm-14.05,0a0.4,0.4,0,0,1,.51.24l3.61,9.93a0.4,0.4,0,0,1-.24.51h0a0.4,0.4,0,0,1-.51-0.24l-3.61-9.93a0.4,0.4,0,0,1,.24-0.51h0Zm10.8-1.73h0a0.4,0.4,0,0,1,.32.46l-2,11.61a0.4,0.4,0,0,1-.46.32h0a0.4,0.4,0,0,1-.32-0.46l2-11.61a0.4,0.4,0,0,1,.46-0.32h0Zm-7.54,0a0.4,0.4,0,0,1,.46.32l2,11.61a0.4,0.4,0,0,1-.32.46h0a0.4,0.4,0,0,1-.46-0.32L208,15.9a0.4,0.4,0,0,1,.32-0.46h0Zm3.77-1.19a0.4,0.4,0,0,1,.4.4v12.8a0.4,0.4,0,0,1-.4.4h0a0.4,0.4,0,0,1-.4-0.4V14.65a0.4,0.4,0,0,1,.4-0.4h0Zm-3,16.45-0.2.4a16.12,16.12,0,0,0-2,5.85,12.71,12.71,0,0,0,1.25,5.72c0.35,0.9.72,1.84,1,2.89h-0.8c-0.28-.91-0.6-1.74-0.91-2.55A13.44,13.44,0,0,1,206,36.88a16.77,16.77,0,0,1,2.14-6.19h0.87Z"/><path class="cls-8" d="M188.5,8.57c-2.55-.33-5-4.06-7.35-1.82a2.16,2.16,0,0,0-.67,2.3c0.41,1.74,3,3.22,3,5.76,0,2.95-5.66,1.2-5.88,6.48a6.37,6.37,0,0,0,2.09,5.3,0.29,0.29,0,0,0,.38,0c0.69-3.4-1-6.46,2.52-5.93,1.32,0.3-1,3.38.3,5.57,0.31,0.54,1.32,1.08,1.37.51,0-1.2-.14-6.56,2.8-5.28,0.72,0.18-1.23,4.93,1.44,5.54,2.67-.61.72-5.37,1.44-5.54,2.94-1.28,2.77,4.08,2.8,5.28,0.05,0.57,1.07,0,1.37-.51,1.25-2.19-1-5.27.3-5.57,3.48-.53,1.83,2.53,2.52,5.93a0.29,0.29,0,0,0,.38,0,6.37,6.37,0,0,0,2.09-5.3c-0.22-5.28-5.85-3.54-5.88-6.48,0-2.54,2.58-4,3-5.76a2.16,2.16,0,0,0-.67-2.3c-2.4-2.24-4.79,1.49-7.35,1.82h0Zm-2.58,2.1h5.16a1.12,1.12,0,0,1,1.12,1.12h0a1.12,1.12,0,0,1-1.12,1.12h-5.16a1.12,1.12,0,0,1-1.12-1.12h0A1.12,1.12,0,0,1,185.92,10.67Z"/><path class="cls-8" d="M99.35,41.06a10.08,10.08,0,0,1,2.48,6.5c0,3.86-2.36,7.29-6,9.47H77.13c-3.66-2.18-6-5.61-6-9.47a10.08,10.08,0,0,1,2.48-6.5H99.35Zm-0.06-.72c7.05-9.57-32.54-9.32-25.67,0H99.29ZM75.63,36.81c-0.73.71-.67,1.55-0.24,2.6H74.13a2.64,2.64,0,0,1,.13-2.6c0.31-.54,1.83-0.42,1.37,0h0Zm1.48,18.9h1.61a11.57,11.57,0,0,1-3.44-3.41,8.57,8.57,0,0,1-1.38-4.62,8.3,8.3,0,0,1,.55-3,9.45,9.45,0,0,1,1.34-2.38H74.46a10.33,10.33,0,0,0-1,2C71.67,48.94,73.57,52.78,77.11,55.7Z"/><path class="cls-8" d="M60.47,52.38c4.34,0,7.86,2.43,7.86,5.43s-3.52,5.43-7.86,5.43-7.86-2.43-7.86-5.43,3.52-5.43,7.86-5.43h0ZM47,68.25h4.14c0.35,2,2.93,1,5.16,5.07,3.26,5.9,0,20.53-.84,26.28H38.57c-0.89-5.75-4.09-20.38-.84-26.28,2.22-4,4.8-3,5.16-5.07H47ZM50.27,63a0.74,0.74,0,0,1,.66.74v3.79H43.19V63.76A0.74,0.74,0,0,1,43.85,63V61.88a0.58,0.58,0,0,1,.58-0.58H49.7a0.58,0.58,0,0,1,.58.58V63h0Zm-6.19.68h0a0.32,0.32,0,0,0-.32.32v2.64a0.32,0.32,0,0,0,.32.32h0a0.32,0.32,0,0,0,.32-0.32V64a0.32,0.32,0,0,0-.32-0.32h0Zm5.87,0a0.32,0.32,0,0,0-.32.32v2.64A0.32,0.32,0,0,0,50,67h0a0.32,0.32,0,0,0,.32-0.32V64A0.32,0.32,0,0,0,50,63.7h0Zm-1.45,0a0.32,0.32,0,0,0-.32.32v2.64a0.32,0.32,0,0,0,.32.32h0a0.32,0.32,0,0,0,.32-0.32V64a0.32,0.32,0,0,0-.32-0.32h0Zm-1.4,0H46.94a0.32,0.32,0,0,0-.23.31v2.64A0.32,0.32,0,0,0,47,67h0a0.32,0.32,0,0,0,.32-0.32V64a0.32,0.32,0,0,0-.23-0.31h0Zm-1.57,0a0.32,0.32,0,0,0-.32.32v2.64a0.32,0.32,0,0,0,.32.32h0a0.32,0.32,0,0,0,.32-0.32V64a0.32,0.32,0,0,0-.32-0.32h0Zm9.91,36.58a2.19,2.19,0,0,1,.31,1.12h0a2.21,2.21,0,0,1-2.2,2.2H40.48a2.21,2.21,0,0,1-2.2-2.2h0a2.18,2.18,0,0,1,.31-1.12H55.45Zm-15.1-27.6a9.75,9.75,0,0,0-.88,1.44,13.57,13.57,0,0,0-1.19,4.79,40.36,40.36,0,0,0,0,6.08c0.26,4.27,1,8.74,1.49,12h0l0.13,0.82,0.07,0.47,0,0.3a0.52,0.52,0,0,0,.1.25,0.38,0.38,0,0,0,.21.14h0.18l0.09,0h0l0.08,0a0.36,0.36,0,0,0,.14-0.13,0.28,0.28,0,0,0,0-.19v0h0l-0.07-.44L40.7,97.8l-0.15-.92h0c-0.52-3.24-1.21-7.63-1.48-11.8a40,40,0,0,1,0-5.95,12.86,12.86,0,0,1,1.11-4.58,7.25,7.25,0,0,1,1.56-2.15,7.6,7.6,0,0,1,1.5-1l0.05,0h0l0.13-.08h0a0.44,0.44,0,0,0,.19-0.2,0.53,0.53,0,0,0,0-.28,0.6,0.6,0,0,0,0-.1l0-.09,0-.08-0.06-.07a0.3,0.3,0,0,0-.17-0.08,0.34,0.34,0,0,0-.18,0h0l-0.08,0-0.08,0-0.08,0-0.09.05h0a8,8,0,0,0-1.6,1.1,6.93,6.93,0,0,0-.88,1h0ZM52,56.25h0a0.58,0.58,0,0,1,.43.19,3.84,3.84,0,0,0,0,2.72,0.59,0.59,0,0,1-.43.19h0a0.59,0.59,0,0,1-.59-0.59V58.56H49.71a3,3,0,0,1-1.57,2.13H45.89a3,3,0,0,1-1.63-2.75,2.89,2.89,0,0,1,2.75-3A2.8,2.8,0,0,1,49.65,57h1.78V56.83A0.59,0.59,0,0,1,52,56.25Z"/><path class="cls-8" d="M24.72,49.09h0c0-.15,0-0.29,0-0.44a7.55,7.55,0,0,0-14.53-2.88A7.55,7.55,0,0,0-4.37,48.52c0,0.08,0,.16,0,0.24s0,0.06,0,.1h0a1.53,1.53,0,0,0,1.53,1.53h26a1.54,1.54,0,0,0,1.51-1.3h0ZM12.64,47.33a4.75,4.75,0,0,1,9.12,0H12.64Zm-14,0a4.75,4.75,0,0,1,9.18,0H-1.41Z"/><rect class="cls-9" x="-10.07" y="64.42" width="26.39" height="22.05" rx="2.48" ry="2.48"/><path class="cls-8" d="M-10.9,51H14a2.42,2.42,0,0,1,2.36,2.47V61.3A2.42,2.42,0,0,1,14,63.77H-10.9a2.42,2.42,0,0,1-2.36-2.47V53.51A2.42,2.42,0,0,1-10.9,51Z"/><rect class="cls-9" x="17.11" y="64.42" width="12.51" height="22.05" rx="2.43" ry="2.43"/><path class="cls-8" d="M19.44,51H31.26a2.42,2.42,0,0,1,2.36,2.47V61.3a2.42,2.42,0,0,1-2.36,2.47H19.44a2.42,2.42,0,0,1-2.36-2.47V53.51A2.42,2.42,0,0,1,19.44,51Z"/><path class="cls-8" d="M162.91,16.72c-6.16.36-5.78,6.74-11.68,10.64-12.29,8.12-25.2,10.05-25.1,15.2a21.46,21.46,0,0,0-.09,2.28c0,0.58,1.05.33,3.12-.64h68.63c2.09,1,3.15,1.24,3.12.64a21.42,21.42,0,0,0-.09-2.28c-0.07-4.86-12.81-7.08-25.1-15.2-5.9-3.9-5.52-10.27-11.68-10.64V13.63a5.21,5.21,0,1,0-5.74-5.84,0.66,0.66,0,1,0,1.12.11,4.09,4.09,0,0,1,8.14.55,4.22,4.22,0,0,1-4.65,4.14c0,0.28,0,.46,0,0.65h0v3.48h0ZM133.67,41.85c6.45-3.56,16.73-9.8,29.81-17.67,13.39,8,23.52,14.16,29.84,17.67H133.67Z"/><path class="cls-8" d="M19.63,100.65h-10c-4.14,4.64-.64,5.36-5,9.7-2.06,2.07-3.15,3.49-3.15,6.91,0,7.77,12.21,8.94,18.12,8.94s18.12-1.17,18.12-8.94c0-3.42-1.06-4.87-3.15-6.91-4.11-4-1.17-5.14-5-9.7h-10Z"/><rect class="cls-9" x="15.8" y="96.98" width="2.78" height="1.05" rx="0.31" ry="0.31"/><rect class="cls-9" x="20.69" y="96.98" width="2.78" height="1.05" rx="0.31" ry="0.31"/><polygon class="cls-8" points="19.12 95.56 18.29 95.42 17.06 97.24 17.89 97.39 19.12 95.56"/><polygon class="cls-8" points="20.13 95.57 20.95 95.43 22.18 97.26 21.35 97.4 20.13 95.57"/><circle class="cls-9" cx="18.44" cy="94.91" r="1.25"/><circle class="cls-9" cx="20.8" cy="94.93" r="1.25"/><path class="cls-8" d="M29.76,99v1.06H9.64V98.95a0.4,0.4,0,0,1,.4-0.4H29.36a0.4,0.4,0,0,1,.4.4V99Z"/><path class="cls-8" d="M186.14,112.82H174.41c-4.86,5.44-.75,6.29-5.84,11.39-2.42,2.43-3.7,4.1-3.7,8.12,0,9.12,14.34,10.49,21.27,10.49s21.27-1.37,21.27-10.49c0-4-1.25-5.72-3.7-8.12-4.83-4.73-1.38-6-5.84-11.39H186.14ZM198,110.91v1.25H174.41v-1.33a0.47,0.47,0,0,1,.47-0.47h22.67a0.47,0.47,0,0,1,.47.47v0.09h0Zm-10.51-6.28a1.47,1.47,0,0,0-1.38,1,1.47,1.47,0,1,0-2.05,1.8l-0.74,1.11H182a0.37,0.37,0,0,0-.37.36v0.51a0.37,0.37,0,0,0,.37.36h2.53a0.37,0.37,0,0,0,.36-0.36v-0.51a0.37,0.37,0,0,0-.36-0.36h-0.12l0.66-1a1.48,1.48,0,0,0,1-.93,1.48,1.48,0,0,0,1,.94l0.65,1h-0.09a0.37,0.37,0,0,0-.36.36v0.51a0.37,0.37,0,0,0,.36.36h2.53a0.37,0.37,0,0,0,.37-0.36v-0.51a0.37,0.37,0,0,0-.37-0.36h-1.36l-0.73-1.09A1.47,1.47,0,0,0,187.52,104.64Z"/><path class="cls-8" d="M58.24,33.26L63,34.92c1.27,0.44,2.44,1.1,2.44,2.45v8.14c0,1.35-1.17,2-2.44,2.45l-4.72,1.65H36.09A3.08,3.08,0,0,1,33,46.54V36.34a3.08,3.08,0,0,1,3.06-3.07H58.24Zm-19.9,1.65a2.46,2.46,0,0,0-2.45,2.45v8.14A2.46,2.46,0,0,0,38.34,48H56a2.46,2.46,0,0,0,2.45-2.45V37.37A2.46,2.46,0,0,0,56,34.92H38.34ZM62,39.66a1.78,1.78,0,1,0,1.77,1.78A1.78,1.78,0,0,0,62,39.66Z"/><path class="cls-8" d="M42.09,42.7a2.18,2.18,0,0,1-.64,1.63,2.36,2.36,0,0,1-1.73.63,3.69,3.69,0,0,1-1.1-.15,4.7,4.7,0,0,1-.88-0.37V42.81h0.14a3,3,0,0,0,.91.66,2.32,2.32,0,0,0,1,.23l0.32,0a1,1,0,0,0,.32-0.09,0.85,0.85,0,0,0,.25-0.21,0.59,0.59,0,0,0,.1-0.37,0.57,0.57,0,0,0-.14-0.39,0.9,0.9,0,0,0-.42-0.25l-0.61-.17A3.85,3.85,0,0,1,39,42a1.9,1.9,0,0,1-.92-0.75,2.29,2.29,0,0,1-.28-1.18,2,2,0,0,1,.64-1.55,2.3,2.3,0,0,1,1.64-.6,3.92,3.92,0,0,1,1,.13,3.84,3.84,0,0,1,.85.33v1.56H41.75A2.6,2.6,0,0,0,41,39.39a2.05,2.05,0,0,0-.91-0.22,1.77,1.77,0,0,0-.33,0,1.07,1.07,0,0,0-.31.11,0.65,0.65,0,0,0-.23.21,0.6,0.6,0,0,0,.06.73,1.48,1.48,0,0,0,.58.26l0.54,0.15a4.46,4.46,0,0,1,.55.2,1.87,1.87,0,0,1,.86.69,2.11,2.11,0,0,1,.28,1.14h0Zm5.61,2.13H46.34L46,43.46H44.12l-0.36,1.37H42.43L44.31,38h1.51l1.88,6.79h0Zm-2-2.61L45.05,39.8l-0.62,2.41h1.24Zm6.44,2.61H48.44V38h1.32v5.47h2.36v1.32h0Zm4.48,0H52.91V38H56.6v1.32H54.23v1.17h2.2v1.32h-2.2v1.67H56.6v1.32Z"/><path class="cls-8" d="M134.25,53.52l1.44-4.1c0.39-1.1,1-2.12,2.13-2.12h7.06c1.17,0,1.74,1,2.13,2.12l1.44,4.1V72.75a2.67,2.67,0,0,1-2.67,2.66h-8.86a2.67,2.67,0,0,1-2.67-2.66V53.52h0Zm1.44,17.28a2.14,2.14,0,0,0,2.13,2.13h7.06A2.14,2.14,0,0,0,147,70.8V55.47a2.14,2.14,0,0,0-2.13-2.13h-7.06a2.14,2.14,0,0,0-2.13,2.13V70.8h0Zm4.11-20.52a1.55,1.55,0,1,0,1.55-1.54A1.54,1.54,0,0,0,139.81,50.28Z"/><path class="cls-8" d="M142.45,67.54a1.89,1.89,0,0,1,1.41.55,2,2,0,0,1,.54,1.5,3.22,3.22,0,0,1-.13,1,4.11,4.11,0,0,1-.33.76h-1.41V71.2a2.57,2.57,0,0,0,.58-0.79,1.78,1.78,0,0,0,.18-1.11,0.86,0.86,0,0,0-.08-0.28A0.73,0.73,0,0,0,143,68.8a0.51,0.51,0,0,0-.32-0.08,0.49,0.49,0,0,0-.33.12,0.79,0.79,0,0,0-.21.36q-0.08.25-.15,0.53a3.33,3.33,0,0,1-.18.52,1.66,1.66,0,0,1-.66.8,2,2,0,0,1-1,.25,1.76,1.76,0,0,1-1.34-.55,2,2,0,0,1-.52-1.42,3.4,3.4,0,0,1,.11-0.86,3.31,3.31,0,0,1,.28-0.74h1.36v0.12a2.25,2.25,0,0,0-.47.65,1.78,1.78,0,0,0-.19.79,1.53,1.53,0,0,0,0,.28,0.91,0.91,0,0,0,.1.27,0.56,0.56,0,0,0,.18.2,0.52,0.52,0,0,0,.63-0.05,1.28,1.28,0,0,0,.23-0.5l0.13-.47a3.9,3.9,0,0,1,.17-0.48,1.62,1.62,0,0,1,.6-0.75,1.82,1.82,0,0,1,1-.24h0Zm1.85-4.87v1.18l-1.19.31v1.63l1.19,0.31v1.15l-5.89-1.63V64.3l5.89-1.63h0ZM142,64.43l-2.1.54,2.1,0.54V64.43h0Zm2.27-5.59V62H138.4V60.88h4.75v-2h1.14Zm0-3.89v3.2H138.4v-3.2h1.14V57h1V55.09h1.14V57h1.45V54.95h1.14Z"/><path class="cls-8" d="M-0.32,21.61c-5-.21-9.18,3-9.18,5.89v3.36c0,2.33,21.76,4,22.63-.07,0.15-.72,2.33-11.87,7.86-16.94C23,12,23.22,20.22,23.28,21.38c0.16,4.16,0,7.66.17,11.81h1.86c0.05-5.7-.31-15.94,3-24.76C31.36,0.14,22.63-4.77,22.39-4,19,5,11.35,22.1-.32,21.61Z"/><path class="cls-8" d="M37.69,128.15c-5.18-.22-9.52,3.11-9.52,6.11v3.49c0,2.41,22.56,4.14,23.47-.08,0.16-.75,2.41-12.31,8.15-17.57,2.13-2,2.31,6.6,2.38,7.8,0.17,4.31,0,7.94.17,12.25h1.93c0.05-5.91-.32-16.52,3.08-25.67,3.2-8.61-5.86-13.69-6.11-12.92C57.68,110.89,49.79,128.66,37.69,128.15Z"/><path class="cls-8" d="M169.34,81.14c-5.27-.22-9.69,3.17-9.69,6.22v3.55c0,2.46,23,4.22,23.9-.08,0.16-.76,2.46-12.53,8.3-17.89,2.17-2,2.35,6.72,2.42,7.94,0.17,4.39,0,8.08.18,12.47h2c0.05-6-.33-16.82,3.13-26.14,3.25-8.76-6-13.94-6.22-13.16C189.69,63.57,181.66,81.66,169.34,81.14Z"/><path class="cls-8" d="M117.45,106.21c2.17,8.77,4.44,23.21,12.42,23.09l12.45-.19,12.45,0.19c8,0.12,10.26-14.32,12.42-23.09h0.87a2.21,2.21,0,0,0,2.2-2.2v-1.69a2.21,2.21,0,0,0-2.2-2.2h-7.79l0.33,0.64a2.88,2.88,0,0,1-1.22,3.88h0a2.88,2.88,0,0,1-3.88-1.22l-1.72-3.29H130.86l-1.72,3.29a2.88,2.88,0,0,1-3.88,1.22h0a2.88,2.88,0,0,1-1.22-3.88l0.33-.64h-7.79a2.21,2.21,0,0,0-2.2,2.2V104a2.21,2.21,0,0,0,2.2,2.2h0.87Zm11.44,15.18h26.87a1.13,1.13,0,0,1,1.13,1.13h0a1.13,1.13,0,0,1-1.13,1.13H128.89a1.13,1.13,0,0,1-1.13-1.13h0a1.13,1.13,0,0,1,1.13-1.13h0Zm-2.1-6.5h31.08A1.13,1.13,0,0,1,159,116h0a1.13,1.13,0,0,1-1.13,1.13H126.79a1.13,1.13,0,0,1-1.13-1.13h0a1.13,1.13,0,0,1,1.13-1.13h0Zm-2.51-6.68h36.1a1.13,1.13,0,0,1,1.13,1.13h0a1.13,1.13,0,0,1-1.13,1.13h-36.1a1.13,1.13,0,0,1-1.13-1.13h0A1.13,1.13,0,0,1,124.28,108.22Z"/><path class="cls-8" d="M139.07,78.16h0a1.91,1.91,0,0,1,.81,2.57L128.26,103a1.91,1.91,0,0,1-2.57.81h0a1.91,1.91,0,0,1-.81-2.57L136.5,79A1.91,1.91,0,0,1,139.07,78.16Z"/><path class="cls-8" d="M145.59,78.16h0a1.91,1.91,0,0,0-.81,2.57L156.4,103a1.91,1.91,0,0,0,2.57.81h0a1.91,1.91,0,0,0,.81-2.57L148.16,79A1.91,1.91,0,0,0,145.59,78.16Z"/><path class="cls-8" d="M49.22,12.87c8.12,0,14.71,2.38,14.71,5.3s-6.59,5.31-14.71,5.31-14.71-2.37-14.71-5.31,6.59-5.3,14.71-5.3h0Zm0,1.67c-6.52,0-11.81,1.63-11.81,3.64s5.29,3.64,11.81,3.64S61,20.19,61,18.18,55.74,14.54,49.22,14.54Z"/><ellipse class="cls-9" cx="49.22" cy="8.34" rx="14.71" ry="5.31"/><path class="cls-8" d="M63.93,20.72V24.6c-2.16,2.29-7.93,3.92-14.71,3.92S36.67,26.89,34.51,24.6V20.72c2.16,2.29,7.93,3.92,14.71,3.92S61.77,23,63.93,20.72Z"/><path class="cls-8" d="M63.93,6.49V4.69C59-1,39.42-1,34.51,4.7v1.8C36.67,4,42.44,2.21,49.22,2.21S61.77,4,63.93,6.49Z"/><path class="cls-8" d="M165.22,59.23c6.83,0,12.37,2,12.37,4.46s-5.54,4.46-12.37,4.46-12.37-2-12.37-4.46,5.54-4.46,12.37-4.46h0Zm0,1.4c-5.48,0-9.93,1.37-9.93,3.06s4.45,3.06,9.93,3.06,9.93-1.37,9.93-3.06S170.7,60.63,165.22,60.63Z"/><ellipse class="cls-9" cx="165.22" cy="55.42" rx="12.37" ry="4.46"/><path class="cls-8" d="M177.59,65.82v3.26c-1.81,1.92-6.67,3.3-12.37,3.3s-10.56-1.38-12.37-3.3V65.82c1.81,1.92,6.67,3.3,12.37,3.3S175.77,67.75,177.59,65.82Z"/><path class="cls-8" d="M177.59,53.86V52.35c-4.14-4.77-20.61-4.78-24.74,0v1.51c1.81-2.1,6.67-3.6,12.37-3.6S175.77,51.76,177.59,53.86Z"/><path class="cls-8" d="M107.43,98.09v9.55c0,1-1.11,1.74-2.47,1.74H98.7c-1.36,0-2.47-.79-2.47-1.74V98.09h11.2Zm-8.1-29.75,3.44-4.51a0.26,0.26,0,0,1,.22-0.11,1.57,1.57,0,0,1,.6.12,1.59,1.59,0,0,1,.86.86,1.57,1.57,0,0,1,.12.6v8.05H99.08V73.07h0V68.84a0.68,0.68,0,0,1,.25-0.5h0ZM96.57,92.55h10.52a1.29,1.29,0,0,1,1.28,1.28v2.36a1.29,1.29,0,0,1-1.28,1.28H96.57a1.29,1.29,0,0,1-1.28-1.28V93.83a1.29,1.29,0,0,1,1.28-1.28h0Zm9.76-.62V76.63c0-1.54-.89-2.8-2-2.8h-5c-1.09,0-2,1.26-2,2.8V91.93h9Z"/><path class="cls-8" d="M212.3,106.19c-2.43,1.52-4,2.67-4.18,5.78-0.08,1.17-.15,1.75.78,1.87,3.59,0-.81-1.54,4.55-6.49Z"/><path class="cls-8" d="M224.31,93.2a25.66,25.66,0,0,0-4.93-.86c-3.57-.27-8.44.31-11.61,2.11a3.31,3.31,0,0,0-1.06,3.77c1.33,2.81,1.25.8,2.6,5.6s3.87,8.31,9.1,8.79a8.43,8.43,0,0,0,5.89-1.68v-2.86a6.19,6.19,0,0,1-1.24,1.11c-4.24,2.4-9.42,0-11.56-5.86-2.49-6.81-1.34-7.13.45-8,2.18-.74,7.91-0.82,12.35.1V93.2Z"/><path class="cls-8" d="M208.18,62.21c2.28,9.21,4.66,24.38,13.05,24.25l3.08,0V80.52H220.2A1.19,1.19,0,0,1,219,79.34h0a1.19,1.19,0,0,1,1.19-1.19h4.11V73.7H218a1.19,1.19,0,0,1-1.19-1.19h0A1.19,1.19,0,0,1,218,71.33h6.32V66.69h-9a1.19,1.19,0,0,1-1.19-1.19h0a1.19,1.19,0,0,1,1.19-1.19h9v-8.5h-2.05l-1.8,3.46a3,3,0,0,1-4.07,1.28h0a3,3,0,0,1-1.28-4.07l0.35-.67h-8.18A2.32,2.32,0,0,0,205,58.13V59.9a2.32,2.32,0,0,0,2.31,2.31h0.91Z"/><path class="cls-8" d="M224.31,49.69l-4.78,9.16a2,2,0,0,1-2.7.85h0A2,2,0,0,1,216,57l8.32-16v8.66Z"/><path class="cls-8" d="M220.32-51.13c-7,0-12.54,22.83-12.46,26.1a4,4,0,0,0-1.11.48,2.16,2.16,0,0,0-1.11,1.79A2.16,2.16,0,0,0,206.75-21a3.73,3.73,0,0,0,.66.33c-2.85,2.72-4.34-2.15-10.14-2.75-8.74-.91-3.16,7.37-3.14,7.43,3,7-.9,9.5,2.39,16,3.21,6.39,16.05,9.21,27.78,8.47V-18.38A21.84,21.84,0,0,1,211-20.69a3.67,3.67,0,0,0,.54-0.28,2.16,2.16,0,0,0,1.11-1.79,2.16,2.16,0,0,0-1.11-1.79,3.69,3.69,0,0,0-.53-0.28c1.32-4.66,5.52-24.34,9.32-25.2h0.61c1.12,0.25,2.27,2.14,3.38,4.79v-4.16a4.91,4.91,0,0,0-3.38-1.74h-0.61ZM211-23.67a1.17,1.17,0,0,1,.63.92,1.17,1.17,0,0,1-.63.92,3.45,3.45,0,0,1-1.83.48,3.45,3.45,0,0,1-1.83-.48,1.17,1.17,0,0,1-.63-0.92,1.17,1.17,0,0,1,.63-0.92,3.45,3.45,0,0,1,1.83-.48A3.45,3.45,0,0,1,211-23.67Z"/><path class="cls-8" d="M224.31,138.49h-4.39c-1.35,2.44-3,5-3.22,7.87-0.25,3.14,1.11,5.5,2.3,8.38h1.42c-0.18-.5-0.37-1-0.55-1.45a15,15,0,0,1-1.46-6.84,18.7,18.7,0,0,1,2.38-6.9h1l-0.22.45a18,18,0,0,0-2.28,6.52,14.17,14.17,0,0,0,1.39,6.38c0.23,0.59.46,1.19,0.69,1.83h3V138.49h0Zm0-19.3v18.53h-4.47l-3.17-9.09c-2.75-6,2.25-9.15,7.64-9.45h0Zm-7,5.28h0a0.45,0.45,0,0,0-.27.57l4,11.07a0.45,0.45,0,0,0,.57.27h0a0.45,0.45,0,0,0,.27-0.57l-4-11.07a0.45,0.45,0,0,0-.57-0.27h0Zm3.63-1.91h0a0.45,0.45,0,0,0-.36.52L222.86,136a0.45,0.45,0,0,0,.52.36h0a0.45,0.45,0,0,0,.36-0.52l-2.28-12.94A0.45,0.45,0,0,0,220.94,122.56Z"/><path class="cls-8" d="M261.69,28.91A5.08,5.08,0,1,1,256.61,34a5.08,5.08,0,0,1,5.08-5.08h0Zm18.87,14.45c0,4.25-3.38,9.33-6.18,11.95a19.17,19.17,0,0,1,2.85,2.83c2.05-9.81,7.19-13.66,6.95-13.71a6.61,6.61,0,1,0-3.61-1.07h0Zm3.61-10.62a5.08,5.08,0,1,1-5.08,5.08,5.08,5.08,0,0,1,5.08-5.08h0Zm-18,6.09h0a6.61,6.61,0,0,0-6.82-11h0c-6.28.4-4-3.15-8.26-2.31a0.76,0.76,0,0,0-.65.84c0.06,0.3.32,0.41,0.89,0.51,3.1,0.54,3.54,3.74,3.79,6.19h0a6.62,6.62,0,0,0,4.29,7.18h0c5.8,2.61,3.79,2.57,5.28,7.63A13.06,13.06,0,0,0,267,51.57c6.42,8,12,30,15.13,40.68,1-.3-3.87-30.46-4.91-33.32-0.89-2.46-14.63-10.32-11-20.1h0Zm0,53.42c-0.69-.21,2.85-22.79,5.13-32,0.88,2.06,2.25,5.89,2.55,6.72-3.18,8.93-5.84,19.05-7.68,25.27h0Zm8.11-33.57A1.27,1.27,0,1,1,273.07,60,1.27,1.27,0,0,1,274.34,58.68Z"/><path class="cls-8" d="M382-27c-4.74.57-6.55,2-5.52,7.12,1.47,7.3,6.5,11.49-4.19,18.33-1.11.71-2.08,1.35-2.26,2.69V8.81h0c0,6.45.23,13,.36,19.45,0,0.15.15,0.17,0.31,0.17s0.31,0,.31-0.17c0.13-6.46.36-13,.36-19.45h1.17c0,6.45.23,13,.36,19.45,0,0.15.15,0.17,0.31,0.17s0.31,0,.31-0.17c0.13-6.46.36-13,.36-19.45h1.15c0,6.45.23,13,.36,19.45,0,0.15.15,0.17,0.31,0.17s0.31,0,.31-0.17c0.13-6.46.36-13,.36-19.45h1.28c0,6.45.23,13,.36,19.45,0,0.15.15,0.17,0.31,0.17s0.31,0,.31-0.17c0.13-6.46.36-13,.36-19.45h1.18c0,6.45.23,13,.36,19.45,0,0.15.15,0.17,0.31,0.17s0.31,0,.31-0.17c0.13-6.46.36-13,.36-19.45h1.18c0,6.45.23,13,.36,19.45,0,0.15.15,0.17,0.31,0.17s0.31,0,.31-0.17c0.13-6.46.36-13,.36-19.45h1.18c0,6.45.23,13,.36,19.45,0,0.15.15,0.17,0.31,0.17s0.31,0,.31-0.17c0.13-6.46.36-13,.36-19.45h1.18c0,6.45.23,13,.36,19.45,0,0.15.15,0.17,0.31,0.17s0.31,0,.31-0.17c0.13-6.46.36-13,.36-19.45h1.1c0,6.45.23,13,.36,19.45,0,0.15.15,0.17,0.31,0.17s0.31,0,.31-0.17c0.13-6.46.36-13,.36-19.45h1c0,6.45.24,13,.36,19.45,0,0.15.15,0.17,0.31,0.17s0.31,0,.31-0.17c0.13-6.49.36-13.06,0.36-19.55h0V1.16c-0.18-1.34-1.15-2-2.26-2.69-10.7-6.83-5.66-11-4.19-18.33C388.59-25,386.78-26.41,382-27Z"/><path class="cls-8" d="M250.9,120.5c-4.44.53-6.14,1.84-5.17,6.67,1.38,6.84,6.09,10.77-3.93,17.17-1,.67-1.95,1.27-2.12,2.52V154h0c0,0.24,0,.47,0,0.71H241q0-.36,0-0.71h1.1q0,0.35,0,.71h1.26q0-.36,0-0.71h1.08c0,0.24,0,.47,0,0.71h1.26q0-.36,0-0.71h1.2q0,0.35,0,.71h1.26q0-.36,0-0.71h1.11c0,0.24,0,.47,0,0.71h1.26q0-.36,0-0.71h1.11q0,0.35,0,.71h1.26c0-.24,0-0.47,0-0.71H254q0,0.35,0,.71h1.26q0-.36,0-0.71h1.11q0,0.35,0,.71h1.26q0-.36,0-0.71h1q0,0.35,0,.71h1.26q0-.36,0-0.71h1q0,0.35,0,.71h1.26q0-.4,0-0.8h0v-7.08c-0.17-1.25-1.08-1.86-2.12-2.52-10-6.4-5.31-10.34-3.93-17.17C257,122.34,255.34,121,250.9,120.5Z"/><path class="cls-8" d="M288.79-24A18.18,18.18,0,0,1,307-5.78,18.18,18.18,0,0,1,288.79,12.4,18.18,18.18,0,0,1,270.61-5.78,18.18,18.18,0,0,1,288.79-24h0Zm6.49-17h0a0.76,0.76,0,0,1,.56.25,5,5,0,0,0-.32,1.76,5,5,0,0,0,.32,1.76,0.76,0.76,0,0,1-.56.25h0a0.76,0.76,0,0,1-.76-0.76V-38h-2.23a3.87,3.87,0,0,1-2,2.76h-2.93a3.94,3.94,0,0,1-2.11-3.57,3.75,3.75,0,0,1,3.57-3.91A3.63,3.63,0,0,1,292.21-40h2.31v-0.28a0.76,0.76,0,0,1,.76-0.76h0Zm11-5c5.63,0,10.2,3.15,10.2,7s-4.57,7-10.2,7-10.2-3.15-10.2-7,4.57-7,10.2-7h0ZM287-34.69h3.67a3.48,3.48,0,0,1,3.47,3.47v7.12h-0.21a18.19,18.19,0,0,0-5.1-.73,18.19,18.19,0,0,0-5.1.73h-0.21v-7.12A3.48,3.48,0,0,1,287-34.69h0ZM274.48-7.36a14.44,14.44,0,0,1,4.72-9.22,14.44,14.44,0,0,1,9.67-3.7,0.53,0.53,0,0,0,.53-0.53,0.53,0.53,0,0,0-.53-0.53,15.5,15.5,0,0,0-10.38,4,15.5,15.5,0,0,0-5.07,9.89,0.53,0.53,0,0,0,.47.58A0.53,0.53,0,0,0,274.48-7.36Z"/><path class="cls-8" d="M391,137.26a18.18,18.18,0,0,1,18.16,17.49H372.84A18.18,18.18,0,0,1,391,137.26h0Zm6.49-17h0a0.76,0.76,0,0,1,.56.25,5,5,0,0,0,0,3.53,0.76,0.76,0,0,1-.56.25h0a0.76,0.76,0,0,1-.76-0.76v-0.28H394.5a3.86,3.86,0,0,1-2,2.76h-2.93a3.94,3.94,0,0,1-2.11-3.57,3.75,3.75,0,0,1,3.58-3.91,3.63,3.63,0,0,1,3.42,2.76h2.31V121a0.76,0.76,0,0,1,.76-0.76h0Zm11-5c5.63,0,10.2,3.15,10.2,7s-4.57,7-10.2,7-10.2-3.15-10.2-7,4.57-7,10.2-7h0Zm-19.3,11.32h3.67a3.48,3.48,0,0,1,3.47,3.47v7.12H396.1a18.27,18.27,0,0,0-10.2,0h-0.21V130a3.48,3.48,0,0,1,3.47-3.47h0Zm-12.48,27.33a14.47,14.47,0,0,1,14.39-12.92,0.53,0.53,0,1,0,0-1.07,15.54,15.54,0,0,0-15.45,13.87A0.53,0.53,0,0,0,376.69,153.85Z"/><path class="cls-8" d="M377.08,63.72c8,0,14.53,8.79,14.53,19.62S385.11,103,377.08,103s-14.53-8.79-14.53-19.62,6.51-19.62,14.53-19.62h0Zm-3.2,39.51c0,3.14,2,7.51.66,17.6-2.74,21.35,7.8,21.17,5.08,0-1.29-10,.61-14.41.66-17.55a10.95,10.95,0,0,1-6.39,0h0Zm3.2-35.41c-6.35,0-11.5,7-11.5,15.52s5.15,15.52,11.5,15.52,11.5-7,11.5-15.52-5.15-15.52-11.5-15.52h0ZM382,86.3l-7,4.4a0.6,0.6,0,1,0,.63,1l7-4.4a0.6,0.6,0,0,0-.63-1h0Zm-6.45-9.11L369.47,81a0.6,0.6,0,1,0,.63,1l6.11-3.83a0.6,0.6,0,1,0-.63-1h0ZM380,70.65l-10.61,6.66a0.5,0.5,0,0,0,.53.85l10.61-6.66a0.5,0.5,0,1,0-.53-0.85h0Zm-3-4c-6.84,0-12.38,7.49-12.38,16.72s5.55,16.72,12.38,16.72,12.38-7.49,12.38-16.72S383.92,66.62,377.08,66.62Z"/><path class="cls-8" d="M225.14,138.49h-0.84v16.25h7c1.19-2.88,2.56-5.25,2.3-8.38-0.23-2.83-1.86-5.43-3.22-7.87h-5.23Zm-0.84-.77V119.19c5.94-.32,12.35,2.82,9.31,9.45l-3.18,9.09h-6.14ZM233,124.45a0.45,0.45,0,0,0-.57.27l-4,11.07a0.45,0.45,0,0,0,.27.57h0a0.45,0.45,0,0,0,.57-0.27l4-11.07a0.45,0.45,0,0,0-.27-0.57h0Zm-3.63-1.91a0.45,0.45,0,0,0-.52.36l-2.28,12.94a0.45,0.45,0,0,0,.36.52h0a0.45,0.45,0,0,0,.52-0.36l2.28-12.94a0.45,0.45,0,0,0-.36-0.52h0Zm-4.21-1.31h0a0.45,0.45,0,0,0-.45.45v14.26a0.45,0.45,0,0,0,.45.45h0a0.45,0.45,0,0,0,.45-0.45V121.67A0.45,0.45,0,0,0,225.14,121.23Z"/><path class="cls-8" d="M285.07,93.66H297a1.91,1.91,0,0,1,1.92,1.9V104H283.15V95.55a1.91,1.91,0,0,1,1.92-1.9h0Zm13.82,61.09H285.76v-47.2a0.56,0.56,0,0,0-.56-0.55h0a0.56,0.56,0,0,0-.56.55v47.2h-1.49V105.26h15.74v49.48h0ZM285.2,95.12a0.56,0.56,0,0,0-.56.55v6.54a0.56,0.56,0,0,0,.56.55h0a0.56,0.56,0,0,0,.56-0.55V95.67a0.56,0.56,0,0,0-.56-0.55h0Z"/><path class="cls-8" d="M399.81,41.06a10.08,10.08,0,0,1,2.48,6.5c0,3.86-2.36,7.29-6,9.47H377.59c-3.66-2.18-6-5.61-6-9.47a10.08,10.08,0,0,1,2.48-6.5h25.76Zm-0.06-.72c7.05-9.57-32.54-9.32-25.67,0h25.67Zm-23.66-3.54c-0.73.71-.67,1.55-0.24,2.6h-1.26a2.64,2.64,0,0,1,.13-2.6c0.31-.54,1.83-0.42,1.37,0h0Zm1.48,18.9h1.61a11.57,11.57,0,0,1-3.44-3.41,8.57,8.57,0,0,1-1.38-4.62,8.3,8.3,0,0,1,.55-3,9.45,9.45,0,0,1,1.34-2.38h-1.33a10.32,10.32,0,0,0-1,2C372.13,48.94,374,52.78,377.57,55.7Z"/><path class="cls-8" d="M360.93,52.38c4.34,0,7.86,2.43,7.86,5.43s-3.52,5.43-7.86,5.43-7.86-2.43-7.86-5.43,3.52-5.43,7.86-5.43h0ZM347.48,68.25h4.14c0.35,2,2.93,1,5.16,5.07,3.26,5.9,0,20.53-.84,26.28H339c-0.89-5.75-4.09-20.38-.84-26.28,2.22-4,4.8-3,5.16-5.07h4.14ZM350.74,63a0.74,0.74,0,0,1,.66.74v3.79h-7.74V63.76a0.74,0.74,0,0,1,.66-0.74V61.88a0.58,0.58,0,0,1,.58-0.58h5.27a0.58,0.58,0,0,1,.58.58V63h0Zm-6.19.68h0a0.32,0.32,0,0,0-.32.32v2.64a0.32,0.32,0,0,0,.32.32h0a0.32,0.32,0,0,0,.32-0.32V64a0.32,0.32,0,0,0-.32-0.32h0Zm5.87,0a0.32,0.32,0,0,0-.32.32v2.64a0.32,0.32,0,0,0,.32.32h0a0.32,0.32,0,0,0,.32-0.32V64a0.32,0.32,0,0,0-.32-0.32h0Zm-1.45,0a0.32,0.32,0,0,0-.32.32v2.64A0.32,0.32,0,0,0,349,67h0a0.32,0.32,0,0,0,.32-0.32V64a0.32,0.32,0,0,0-.32-0.32h0Zm-1.4,0H347.4a0.32,0.32,0,0,0-.23.31v2.64a0.32,0.32,0,0,0,.32.32h0a0.32,0.32,0,0,0,.32-0.32V64a0.32,0.32,0,0,0-.23-0.31h0Zm-1.57,0a0.32,0.32,0,0,0-.32.32v2.64A0.32,0.32,0,0,0,346,67h0a0.32,0.32,0,0,0,.32-0.32V64a0.32,0.32,0,0,0-.32-0.32h0Zm9.91,36.58a2.18,2.18,0,0,1,.31,1.12h0a2.21,2.21,0,0,1-2.2,2.2H340.94a2.21,2.21,0,0,1-2.2-2.2h0a2.18,2.18,0,0,1,.31-1.12h16.86Zm-15.1-27.6a9.7,9.7,0,0,0-.88,1.44,13.57,13.57,0,0,0-1.19,4.79,40.41,40.41,0,0,0,0,6.08c0.26,4.27,1,8.74,1.49,12h0l0.13,0.82,0.07,0.47,0,0.3a0.51,0.51,0,0,0,.1.25,0.38,0.38,0,0,0,.22.14h0.18L341,99h0l0.08,0a0.37,0.37,0,0,0,.14-0.13,0.28,0.28,0,0,0,0-.19v0h0l-0.07-.44-0.06-.37L341,96.89h0c-0.52-3.24-1.21-7.63-1.48-11.8a40,40,0,0,1,0-5.95,12.85,12.85,0,0,1,1.11-4.58,7.25,7.25,0,0,1,1.56-2.15,7.59,7.59,0,0,1,1.5-1l0.05,0h0l0.13-.08h0a0.44,0.44,0,0,0,.19-0.2,0.53,0.53,0,0,0,0-.28,0.51,0.51,0,0,0,0-.1l0-.09,0-.08L344,70.47a0.3,0.3,0,0,0-.17-0.08,0.34,0.34,0,0,0-.18,0h0l-0.08,0-0.08,0-0.08,0-0.09.05h0a8,8,0,0,0-1.6,1.1,7,7,0,0,0-.88,1h0Zm11.67-16.44h0a0.58,0.58,0,0,1,.43.19,3.84,3.84,0,0,0,0,2.72,0.58,0.58,0,0,1-.43.19h0a0.59,0.59,0,0,1-.59-0.59V58.56h-1.72a3,3,0,0,1-1.57,2.13h-2.26a3,3,0,0,1-1.63-2.75,2.89,2.89,0,0,1,2.75-3A2.8,2.8,0,0,1,350.11,57h1.78V56.83A0.59,0.59,0,0,1,352.48,56.25Z"/><path class="cls-8" d="M325.18,49.09h0c0-.15,0-0.29,0-0.44a7.55,7.55,0,0,0-14.53-2.88,7.55,7.55,0,0,0-14.58,2.75q0,0.12,0,.24s0,0.06,0,.1h0a1.53,1.53,0,0,0,1.53,1.53h26a1.53,1.53,0,0,0,1.51-1.3h0ZM313.1,47.33a4.75,4.75,0,0,1,9.12,0H313.1Zm-14,0a4.75,4.75,0,0,1,9.18,0h-9.18Z"/><rect class="cls-9" x="290.39" y="64.42" width="26.39" height="22.05" rx="2.48" ry="2.48"/><path class="cls-8" d="M289.56,51h24.85a2.42,2.42,0,0,1,2.36,2.47V61.3a2.42,2.42,0,0,1-2.36,2.47H289.56a2.42,2.42,0,0,1-2.36-2.47V53.51A2.42,2.42,0,0,1,289.56,51Z"/><rect class="cls-9" x="317.57" y="64.42" width="12.51" height="22.05" rx="2.43" ry="2.43"/><path class="cls-8" d="M319.9,51h11.82a2.42,2.42,0,0,1,2.36,2.47V61.3a2.42,2.42,0,0,1-2.36,2.47H319.9a2.42,2.42,0,0,1-2.36-2.47V53.51A2.42,2.42,0,0,1,319.9,51Z"/><path class="cls-8" d="M267.11,118.25a1.48,1.48,0,0,1-.21.73c-0.6.66-6,.51-6,1.93l0.06,12.42v2.83a1.49,1.49,0,0,0,1.21.82c1.7,0.43,15.19.43,16.89,0a1.48,1.48,0,0,0,1.21-.82v-2.83l0.06-12.42c0-1.42-5.41-1.27-6-1.93a1.48,1.48,0,0,1-.21-0.73h0.6a0.81,0.81,0,0,0,.8-0.8V96.58a1.64,1.64,0,0,0-1.64-1.64h-6.53a1.64,1.64,0,0,0-1.64,1.64v20.86a0.81,0.81,0,0,0,.8.8h0.6Zm-4.17,3.48h0a0.46,0.46,0,0,1,.46.46v13a0.46,0.46,0,0,1-.46.46h0a0.46,0.46,0,0,1-.46-0.46v-13A0.46,0.46,0,0,1,262.94,121.73Z"/><path class="cls-8" d="M256.08-104.94c-2.36,0-5,1.08-5.56,2.41-0.71,1.83,1.86,6.42-4.62,9.72-7.92,4-11.84,1.32-11.84,11.23,6.63,5.69,7.51,8,8.57,17.41,0.9,8.07-1,11.09-2.58,19.43a75.09,75.09,0,0,0-.84,13.33c6.39,1.83,9.31,1.76,15.56,1.95v7c-2.72.71-.94,3.83,0,4.37-1.4,4.11-4.12,21.35-.14,23.72-1.74,1.32-2.34,2.66-2,3.65-8.61-5.49-8-.37-10,10.38-1.07,5.86-7.93,2.73-8.63,4.17-0.36.84,0,2.27,2.11,2.45,12.93,1.14,7.94-20.24,18.64-10.48V16a1.33,1.33,0,0,0,1.32,1.32h0A1.33,1.33,0,0,0,257.42,16V15.77c10.7-9.76,5.71,11.62,18.64,10.48,2.13-.19,2.47-1.62,2.11-2.45-0.71-1.44-7.56,1.69-8.63-4.17-2-10.77-1.37-15.89-10-10.36,0.38-1-.22-2.34-2-3.68,4-2.37,1.29-19.66-.11-23.77,0.93-.53,2.67-3.59,0-4.31v-7c6.23-.18,9.15-0.12,15.53-1.95a75.07,75.07,0,0,0-.84-13.33c-1.57-8.34-3.47-11.36-2.58-19.43,1.05-9.45,1.94-11.72,8.57-17.41,0-9.91-3.92-7.2-11.84-11.23-6.48-3.3-3.91-7.88-4.62-9.72C261.13-103.86,258.44-104.94,256.08-104.94Z"/><path class="cls-8" d="M320.09,100.65h-10c-4.14,4.64-.64,5.36-5,9.7-2.06,2.07-3.15,3.49-3.15,6.91,0,7.77,12.21,8.94,18.12,8.94s18.12-1.17,18.12-8.94c0-3.42-1.07-4.87-3.15-6.91-4.11-4-1.17-5.14-5-9.7h-10Z"/><rect class="cls-9" x="316.26" y="96.98" width="2.78" height="1.05" rx="0.31" ry="0.31"/><rect class="cls-9" x="321.15" y="96.98" width="2.78" height="1.05" rx="0.31" ry="0.31"/><polygon class="cls-8" points="319.58 95.56 318.75 95.42 317.52 97.24 318.35 97.39 319.58 95.56"/><polygon class="cls-8" points="320.59 95.57 321.41 95.43 322.64 97.26 321.81 97.4 320.59 95.57"/><circle class="cls-9" cx="318.9" cy="94.91" r="1.25"/><circle class="cls-9" cx="321.26" cy="94.93" r="1.25"/><path class="cls-8" d="M330.22,99v1.06H310.1V98.95a0.4,0.4,0,0,1,.4-0.4h19.31a0.4,0.4,0,0,1,.4.4V99Z"/><path class="cls-8" d="M255.15,106.16c2.44,1.52,4,2.67,4.19,5.78,0.08,1.17.15,1.75-.78,1.87-3.59,0,.81-1.54-4.56-6.49Z"/><path class="cls-8" d="M233.69,96.54c-3.07-.84-5.82-2.35-9.38-3.33v2.26c3.66,0.76,6.45,2.2,5.66,4.51a41.91,41.91,0,0,1-5.66,8.11v2.86a22,22,0,0,0,5-5.76c1.85-2.78,1.92-4.85,4.36-4.85s2.52,2.06,4.37,4.84c2.66,4,5.85,7.89,10.93,7.42,5.23-.49,7.76-4.05,9.09-8.81s1.26-2.79,2.59-5.6a3.31,3.31,0,0,0-1.07-3.77c-3.17-1.79-8-2.37-11.61-2.09-6.28.49-10,3-14.3,4.22h0Zm21.73-1.21c1.79,0.83,2.94,1.15.46,8-2.13,5.85-7.31,8.28-11.55,5.88-1.66-.94-6.42-7.75-6.92-9.2C235.67,94.85,251.46,94,255.42,95.32Z"/><path class="cls-8" d="M224.31,8.4c9.29-.59,17.87-3.41,20.41-8.47,3.29-6.54-.65-9,2.39-16,0-.06,5.6-8.34-3.14-7.43-5.8.61-7.29,5.47-10.14,2.75a3.69,3.69,0,0,0,.66-0.33,2.16,2.16,0,0,0,1.11-1.79,2.16,2.16,0,0,0-1.11-1.79,4,4,0,0,0-1.11-.48c0.06-2.73-3.77-19-9.08-24.37v4.16c2.65,6.35,5,17.11,5.94,20.4a3.66,3.66,0,0,0-.53.28,2.16,2.16,0,0,0-1.11,1.79,2.16,2.16,0,0,0,1.11,1.79,3.69,3.69,0,0,0,.63.32,16,16,0,0,1-6,2.27V8.4h0Zm6-32.22a3.44,3.44,0,0,1,1.83-.48,3.45,3.45,0,0,1,1.83.48,1.17,1.17,0,0,1,.64.92,1.17,1.17,0,0,1-.64.92,3.45,3.45,0,0,1-1.83.48,3.45,3.45,0,0,1-1.83-.48,1.17,1.17,0,0,1-.63-0.92A1.17,1.17,0,0,1,230.28-23.82Z"/><path class="cls-8" d="M358.7,33.26l4.72,1.65c1.27,0.44,2.44,1.1,2.44,2.45v8.14c0,1.35-1.17,2-2.44,2.45l-4.72,1.65H336.56a3.08,3.08,0,0,1-3.06-3.07V36.34a3.08,3.08,0,0,1,3.06-3.07H358.7Zm-19.9,1.65a2.46,2.46,0,0,0-2.45,2.45v8.14A2.46,2.46,0,0,0,338.81,48h17.65a2.46,2.46,0,0,0,2.45-2.45V37.37a2.46,2.46,0,0,0-2.45-2.45H338.81Zm23.63,4.74a1.78,1.78,0,1,0,1.77,1.78A1.78,1.78,0,0,0,362.43,39.66Z"/><path class="cls-8" d="M342.55,42.7a2.18,2.18,0,0,1-.64,1.63,2.36,2.36,0,0,1-1.73.63,3.7,3.7,0,0,1-1.1-.15,4.7,4.7,0,0,1-.88-0.37V42.81h0.14a3,3,0,0,0,.91.66,2.32,2.32,0,0,0,1,.23l0.32,0a1,1,0,0,0,.32-0.09,0.85,0.85,0,0,0,.25-0.21,0.59,0.59,0,0,0,.1-0.37,0.57,0.57,0,0,0-.14-0.39,0.9,0.9,0,0,0-.42-0.25L340,42.21a3.84,3.84,0,0,1-.6-0.2,1.91,1.91,0,0,1-.92-0.75,2.29,2.29,0,0,1-.28-1.18,2,2,0,0,1,.64-1.55,2.3,2.3,0,0,1,1.64-.6,3.91,3.91,0,0,1,1,.13,3.83,3.83,0,0,1,.85.33v1.56h-0.14a2.59,2.59,0,0,0-.75-0.55,2.05,2.05,0,0,0-.91-0.22,1.76,1.76,0,0,0-.33,0,1.06,1.06,0,0,0-.31.11,0.64,0.64,0,0,0-.23.21,0.6,0.6,0,0,0,.06.73,1.48,1.48,0,0,0,.58.26l0.54,0.15a4.48,4.48,0,0,1,.56.2,1.87,1.87,0,0,1,.86.69,2.11,2.11,0,0,1,.28,1.14h0Zm5.61,2.13H346.8l-0.35-1.37h-1.87l-0.35,1.37h-1.33L344.77,38h1.51l1.88,6.79h0Zm-2-2.61-0.62-2.41-0.62,2.41h1.24Zm6.44,2.61H348.9V38h1.32v5.47h2.36v1.32h0Zm4.48,0h-3.69V38h3.69v1.32h-2.37v1.17h2.2v1.32h-2.2v1.67h2.37v1.32Z"/><path class="cls-8" d="M300.14,21.61c-5-.21-9.18,3-9.18,5.89v3.36c0,2.33,21.76,4,22.63-.07,0.15-.72,2.33-11.87,7.86-16.94,2.06-1.89,2.23,6.37,2.29,7.53,0.16,4.16,0,7.66.17,11.81h1.86c0.05-5.7-.31-15.94,3-24.76,3.08-8.3-5.65-13.2-5.89-12.46C319.42,5,311.82,22.1,300.14,21.61Z"/><path class="cls-8" d="M338.15,128.15c-5.18-.22-9.52,3.11-9.52,6.11v3.49c0,2.41,22.57,4.14,23.47-.08,0.16-.75,2.41-12.31,8.15-17.57,2.13-2,2.31,6.6,2.38,7.8,0.17,4.31,0,7.94.17,12.25h1.93c0.05-5.91-.32-16.52,3.08-25.67,3.2-8.61-5.86-13.69-6.11-12.92C358.14,110.89,350.25,128.66,338.15,128.15Z"/><path class="cls-8" d="M224.31,86.42l10-.16,13.08,0.2c8.39,0.13,10.77-15,13.05-24.25h0.91a2.32,2.32,0,0,0,2.31-2.31V58.13a2.32,2.32,0,0,0-2.31-2.31h-8.18l0.35,0.67a3,3,0,0,1-1.28,4.07h0a3,3,0,0,1-4.07-1.28l-1.8-3.46H224.31v8.5h29a1.19,1.19,0,0,1,1.19,1.18h0a1.19,1.19,0,0,1-1.19,1.19h-29v4.64h26.32a1.19,1.19,0,0,1,1.19,1.18h0a1.19,1.19,0,0,1-1.19,1.19H224.31v4.45h24.11a1.19,1.19,0,0,1,1.19,1.19h0a1.19,1.19,0,0,1-1.19,1.19H224.31v5.89Z"/><path class="cls-8" d="M230.89,32.74h0a2,2,0,0,1,.85,2.7L224.31,49.7V41l3.88-7.45A2,2,0,0,1,230.89,32.74Z"/><path class="cls-8" d="M237.73,32.74h0a2,2,0,0,0-.85,2.7l12.2,23.42a2,2,0,0,0,2.7.85h0a2,2,0,0,0,.85-2.7l-12.2-23.42A2,2,0,0,0,237.73,32.74Z"/><path class="cls-8" d="M349.68,12.87c8.12,0,14.71,2.38,14.71,5.3s-6.59,5.31-14.71,5.31S335,21.11,335,18.18s6.59-5.3,14.71-5.3h0Zm0,1.67c-6.52,0-11.81,1.63-11.81,3.64s5.29,3.64,11.81,3.64,11.81-1.63,11.81-3.64S356.2,14.54,349.68,14.54Z"/><ellipse class="cls-9" cx="349.68" cy="8.34" rx="14.71" ry="5.31"/><path class="cls-8" d="M364.39,20.72V24.6c-2.16,2.29-7.93,3.92-14.71,3.92S337.13,26.89,335,24.6V20.72c2.16,2.29,7.93,3.92,14.71,3.92S362.23,23,364.39,20.72Z"/><path class="cls-8" d="M364.39,6.49V4.69C359.47-1,339.89-1,335,4.7v1.8c2.16-2.5,7.93-4.29,14.71-4.29S362.23,4,364.39,6.49Z"/></g></g><g class="cls-10"><path d="M171.91,68.87l-2.46,3.69a51.33,51.33,0,0,1-11.75-8.75,40.31,40.31,0,0,1-7-10.85q-3.77,12.09-19.11,19.5l-2.43-3.74q15.11-7.06,18.15-19.41h-17.1V45.11h18q0.28-4.51.28-9.28H132.2V31.57H169v4.26H152.92q-0.23,7.84-.37,9.28h18.19v4.21H153.83Q157.41,61.08,171.91,68.87Z"/><path d="M219.8,68.87l-2.46,3.69a51.33,51.33,0,0,1-11.75-8.75,40.3,40.3,0,0,1-7-10.85q-3.77,12.09-19.11,19.5L177,68.73q15.11-7.06,18.15-19.41h-17.1V45.11h18q0.28-4.51.28-9.28H180.09V31.57h36.79v4.26H200.82q-0.23,7.84-.37,9.28h18.19v4.21H201.73Q205.3,61.08,219.8,68.87Z"/><path d="M244.81,48.17H231.19V72.26H227V31.66h17.77V48.17ZM240.62,38V35.5h-9.42V38h9.42Zm0,6.27V41.58h-9.42v2.67h9.42Zm19,20-2.9,3a69.79,69.79,0,0,0-10.88-8.65,35,35,0,0,1-10.27,9.14l-2.76-3.16q9.89-5.59,12.82-15l4.14,0.75a26.08,26.08,0,0,1-2,4.79A77.09,77.09,0,0,1,259.63,64.26Zm6.24,4.23a3.54,3.54,0,0,1-1,2.57,3.75,3.75,0,0,1-2.62,1.12q-1.59.07-5.22,0.07l-1.5-4.16,5.33,0a0.87,0.87,0,0,0,.91-1.05V48.17H248.15V31.66h17.73V68.5ZM261.76,38V35.5h-9.45V38h9.45Zm0,6.27V41.58h-9.45v2.67h9.45Z"/><path d="M286.6,60.83h-8.65l2.67,1.68a37.6,37.6,0,0,1-4.21,9.92L272.92,70a36,36,0,0,0,4-9.14h-2.36V31.71h12V60.83Zm-4-20.6V35.73h-4.07v4.49h4.07Zm0,8.26V43.92h-4.07v4.56h4.07Zm0,8.42V52.2h-4.07v4.7h4.07Zm5.89,12.65-3.77,1.57a31.5,31.5,0,0,0-3.46-8l3.46-1.57A36.69,36.69,0,0,1,288.51,69.55Zm26.73-4.75h-3v3.11a4.84,4.84,0,0,1-1,3.45q-1,1.06-4,1.06-1.19,0-3-.16l-1.43-4q1.19,0.12,2.55.12a6.54,6.54,0,0,0,2.42-.23,1,1,0,0,0,.34-0.84V64.8H294.55v7.55h-4.16V64.8h-2.83V61.41h2.83v-11h9V47.8H287.67V44.39H294V42h-4V38.94h4V36.64h-5.08V33.37H294V30.66h4.12v2.71H305V30.66h4.12v2.71h5.71v3.27h-5.71v2.29H313V42h-3.88v2.34h6.13V47.8H303.62v2.57h8.61v11h3V64.8ZM299.39,56v-2.2h-4.84V56h4.84Zm0,5.38V59.19h-4.84v2.22h4.84ZM305,38.84v-2.2h-6.9v2.2H305Zm0,5.54V42h-6.9v2.34H305ZM308.11,56v-2.2h-4.49V56h4.49Zm0,5.38V59.19h-4.49v2.22h4.49Z"/></g><path class="cls-4" d="M170.91,67.87l-2.46,3.69a51.33,51.33,0,0,1-11.75-8.75,40.31,40.31,0,0,1-7-10.85q-3.77,12.09-19.11,19.5l-2.43-3.74q15.11-7.06,18.15-19.41h-17.1V44.11h18q0.28-4.51.28-9.28H131.2V30.57H168v4.26H151.92q-0.23,7.84-.37,9.28h18.19v4.21H152.83Q156.41,60.08,170.91,67.87Z"/><path class="cls-4" d="M218.8,67.87l-2.46,3.69a51.33,51.33,0,0,1-11.75-8.75,40.3,40.3,0,0,1-7-10.85q-3.77,12.09-19.11,19.5L176,67.73q15.11-7.06,18.15-19.41h-17.1V44.11h18q0.28-4.51.28-9.28H179.09V30.57h36.79v4.26H199.82q-0.23,7.84-.37,9.28h18.19v4.21H200.73Q204.3,60.08,218.8,67.87Z"/><path class="cls-4" d="M243.81,47.17H230.19V71.26H226V30.66h17.77V47.17ZM239.62,37V34.5h-9.42V37h9.42Zm0,6.27V40.58h-9.42v2.67h9.42Zm19,20-2.9,3a69.79,69.79,0,0,0-10.87-8.65,35,35,0,0,1-10.27,9.14l-2.76-3.16q9.89-5.59,12.82-15l4.14,0.75a26.08,26.08,0,0,1-2,4.79A77.09,77.09,0,0,1,258.63,63.26Zm6.24,4.23a3.54,3.54,0,0,1-1,2.57,3.75,3.75,0,0,1-2.62,1.12q-1.59.07-5.22,0.07l-1.5-4.16,5.33,0a0.87,0.87,0,0,0,.91-1.05V47.17H247.15V30.66h17.73V67.5ZM260.76,37V34.5h-9.45V37h9.45Zm0,6.27V40.58h-9.45v2.67h9.45Z"/><path class="cls-4" d="M285.6,59.83h-8.65l2.67,1.68a37.6,37.6,0,0,1-4.21,9.92L271.92,69a36,36,0,0,0,4-9.14h-2.36V30.71h12V59.83Zm-4-20.6V34.73h-4.07v4.49h4.07Zm0,8.26V42.92h-4.07v4.56h4.07Zm0,8.42V51.2h-4.07v4.7h4.07Zm5.89,12.65-3.77,1.57a31.5,31.5,0,0,0-3.46-8l3.46-1.57A36.69,36.69,0,0,1,287.51,68.55Zm26.73-4.75h-3v3.11a4.84,4.84,0,0,1-1,3.45q-1,1.06-4,1.06-1.19,0-3-.16l-1.43-4q1.19,0.12,2.55.12a6.54,6.54,0,0,0,2.42-.23,1,1,0,0,0,.34-0.84V63.8H293.55v7.55h-4.16V63.8h-2.83V60.41h2.83v-11h9V46.8H286.67V43.39H293V41h-4V37.94h4V35.64h-5.08V32.37H293V29.66h4.12v2.71H304V29.66h4.12v2.71h5.71v3.27h-5.71v2.29H312V41h-3.88v2.34h6.13V46.8H302.62v2.57h8.61v11h3V63.8ZM298.39,55v-2.2h-4.84V55h4.84Zm0,5.38V58.19h-4.84v2.22h4.84ZM304,37.84v-2.2h-6.9v2.2H304Zm0,5.54V41h-6.9v2.34H304ZM307.11,55v-2.2h-4.49V55h4.49Zm0,5.38V58.19h-4.49v2.22h4.49Z"/><g class="cls-10"><path d="M110.2,39h0a1.73,1.73,0,0,1-.22-1.73h0l2.23-3.34a1.16,1.16,0,1,0-1.93-1.29l-1.94,2.91a1.35,1.35,0,0,1-1.88.58l-0.09-.05,0,0h0a21.14,21.14,0,0,0-6.12-2.46h0A1.47,1.47,0,0,1,99,32.21V27.46h1.85a1.16,1.16,0,0,0,0-2.32H90.29a1.16,1.16,0,0,0,0,2.32h1.77v4.4a2.44,2.44,0,0,1-1.38,1.76l-0.11,0-0.14,0h0A21.33,21.33,0,1,0,110.2,39ZM94.38,27.46h2.35v4.4a1.21,1.21,0,0,1-1,1.21H95.29a1,1,0,0,1-.91-1.13V27.46Zm1.08,45.91a19,19,0,1,1,19-19A19,19,0,0,1,95.46,73.37Z"/><path d="M58.86,46.33H73.07a1.16,1.16,0,0,0,0-2.32H58.86A1.16,1.16,0,0,0,58.86,46.33Z"/><path d="M62.94,53.22a1.16,1.16,0,0,0,0,2.32h8.27a1.16,1.16,0,0,0,0-2.32H62.94Z"/><path d="M73.07,62.26H58.86a1.16,1.16,0,0,0,0,2.32H73.07A1.16,1.16,0,0,0,73.07,62.26Z"/><path d="M106.93,54.61H98.65a3.85,3.85,0,0,0-2.5-2.5V43.56a1.16,1.16,0,0,0-2.32,0v8.55a3.84,3.84,0,1,0,4.82,4.82h8.28A1.16,1.16,0,0,0,106.93,54.61ZM95,57.29a1.52,1.52,0,1,1,1.52-1.52A1.52,1.52,0,0,1,95,57.29Z"/></g><path class="cls-4" d="M109.2,38h0a1.73,1.73,0,0,1-.22-1.73h0l2.23-3.34a1.16,1.16,0,1,0-1.93-1.29l-1.94,2.91a1.35,1.35,0,0,1-1.88.58l-0.09-.05,0,0h0a21.14,21.14,0,0,0-6.12-2.46h0A1.47,1.47,0,0,1,98,31.21V26.46H99.9a1.16,1.16,0,0,0,0-2.32H89.29a1.16,1.16,0,0,0,0,2.32h1.77v4.4a2.44,2.44,0,0,1-1.38,1.76l-0.11,0-0.14,0h0A21.33,21.33,0,1,0,109.2,38ZM93.38,26.46h2.35v4.4a1.21,1.21,0,0,1-1,1.21H94.29a1,1,0,0,1-.91-1.13V26.46Zm1.08,45.91a19,19,0,1,1,19-19A19,19,0,0,1,94.46,72.37Z"/><path class="cls-4" d="M57.86,45.33H72.07a1.16,1.16,0,0,0,0-2.32H57.86A1.16,1.16,0,0,0,57.86,45.33Z"/><path class="cls-4" d="M61.94,52.22a1.16,1.16,0,0,0,0,2.32h8.27a1.16,1.16,0,0,0,0-2.32H61.94Z"/><path class="cls-4" d="M72.07,61.26H57.86a1.16,1.16,0,0,0,0,2.32H72.07A1.16,1.16,0,0,0,72.07,61.26Z"/><path class="cls-4" d="M105.93,53.61H97.65a3.85,3.85,0,0,0-2.5-2.5V42.56a1.16,1.16,0,0,0-2.32,0v8.55a3.84,3.84,0,1,0,4.82,4.82h8.28A1.16,1.16,0,0,0,105.93,53.61ZM94,56.29a1.52,1.52,0,1,1,1.52-1.52A1.52,1.52,0,0,1,94,56.29Z"/><path class="cls-4" d="M73.54,88.91H68.83v4.86H68.3V92.62q-2.09.33-3.82,0.47l-0.2-.5,1-.08v-3.6H64.38v-0.5h9.16v0.5Zm-1.37-1.06H71.63V85.33H66.29v2.52H65.75v-3h6.42v3ZM68.3,89.6V88.91H65.78V89.6H68.3Zm0,1.28V90.12H65.78v0.76H68.3Zm0,1.2V91.37H65.78v1.06Q67.38,92.26,68.3,92.08ZM71,86.48h-4V86h4v0.51Zm0,1.16h-4v-0.5h4v0.5Zm2.61,5.73-0.27.45a7.16,7.16,0,0,1-1.92-1.07,6.82,6.82,0,0,1-1.89,1l-0.37-.39a6.64,6.64,0,0,0,1.83-1,7.23,7.23,0,0,1-1.52-2.27h-0.2V89.62h3.87a5.2,5.2,0,0,1-1.33,2.77A6.72,6.72,0,0,0,73.58,93.36Zm-1.11-3.23H70a6,6,0,0,0,1.35,1.92A4.48,4.48,0,0,0,72.47,90.14Z"/><path class="cls-4" d="M78.15,84.7q-0.12.5-.32,1.25l-0.21.73v7.14H77.09V88a11,11,0,0,1-.78,1.4L75.91,89a13,13,0,0,0,1.74-4.48ZM85,85.33H81.91a3.1,3.1,0,0,1-.24.56H84v2.59h0.93v1.3H84.39V89H78.81v0.82H78.29v-1.3h0.88V85.89h1.91a3.57,3.57,0,0,0,.26-0.56H78.53V84.85H85v0.48Zm0.11,8.13-0.27.42a16.46,16.46,0,0,1-3-.78,9.6,9.6,0,0,1-3.33.73l-0.26-.5a9.73,9.73,0,0,0,3-.48A9.86,9.86,0,0,1,79.91,92a7.73,7.73,0,0,1-1.28.58l-0.3-.43a6.75,6.75,0,0,0,1.18-.48l-0.29-.29,0.36-.31a3.63,3.63,0,0,0,.39.38,4.18,4.18,0,0,0,.83-0.69,0.61,0.61,0,0,1-.62-0.65V89.34h0.55v0.8a0.19,0.19,0,0,0,.11.19,3.74,3.74,0,0,0,.85,0,2.09,2.09,0,0,0,1-.12,0.75,0.75,0,0,0,.14-0.56l0.47,0.22a0.86,0.86,0,0,1-.43.81,5.32,5.32,0,0,1-1.44.1,5.64,5.64,0,0,1-.38.42h2.79v0.43a5.58,5.58,0,0,1-1.31,1.15A16.19,16.19,0,0,0,85.13,93.47Zm-5.24-3.88a5.58,5.58,0,0,1-1,1.47l-0.42-.31a4.81,4.81,0,0,0,1-1.35Zm3.59-2.83V86.31H79.7v0.44h3.78Zm0,0.86V87.16H79.7v0.46h3.78Zm0,0.86V88H79.7v0.47h3.78Zm-0.35,3.2H80.44l-0.08.08a5.91,5.91,0,0,0,1.54.83A5.09,5.09,0,0,0,83.13,91.69Zm-0.81-2-0.26.39a5.29,5.29,0,0,0-.92-0.51l0.27-.38A4,4,0,0,1,82.31,89.67Zm2.52,1.12L84.39,91a6.92,6.92,0,0,0-1-1.5l0.4-.27A6.94,6.94,0,0,1,84.83,90.78Z"/><path class="cls-4" d="M96.66,85.33v0.48H92.44v0.73H95.7v3H95.14A11.26,11.26,0,0,1,96.53,91l-0.42.33q-0.21-.28-0.52-0.65Q91.42,91,87.72,91l-0.15-.48q2.54,0,4.33-.05v-0.9H88.64v-3H91.9V85.82H87.68V85.33H91.9V84.56h0.54v0.77h4.23ZM89.4,91.63a7.62,7.62,0,0,1-1.3,1.78l-0.44-.33A7.31,7.31,0,0,0,89,91.32Zm2.5-3.83V87H89.19V87.8H91.9Zm0,1.25V88.23H89.19v0.82H91.9Zm2.78,3.35a2.59,2.59,0,0,1-.29.92,0.81,0.81,0,0,1-.5.37,7.62,7.62,0,0,1-1.43.08,6.53,6.53,0,0,1-1.83-.14A0.6,0.6,0,0,1,90.32,93V91.33h0.51v1.54a0.31,0.31,0,0,0,.18.32,6.18,6.18,0,0,0,1.32.07,4.7,4.7,0,0,0,1.51-.13,1.42,1.42,0,0,0,.32-0.95Zm-1.27-.16L93,92.58a5.89,5.89,0,0,0-1.18-1.13l0.44-.33A6.34,6.34,0,0,1,93.42,92.24Zm1.76-4.44V87H92.44V87.8h2.74Zm0,1.25V88.23H92.44v0.82h2.74Zm-0.11,1.19a6.51,6.51,0,0,0-.49-0.45l0.34-.26H92.44v0.86Zm1.59,2.84-0.44.33a8,8,0,0,0-1.38-1.73l0.44-.35A8.91,8.91,0,0,1,96.66,93.09Z"/><path class="cls-4" d="M101.61,87.78a4.46,4.46,0,0,1,.92,2.48,1.35,1.35,0,0,1-.37,1,2.05,2.05,0,0,1-1.48.31L100.46,91l0.53,0a1.2,1.2,0,0,0,.78-0.18,0.91,0.91,0,0,0,.2-0.69,3.59,3.59,0,0,0-1-2.28q0.33-.88.83-2.54H100.2v8.39H99.67V84.83h2.72v0.53A23.27,23.27,0,0,1,101.61,87.78ZM107.74,89h-3.82v4.08a12.19,12.19,0,0,0,1.72-.63l0,0.58a17.6,17.6,0,0,1-2.18.75l-0.25-.54a0.42,0.42,0,0,0,.11-0.29V84.81h4.38V89Zm-0.58-2.41V85.36h-3.25v1.23h3.25Zm0,1.87V87.12h-3.25v1.34h3.25Zm1.39,4.9-0.38.47a6.64,6.64,0,0,1-3-3.93l0.51-.22a6.75,6.75,0,0,0,.52,1.33,8.33,8.33,0,0,0,1.62-1.38L108.27,90a11.62,11.62,0,0,1-1.77,1.48A5.19,5.19,0,0,0,108.56,93.36Z"/><path class="cls-4" d="M113.67,93.27h-0.55V92.43h-1.47V93.5h-0.54V85.21h2.56v8.06Zm-0.55-4.74V85.76h-1.47v2.77h1.47Zm0,3.36V89.05h-1.47v2.83h1.47Zm6.59-5.63h-2.45v1.53h2.17v0.53H114.5V87.79h2.21V86.26h-2.58V85.7h2.58V84.55h0.55V85.7h2.45v0.56ZM120,90.15h-1.17v2.73a0.75,0.75,0,0,1-.29.7,2.43,2.43,0,0,1-1.12.17h-0.61l-0.22-.57q0.51,0,.9,0a1.64,1.64,0,0,0,.66-0.08,0.29,0.29,0,0,0,.14-0.28V90.15h-4.12V89.61h4.12v-1h0.54v1H120v0.54Zm-3.17,2.13-0.47.28A8.75,8.75,0,0,0,114.95,91l0.46-.32A10.86,10.86,0,0,1,116.78,92.28Z"/><path class="cls-4" d="M126.45,88.46h-3.07v5.34h-0.56v-9h3.63v3.62Zm-0.55-2.11v-1h-2.52v1h2.52Zm0,1.58V86.87h-2.52v1.05h2.52Zm3.8,4.3-0.39.43a15.28,15.28,0,0,0-2.61-2.07,6.77,6.77,0,0,1-2.29,2.12l-0.4-.42a5.93,5.93,0,0,0,2.93-3.45L127.46,89a6.45,6.45,0,0,1-.5,1.17A14.61,14.61,0,0,1,129.7,92.22ZM131,93.11a0.6,0.6,0,0,1-.27.54,2.6,2.6,0,0,1-1.2.17l-0.65,0-0.2-.54,0.82,0a2.53,2.53,0,0,0,.84-0.07,0.28,0.28,0,0,0,.13-0.26V88.46h-3.08V84.84H131v8.27Zm-0.53-6.76v-1H128v1h2.52Zm0,1.58V86.87H128v1.05h2.52Z"/><path class="cls-4" d="M136.78,91.17h-1.6l0.29,0.24a9.82,9.82,0,0,1-1.16,2.4l-0.39-.34a12.79,12.79,0,0,0,1.09-2.3h-0.66V84.94h2.43v6.23Zm-0.51-4.35V85.43h-1.39v1.39h1.39Zm0,1.88V87.33h-1.39V88.7h1.39Zm0,2V89.22h-1.39v1.45h1.39ZM137,93.16l-0.45.21a10.42,10.42,0,0,0-.7-1.6l0.46-.21A10.37,10.37,0,0,1,137,93.16ZM143.13,92h-0.71V93a0.76,0.76,0,0,1-.13.47,0.61,0.61,0,0,1-.32.23,3.36,3.36,0,0,1-.77.06l-0.54,0-0.2-.54h1.18a0.25,0.25,0,0,0,.28-0.29V92H138.4v1.83h-0.51V92H137V91.52h0.85V89h2V88.24h-2.69V87.79h1.56V87H137.6V86.51h1.13v-0.7h-1.48V85.34h1.48V84.57h0.51v0.77H141V84.57h0.52v0.77h1.45v0.46H141.5v0.7h1.11V87H141.5v0.81h1.61v0.45h-2.73V89h2v2.48h0.71V92Zm-3.28-1.69V89.52H138.4v0.77h1.45Zm0,1.23V90.77H138.4v0.75h1.45Zm1.13-5v-0.7h-1.74v0.7H141Zm0,1.28V87h-1.74v0.81H141Zm0.93,2.5V89.52h-1.53v0.77h1.53Zm0,1.23V90.77h-1.53v0.75h1.53Z"/><path class="cls-4" d="M147.88,84.66q-0.14.49-.41,1.24l-0.26.73v7.15h-0.52v-6a10.34,10.34,0,0,1-.87,1.41l-0.33-.55a11.68,11.68,0,0,0,1.87-4.1ZM154,92.18h-3.7l0.31,0.33a6.76,6.76,0,0,1-2.39,1.32l-0.32-.45a8.38,8.38,0,0,0,2.26-1.19h-1.54V88.44H154v3.74Zm0.67-6.87h-2.22V86h1.83V87.9h-6V86h1.85V85.31h-2.05V84.84h6.59v0.47Zm-4.54,2.12v-1h-1.34v1h1.34Zm3.34,2.1V88.89h-4.33v0.64h4.33Zm0,1.11V90h-4.33v0.67h4.33Zm0,1.1V91.06h-4.33v0.67h4.33ZM152,86V85.31h-1.31V86H152Zm0,1.42v-1h-1.31v1H152Zm2.77,5.88-0.31.46a10.63,10.63,0,0,0-2.39-.92l0.28-.46A12.26,12.26,0,0,1,154.75,93.32Zm-0.95-5.88v-1h-1.32v1h1.32Z"/><path class="cls-4" d="M157.4,92.76a0.59,0.59,0,1,1,1,.41,0.53,0.53,0,0,1-.4.17,0.6,0.6,0,0,1-.44-0.17A0.57,0.57,0,0,1,157.4,92.76Zm1-7.48L158.33,91h-0.71l-0.1-5.74h0.9Z"/><path class="cls-4" d="M165.72,85.05a11,11,0,0,1-3.13.81v1.26h2.76v3.07h-2.77a8.49,8.49,0,0,1-.83,3.53l-0.46-.32a7.71,7.71,0,0,0,.77-3.55v-4.4a10.77,10.77,0,0,0,3.43-.85Zm-0.91,4.59v-2h-2.22v2h2.22Zm5.74-1.22h-1.2v5.4h-0.52v-5.4h-1.89a10.42,10.42,0,0,1-.36,3.21,9.87,9.87,0,0,1-1.12,2.19L165,93.46a6.89,6.89,0,0,0,1.14-2.27,11.66,11.66,0,0,0,.24-2.65V85.32a11.36,11.36,0,0,0,3.74-.75l0.29,0.48a12,12,0,0,1-3.49.76v2.1h3.61v0.51Z"/><path class="cls-4" d="M182.13,86.32h-5.22a12.85,12.85,0,0,1-.78,1.18h5.18V93a0.67,0.67,0,0,1-.29.64,3.37,3.37,0,0,1-1.38.17q-0.42,0-.82,0l-0.26-.55q0.48,0,1,0a3.76,3.76,0,0,0,1-.07,0.27,0.27,0,0,0,.16-0.27V91.55h-5.19a4.43,4.43,0,0,1-1.17,2.3l-0.52-.31q1.31-1.16,1.31-4.08,0-.31,0-0.78a13.19,13.19,0,0,1-1.9,1.6l-0.42-.42a10.82,10.82,0,0,0,3.4-3.53H173V85.78h3.62q0.3-.54.61-1.24l0.57,0.16q-0.3.67-.54,1.09h4.91v0.55ZM180.77,91V89.77h-5a12,12,0,0,1-.05,1.27h5.1Zm0-1.81V88h-5v1.2h5Z"/><path class="cls-4" d="M193.69,85.86h-2.82l0.41,0.34a9.3,9.3,0,0,1-.58,1.28H193V93a0.76,0.76,0,0,1-.23.56,1.45,1.45,0,0,1-1,.23l-0.45,0-0.19-.55,1.06,0a0.22,0.22,0,0,0,.25-0.25V88h-2.12V88.9a0.24,0.24,0,0,0,.28.26H192v0.5h-1.56A0.67,0.67,0,0,1,190,89.5a0.48,0.48,0,0,1-.21-0.37V88h-1.42a2.17,2.17,0,0,1-.59,1.37,2.73,2.73,0,0,1-1.39.79l-0.26-.5A1.86,1.86,0,0,0,187.86,88h-2.09v5.8h-0.55V87.47h2.29a7.14,7.14,0,0,0-.57-1.29l0.34-.33h-2.71V85.34h4.29a5.21,5.21,0,0,0-.35-0.74l0.56-.16a4.14,4.14,0,0,1,.37.9h4.25v0.51Zm-2.43,6.71H187v-2.2h4.22v2.2Zm-0.48-6.71h-3.33q0.43,1,.65,1.62h2A12.46,12.46,0,0,0,190.77,85.86Zm-0.09,6.2V90.87h-3.11v1.18h3.11Z"/><path class="cls-4" d="M200.1,93.77h-0.54V93h-2.33v0.75h-0.57V89.16h3.44v4.61Zm-0.55-1.28V89.71h-2.32v2.78h2.32ZM204,88h-6.2V84.83H204V88Zm-0.55-.52V85.37h-5.1v2.07h5.1Zm1.39,6.34h-0.56V93h-2.35v0.75h-0.56V89.16h3.47v4.61Zm-0.56-1.28V89.71h-2.35v2.78h2.35Z"/><path class="cls-4" d="M212.22,87.88q-2.06.55-3.69,0.9l-0.24-.5a0.26,0.26,0,0,0,.18-0.25V84.56H209v1.17h3v0.51h-3v1.87q1.63-.36,3.14-0.77Zm3.51,5.86h-0.55V93.07h-5.64v0.68H209V89.28h2.11a5.29,5.29,0,0,0,.51-0.92l0.54,0.2a4.19,4.19,0,0,1-.39.71h4v4.45Zm-0.55-2.85V89.81h-5.64v1.08h5.64Zm0,1.66V91.44h-5.64v1.11h5.64Zm1.75-5.48a1.9,1.9,0,0,1-.21.81,1,1,0,0,1-.49.48,2.94,2.94,0,0,1-1.05.13h-1.55a0.7,0.7,0,0,1-.82-0.76V84.56h0.54v1.17h3.14v0.51h-3.14V87.7a0.23,0.23,0,0,0,.15.23,6,6,0,0,0,1.19.06,7.25,7.25,0,0,0,1.22-.07,1,1,0,0,0,.48-1Z"/><path class="cls-4" d="M228.45,91.85h-4.08V93a0.6,0.6,0,0,1-.22.48,0.77,0.77,0,0,1-.51.18H222l-0.23-.53h1.74a0.29,0.29,0,0,0,.2-0.1,0.3,0.3,0,0,0,.1-0.21v-1H219.3V91.33h4.54V90.76q1.23-.32,2.16-0.65h-6.06V89.6h7.33v0.51q-1.31.5-2.91,1v0.22h4.08v0.52ZM228.34,86h-9V85.46h4.26a4.85,4.85,0,0,0-.53-0.75l0.49-.25a7.16,7.16,0,0,1,.71,1h4.07V86Zm-1.06,2.77h-6.82v-2h6.82v2Zm-0.55-.53V87.33H221v0.91h5.71Z"/><path class="cls-4" d="M240.07,86.32h-5.22a13,13,0,0,1-.78,1.18h5.18V93a0.67,0.67,0,0,1-.29.64,3.37,3.37,0,0,1-1.38.17q-0.42,0-.82,0l-0.26-.55c0.32,0,.66,0,1,0a3.75,3.75,0,0,0,1-.07,0.27,0.27,0,0,0,.16-0.27V91.55h-5.18a4.43,4.43,0,0,1-1.17,2.3l-0.52-.31q1.31-1.16,1.31-4.08,0-.31,0-0.78a13.16,13.16,0,0,1-1.9,1.6l-0.42-.42a10.81,10.81,0,0,0,3.4-3.53h-3.3V85.78h3.62q0.3-.54.61-1.24l0.57,0.16q-0.3.67-.54,1.09h4.91v0.55ZM238.71,91V89.77h-5a12,12,0,0,1-.05,1.27h5.1Zm0-1.81V88h-5v1.2h5Z"/><path class="cls-4" d="M251.67,90H248.2v2.87a0.21,0.21,0,0,0,.12.2,5.31,5.31,0,0,0,1.2.06,4.81,4.81,0,0,0,1.16-.07,2.94,2.94,0,0,0,.23-1.56l0.57,0.21a2.9,2.9,0,0,1-.33,1.67,2.36,2.36,0,0,1-1.51.3,8.78,8.78,0,0,1-1.55-.07,0.62,0.62,0,0,1-.31-0.26,0.89,0.89,0,0,1-.13-0.49V90h-1.71a3.63,3.63,0,0,1-3.11,3.82l-0.37-.49q3-.66,2.88-3.33h-2.87V89.42h9.19V90Zm-0.38-1.85h-0.58V86.23h-7.28v1.88h-0.59V85.68h3.91q-0.41-.82-0.53-1l0.58-.19a9.15,9.15,0,0,1,.6,1.22h3.88v2.42ZM250,87.89h-5.8V87.37H250v0.52Z"/><path class="cls-4" d="M263.21,90.51h-9.12V90h2.55a4.23,4.23,0,0,0-.65-0.83l0.34-.31h-2.16V88.37h4.22V87.49h-3.71V87h3.71V86.23h-4V85.74h8.49v0.49h-4V87h3.71v0.48h-3.71v0.87h4.23v0.47h-2.22l0.39,0.37q-0.15.23-.56,0.78h2.44v0.52Zm-1.05,3.31h-0.53v-0.5h-6v0.5h-0.55V91.23h7v2.58Zm-0.53-1V91.75h-6v1.06h6Zm-4.13-7.55-0.5.24a4,4,0,0,0-.77-0.74l0.5-.26A2.93,2.93,0,0,1,257.51,85.26Zm3.35,3.58h-4.39a8,8,0,0,1,.85,1.15h2.75A7,7,0,0,0,260.85,88.84Zm0.19-4.1a3.45,3.45,0,0,1-.88.77l-0.56-.29a3.52,3.52,0,0,0,1-.75Z"/><path class="cls-4" d="M274.81,90h-7.7V86.88A11.75,11.75,0,0,1,266,88l-0.42-.35A10.68,10.68,0,0,0,268,84.49l0.54,0.17-0.52.93h2.56a7.26,7.26,0,0,0-.49-0.9l0.52-.16a5.23,5.23,0,0,1,.53,1.05h3.57v0.53H271.1v0.75h3.12v0.5H271.1v0.82h3.13v0.49H271.1v0.85h3.71V90ZM274,93.74h-0.55V93.18h-6v0.56H267V90.81H274v2.93Zm-0.55-1.07V91.35h-6v1.32h6Zm-2.91-5.8V86.12h-2.91v0.75h2.91Zm0,1.31v-0.8h-2.91v0.8h2.91Zm0,1.37V88.68h-2.91v0.85h2.91Z"/><path class="cls-4" d="M280.23,86.89a13.93,13.93,0,0,1-1,1.56v5.31h-0.56V89.19a16,16,0,0,1-1.14,1.13l-0.38-.44a11.94,11.94,0,0,0,2.6-3.18Zm-0.32-2.14a10,10,0,0,1-2.32,2.31l-0.36-.41a7.84,7.84,0,0,0,2.17-2.14Zm6.56,8.51-0.21.54a12.51,12.51,0,0,1-3.14-1.16,12.26,12.26,0,0,1-3.31,1.15l-0.28-.5a10.66,10.66,0,0,0,3.07-1A8.44,8.44,0,0,1,281.25,91a9,9,0,0,1-1.08.74l-0.39-.4a6,6,0,0,0,1.12-.74c-0.17-.2-0.31-0.38-0.43-0.56l0.42-.34a4.74,4.74,0,0,0,.42.52,3.45,3.45,0,0,0,.84-1.14l-1.77.08-0.13-.55A10.79,10.79,0,0,0,283,87.21l-2.33.13-0.1-.55a7.67,7.67,0,0,0,2.72-2.29l0.53,0.2a7.92,7.92,0,0,1-2.18,2.05q0.79,0,2.16-.14,0.73-.58,1.35-1.17l0.54,0.25a17.59,17.59,0,0,1-4,2.94q1.3,0,3.54-.28a8.38,8.38,0,0,0-.66-0.87l0.46-.29a11.22,11.22,0,0,1,1.51,2.24l-0.46.27a5.9,5.9,0,0,0-.5-0.87q-1.24.15-2.74,0.25a5.93,5.93,0,0,1-.54,1h3.27v0.52a9.94,9.94,0,0,1-1.83,1.74A11,11,0,0,0,286.47,93.27Zm-1.74-2.7h-3l-0.09.1A7.25,7.25,0,0,0,283.11,92,8,8,0,0,0,284.73,90.57Z"/><path class="cls-4" d="M292.37,93a0.82,0.82,0,0,1-.17.52,1,1,0,0,1-.8.22,7,7,0,0,1-.71,0l-0.18-.54a8.09,8.09,0,0,0,.84,0,0.88,0.88,0,0,0,.42-0.06,0.29,0.29,0,0,0,.1-0.26V90.17h-1.81a11.71,11.71,0,0,1-.77,3.62l-0.47-.35a11.7,11.7,0,0,0,.79-4.69V84.83h2.77V93Zm-0.5-3.37V87.72h-1.73l0,1.94h1.76Zm0-2.47V85.36h-1.73v1.83h1.73Zm6.2,6.19-0.32.47a8.12,8.12,0,0,1-1.8-1.29,9.79,9.79,0,0,1-1.55,1.23L294,93.41a8,8,0,0,0,1.59-1.22,8.1,8.1,0,0,1-1.48-3.31h-0.29v4.92h-0.53v-9h4.52a11.77,11.77,0,0,1-.28,2.14,0.88,0.88,0,0,1-.56.63,4.92,4.92,0,0,1-1.47.1l-0.18-.55,0.6,0a3.32,3.32,0,0,0,.85-0.07,0.46,0.46,0,0,0,.29-0.35,10.79,10.79,0,0,0,.16-1.41h-3.4v3h3.82a7.08,7.08,0,0,1-1.32,3.8A6.88,6.88,0,0,0,298.07,93.37Zm-1-4.5h-2.38a7.05,7.05,0,0,0,1.3,2.86A5.86,5.86,0,0,0,297,88.87Z"/><path class="cls-4" d="M304.44,88a4.57,4.57,0,0,1-.82,2.42l-0.4-.38a4.41,4.41,0,0,0,.63-1.52h-1v4.62a0.72,0.72,0,0,1-.17.43,1.09,1.09,0,0,1-.85.22,3.44,3.44,0,0,1-.48,0l-0.31-.57c0.45,0,.79.05,1,0.05a0.26,0.26,0,0,0,.17-0.08,0.21,0.21,0,0,0,.09-0.15V89.2a12.69,12.69,0,0,1-1.6,3l-0.36-.42a12.2,12.2,0,0,0,1.68-3.3h-1.64V88h2.33a8.65,8.65,0,0,0-1.62-1.42l0.39-.35q0.38,0.26,1,.74a9.62,9.62,0,0,0,1.16-1.59H300.8V84.83h3.44v0.52a11.5,11.5,0,0,1-1.35,1.94l0.36,0.4-0.32.28h1.52ZM309,90.39a15,15,0,0,1-.17,1.94,3,3,0,0,1-.28,1,1.33,1.33,0,0,1-.35.31,3.57,3.57,0,0,1-1.36.1l-0.25-.57,0.7,0a2.26,2.26,0,0,0,.69-0.06,0.41,0.41,0,0,0,.17-0.17,3,3,0,0,0,.14-0.7q0.08-.59.15-1.4h-1.76a4,4,0,0,1-2.61,2.9l-0.4-.43a3.84,3.84,0,0,0,1.57-1,3.14,3.14,0,0,0,.9-1.51h-1.67V90.39h1.8a6.76,6.76,0,0,0,.09-1.05l0.53,0a8.1,8.1,0,0,1-.09,1H309Zm0.62-1.28-0.3.47A7.44,7.44,0,0,1,307,88.46a8,8,0,0,1-2,1.11l-0.37-.45a6.59,6.59,0,0,0,2-1,5.81,5.81,0,0,1-.95-1.17l0.46-.26a4.37,4.37,0,0,0,.9,1.1,4,4,0,0,0,1.12-1.7h-2.25a7.9,7.9,0,0,1-1.23,1.3L304.22,87a7.5,7.5,0,0,0,2-2.48l0.53,0.2a6.61,6.61,0,0,1-.49.83h3.2v0.52h-0.75a4.94,4.94,0,0,1-1.24,2A6.87,6.87,0,0,0,309.59,89.12Z"/><path class="cls-4" d="M316.44,90.15a0.59,0.59,0,0,1-.38-0.51,0.49,0.49,0,0,1,.13-0.31,0.45,0.45,0,0,1,.37-0.16q0.49,0,.49.65a1.36,1.36,0,0,1-.62,1l-0.22-.17A1,1,0,0,0,316.44,90.15Z"/><path class="cls-4" d="M130.22,101.74H125.4v-0.51h2.21a5,5,0,0,0-.46-1.08l0.49-.2a9.52,9.52,0,0,1,.55,1.28h2v0.51Zm-3.36,4.18a9.24,9.24,0,0,1-1,2.72l-0.47-.25a9.82,9.82,0,0,0,.94-2.6Zm2.75-.79h-1.47v3.38a0.67,0.67,0,0,1-.24.56,1.72,1.72,0,0,1-1,.14l-0.16-.5a2.18,2.18,0,0,0,.73,0,0.22,0.22,0,0,0,.13-0.21v-3.34H126v-2.48h3.61v2.48Zm-0.55-.52V103.2h-2.5v1.42h2.5Zm0.93,2.9-0.48.25a7.16,7.16,0,0,0-.65-1.75l0.44-.24A7.23,7.23,0,0,1,130,107.52Zm4.56-4.39h-2.41a10.22,10.22,0,0,1-2.24,6.17l-0.44-.35a9.36,9.36,0,0,0,2.13-5.82h-1.44v-0.55h1.48q0.1-1.22.11-2.54h0.55q0,1.26-.12,2.53h2.38v0.55Zm0,3.57a10.33,10.33,0,0,1-.1,1.36,2.08,2.08,0,0,1-.2.82l-0.24.2a1.74,1.74,0,0,1-.78.1,0.89,0.89,0,0,1-.72-0.23,1.11,1.11,0,0,1-.19-0.7v-3.68h0.54v3.75q0,0.35.54,0.35a0.73,0.73,0,0,0,.36-0.09,1.17,1.17,0,0,0,.21-0.78q0.05-.69.05-1.29Zm-0.39-4.86-0.42.34a8.29,8.29,0,0,0-1.07-1.29l0.38-.35A6.35,6.35,0,0,1,134.21,101.84Z"/><path class="cls-4" d="M146.24,108.55l-0.19.52h-3.48a5.77,5.77,0,0,1-2.2-.35,4.08,4.08,0,0,1-1.53-1.17,8.16,8.16,0,0,1-1.52,1.64l-0.41-.4a6.16,6.16,0,0,0,2.25-3.21l0.54,0.13a5.36,5.36,0,0,1-.57,1.35,3.4,3.4,0,0,0,2.31,1.41v-3.35H137V104.6h9.18v0.53H142v1.35h3.59V107H142v1.52q0.47,0,1,0h3.2Zm-1.4-4.78h-6.48v-3.5h6.48v3.5Zm-0.58-2v-0.94h-5.33v0.94h5.33Zm0,1.53v-1h-5.33v1h5.33Z"/><path class="cls-4" d="M157.75,106h-2.44a7,7,0,0,1-1.21,1.58,27.44,27.44,0,0,1,3.49,1.25l-0.31.48A21.89,21.89,0,0,0,153.6,108a10.23,10.23,0,0,1-4.66,1.29l-0.29-.56a10.81,10.81,0,0,0,4.21-1q-1.48-.37-2.85-0.62,0.64-.56,1.23-1.15h-2.65v-0.51h3.14a9,9,0,0,0,.82-0.94l0.57,0.17q-0.17.24-.62,0.77h2.44a5.49,5.49,0,0,0,.28-0.57l0.56,0.05a3.58,3.58,0,0,1-.21.51h2.19V106Zm-0.09-5.13h-3v1h2.41v2.46h-7.77v-2.46h2.41v-1h-3v-0.53h8.92v0.53Zm-5.94,3v-1.42h-1.86v1.42h1.86Zm2.94,2.15H152q-0.42.44-.85,0.84,1.12,0.24,2.32.56A5.82,5.82,0,0,0,154.66,106Zm-0.55-4.09v-1h-1.84v1h1.84Zm0,1.94v-1.42h-1.84v1.42h1.84Zm2.43,0v-1.42h-1.87v1.42h1.87Z"/><path class="cls-4" d="M162.94,101.61h-2.74v-0.52h1.3a4.18,4.18,0,0,0-.41-1l0.48-.22a7.61,7.61,0,0,1,.47,1.18h0.91v0.52Zm-0.11,1.48h-2.42V102.6h2.42v0.49Zm0,1.59h-2.42v-0.5h2.42v0.5ZM162.68,109h-0.53v-0.57h-1.23v0.82h-0.52v-3.51h2.28V109Zm-0.53-1.07v-1.67h-1.23v1.67h1.23Zm7.16-1.5h-3.46a4.49,4.49,0,0,1-1.06,1v1.24q0.58-.13,1.47-0.42v0.5a19,19,0,0,1-2,.57l-0.14-.49a0.46,0.46,0,0,0,.18-0.38v-0.73a7.86,7.86,0,0,1-1.15.53l-0.31-.45a5.63,5.63,0,0,0,2.39-1.35H163.1v-0.49h1.77v-0.57h-1.45v-0.47h1.45v-0.55h-1.6v-0.44h1.6v-0.5h0.51v0.5h1.75v-0.5h0.52v0.5h1.48v0.44h-1.48v0.55h1.22v0.47h-1.22v0.57h1.66v0.49Zm-0.1-5.17h-5.86v-0.47H166a2.2,2.2,0,0,0-.32-0.58l0.45-.21a7.7,7.7,0,0,1,.4.79h2.7v0.47Zm-3.28,1.86h-2.29V101.7h2.29v1.39Zm-0.48-.44v-0.5h-1.34v0.5h1.34Zm1.68,2.23v-0.55h-1.75v0.55h1.75Zm0,1v-0.57h-1.75v0.57h1.75Zm2.21,3-0.25.44a5.11,5.11,0,0,1-2.78-2.36l0.43-.21a3.54,3.54,0,0,0,.65.9,5.61,5.61,0,0,0,.84-0.93l0.39,0.28a6.77,6.77,0,0,1-.91,1A5.29,5.29,0,0,0,169.34,108.91Zm-0.43-5.82h-2.33V101.7h2.33v1.39Zm-0.48-.44v-0.5h-1.36v0.5h1.36Z"/><path class="cls-4" d="M174.54,100.15a10.76,10.76,0,0,1-.95,1.73v4H173v-3.19a10.45,10.45,0,0,1-1,1.1l-0.35-.43a10.7,10.7,0,0,0,2.41-3.36Zm-0.88,6.21a8.69,8.69,0,0,1-1.34,2.43l-0.47-.3a7.82,7.82,0,0,0,1.32-2.34Zm6.87-5.56a13.23,13.23,0,0,1-.58,1.8l-0.53-.13a9.59,9.59,0,0,0,.4-1.14H176a13.42,13.42,0,0,1-1.38,1.63l-0.43-.38a9.38,9.38,0,0,0,2-2.63l0.51,0.22a4.14,4.14,0,0,1-.34.64h4.18ZM176.65,103a8.91,8.91,0,0,1-1.76,2.23l-0.41-.39a9.46,9.46,0,0,0,1.73-2.15Zm2.21,4.68a2.44,2.44,0,0,1-.24,1,0.82,0.82,0,0,1-.49.41,4.92,4.92,0,0,1-1.15.09l-1.37,0a2.46,2.46,0,0,1-.75-0.11,0.63,0.63,0,0,1-.27-0.26,1.22,1.22,0,0,1-.11-0.59v-2.14H175v2.18a0.32,0.32,0,0,0,.17.33,17,17,0,0,0,2.4.07,0.57,0.57,0,0,0,.54-0.26,2.22,2.22,0,0,0,.19-0.93Zm-1.21-.54-0.42.34a7.56,7.56,0,0,0-1.17-1.58l0.41-.35A8.13,8.13,0,0,1,177.65,107.19Zm0.31-1.43h-0.55V102H178v3.79Zm2.78-.94-0.45.36a10,10,0,0,0-1.56-2.13l0.4-.33A9.13,9.13,0,0,1,180.74,104.82Zm0.11,3.78-0.49.28a12.52,12.52,0,0,0-1.4-2.29l0.43-.3A12.14,12.14,0,0,1,180.85,108.59Z"/><path class="cls-4" d="M191.09,107.57h-4.48L187,108a13.87,13.87,0,0,1-3.19,1.16l-0.3-.47a13,13,0,0,0,3-1.08H184.8v-4.14h6.29v4.14Zm0.83-4.89h-8V100.3h8v2.38Zm-5.51-.51v-1.39h-1.9v1.39h1.9Zm4.13,2.48v-0.73h-5.21v0.73h5.21Zm0,1.18V105.1h-5.21v0.74h5.21Zm0,1.25v-0.78h-5.21v0.78h5.21Zm-1.64-4.9v-1.39h-1.95v1.39h1.95Zm3.48,6.54-0.23.51a16.25,16.25,0,0,0-3.43-.85l0.27-.53A22.89,22.89,0,0,1,192.38,108.72Zm-1-6.54v-1.39h-2v1.39h2Z"/><path class="cls-4" d="M197.65,102.46a9.35,9.35,0,0,1-.8,1.45v5.28H196.3v-4.51a10.74,10.74,0,0,1-1.08,1.15l-0.33-.45a10.09,10.09,0,0,0,2.3-3.14Zm-0.1-2.25a6.6,6.6,0,0,1-2.23,2.41l-0.35-.47a5.73,5.73,0,0,0,2.11-2.21Zm6.55,6.1h-1.3v2.12a0.7,0.7,0,0,1-.26.61,2.36,2.36,0,0,1-1.18.19l-0.61,0-0.19-.54a6.5,6.5,0,0,0,.72,0,2.66,2.66,0,0,0,.85-0.07,0.27,0.27,0,0,0,.13-0.26v-2.06h-4.69v-0.5h4.69v-1h-4.49v-0.51h6.1v0.51h-1.06v1h1.3v0.5Zm-0.65-2.79h-5.12v-3.25h5.12v3.25Zm-3.23,4.67-0.48.3a7.85,7.85,0,0,0-1.12-1.66l0.46-.29A7.61,7.61,0,0,1,200.23,108.19Zm2.67-6.57v-0.84h-4v0.84h4Zm0,1.39v-0.9h-4V103h4Z"/><path class="cls-4" d="M215.67,108.43l-0.16.54-3.7,0a5,5,0,0,1-4.21-1.68,9.16,9.16,0,0,1-.63,1.92L206.5,109a12.48,12.48,0,0,0,.9-4.19l0.56,0.1q-0.07.82-.21,1.74a4.42,4.42,0,0,0,.95,1.05V104h-2v-0.53h1.91V102h-1.68v-0.54h1.68V100h0.54v1.48h1.51V102h-1.51v1.47h1.58V104h-1.5v1.54h1.5V106h-1.5V108a6.63,6.63,0,0,0,2.95.58Q213.23,108.54,215.67,108.43Zm-0.35-8.16q0,0.32,0,.63a16.54,16.54,0,0,1-.09,1.71,2.78,2.78,0,0,1-.22,1,0.93,0.93,0,0,1-.42.31,4.13,4.13,0,0,1-1.32.08l-0.19-.55c0.21,0,.42,0,0.62,0a1.34,1.34,0,0,0,.79-0.14,1.85,1.85,0,0,0,.22-0.86,12.21,12.21,0,0,0,.06-1.71h-1.66a5.84,5.84,0,0,1-1.72,3.5l-0.39-.4a4.81,4.81,0,0,0,1.57-3.1h-1.5v-0.52h4.23Zm-0.1,7.39h-3.89v-3h3.89v3Zm-0.51-.51v-2h-2.84v2h2.84Z"/><path class="cls-4" d="M222.45,101.53h-3.13v2.81h2.9v0.8h-2.9v3.55h-0.87v-8h4v0.8Z"/><path class="cls-4" d="M230.81,105.49q0,3.34-3,3.34t-2.87-3.21v-4.89h0.87v4.82q0,2.49,2.1,2.48t2-2.4v-4.91h0.87v4.76Z"/><path class="cls-4" d="M240.25,108.7h-1.1L235,102.26a3.71,3.71,0,0,1-.25-0.48h0a8.44,8.44,0,0,1,0,1.07v5.84h-0.88v-8H235l4,6.37a6.18,6.18,0,0,1,.32.54h0a9.18,9.18,0,0,1-.06-1.2v-5.71h0.88v8Z"/><path class="cls-4" d="M245,103.51a20.48,20.48,0,0,1-1.48,4.53l-0.51-.36a14.75,14.75,0,0,0,1.42-4.35Zm5.2,2.72a14.49,14.49,0,0,1-.18,1.66,2.19,2.19,0,0,1-.28.87,0.82,0.82,0,0,1-.43.28,6,6,0,0,1-1.25.08q-0.73,0-1.22,0a1.13,1.13,0,0,1-.7-0.23,0.74,0.74,0,0,1-.21-0.57v-5.85h0.57v5.69a0.41,0.41,0,0,0,.09.26,0.33,0.33,0,0,0,.17.13,7.5,7.5,0,0,0,.79,0h1.37a0.49,0.49,0,0,0,.32-0.14,1.81,1.81,0,0,0,.26-0.92,10.11,10.11,0,0,0,.09-1.46Zm-1-3.4-0.47.38a11.55,11.55,0,0,0-2.37-2.87l0.43-.39A13.76,13.76,0,0,1,249.21,102.84Zm3,4.59-0.59.21a16,16,0,0,0-1.62-4l0.51-.3A23.89,23.89,0,0,1,252.23,107.43Z"/><path class="cls-4" d="M254.95,108.21a0.59,0.59,0,1,1,1,.41,0.54,0.54,0,0,1-.4.17,0.59,0.59,0,0,1-.44-0.17A0.57,0.57,0,0,1,254.95,108.21Zm1-7.48-0.1,5.74h-0.71l-0.1-5.74H256Z"/></g></g></svg>