<svg id="隱私" xmlns="http://www.w3.org/2000/svg" viewBox="0 0 110 27.66"><defs><style>.cls-1{fill:#555;}.cls-2{fill:#f27225;}</style></defs><title>icons_equity</title><path class="cls-1" d="M51.93,11.07H49.24a0.89,0.89,0,0,1-1.07-.77V7.6h0c0-3.28-3.09-5.95-6.88-5.95S34.41,4.32,34.41,7.6h0v2.7s0,0.77-1.21.77H30.65a1.75,1.75,0,0,0-1.86,1.61V24.85a1.75,1.75,0,0,0,1.86,1.61H51.93a1.75,1.75,0,0,0,1.86-1.61V12.68A1.75,1.75,0,0,0,51.93,11.07ZM35.65,7.6h0c0-2.69,2.53-4.88,5.64-4.88s5.64,2.19,5.64,4.88h0v2.79a0.77,0.77,0,0,1-.94.68H36.62a0.81,0.81,0,0,1-1-.53V7.6Zm16.9,17.25a0.58,0.58,0,0,1-.62.54H30.65A0.58,0.58,0,0,1,30,24.85V12.68a0.58,0.58,0,0,1,.62-0.54H51.93a0.58,0.58,0,0,1,.62.54V24.85Z"/><path class="cls-1" d="M41.29,14.23a2.78,2.78,0,0,0-3,2.55,4.09,4.09,0,0,0,1.12,2.16l-0.8,3.73a0.48,0.48,0,0,0,.13.44,0.66,0.66,0,0,0,.48.19h4a0.66,0.66,0,0,0,.47-0.19,0.49,0.49,0,0,0,.14-0.44l-0.73-3.74a4.27,4.27,0,0,0,1.05-2.15A2.78,2.78,0,0,0,41.29,14.23Zm0.63,4.66,0.65,3.34H40l0.71-3.33a0.48,0.48,0,0,0-.13-0.44,3.85,3.85,0,0,1-1-1.68,1.73,1.73,0,0,1,3.43,0,4,4,0,0,1-1,1.7A0.48,0.48,0,0,0,41.93,18.89Z"/><path class="cls-2" d="M24.57,7.34a2.36,2.36,0,0,0-2,2.58,3.11,3.11,0,0,0,.17,1l-4.44,4.24L15.38,6.14A2.82,2.82,0,0,0,16.25,4a2.36,2.36,0,0,0-2-2.58,2.36,2.36,0,0,0-2,2.58A2.83,2.83,0,0,0,13,6.11l-3,8.95L5.51,10.64a3.12,3.12,0,0,0,.19-1.07A2.36,2.36,0,0,0,3.65,7a2.36,2.36,0,0,0-2,2.58,2.36,2.36,0,0,0,2,2.57l2,11a0.51,0.51,0,0,0,.46.47H22.14a0.51,0.51,0,0,0,.46-0.46l2-10.66a2.36,2.36,0,0,0,2-2.57A2.36,2.36,0,0,0,24.57,7.34ZM14.21,2.66A1.26,1.26,0,0,1,15.3,4,1.59,1.59,0,0,1,15,5a0.95,0.95,0,0,1-1.63,0A1.59,1.59,0,0,1,13.11,4,1.26,1.26,0,0,1,14.21,2.66ZM3.41,10.92a1.35,1.35,0,0,1-.85-1.34A1.26,1.26,0,0,1,3.65,8.2,1.26,1.26,0,0,1,4.75,9.57a1.69,1.69,0,0,1,0,.29A1.19,1.19,0,0,1,3.65,11,0.83,0.83,0,0,1,3.41,10.92ZM22,21.38h0a1.35,1.35,0,0,1-1.23,1H7.57a1.18,1.18,0,0,1-1.27-.88L4.76,13s-0.25-1.41,1-.65l4.17,4.11a0.4,0.4,0,0,0,.41.11,0.53,0.53,0,0,0,.32-0.35l3-8.87c0-.08.63-1.06,1.15,0l2.86,9a0.54,0.54,0,0,0,.31.35,0.4,0.4,0,0,0,.41-0.1l4.27-4.08h0s0.92-.58.86,0.65Zm2.85-10.11a0.87,0.87,0,0,1-.24,0,1.2,1.2,0,0,1-1.07-1.11,1.79,1.79,0,0,1,0-.27,1.26,1.26,0,0,1,1.09-1.38,1.26,1.26,0,0,1,1.09,1.38A1.35,1.35,0,0,1,24.81,11.26Z"/><path class="cls-2" d="M22.46,25.26H6.2a0.61,0.61,0,0,0,0,1.2H22.46A0.61,0.61,0,0,0,22.46,25.26Z"/><path class="cls-1" d="M95.83,11.25H85.23a0.6,0.6,0,0,0,0,1.19h10.6A0.6,0.6,0,0,0,95.83,11.25Z"/><path class="cls-1" d="M96.38,14.75a0.58,0.58,0,0,0-.55-0.6H85.23a0.6,0.6,0,0,0,0,1.19h10.6A0.58,0.58,0,0,0,96.38,14.75Z"/><path class="cls-1" d="M107.5,10.86l-2.79-2.73a0.53,0.53,0,0,0-.78,0l-8.06,9.52a0.61,0.61,0,0,0-.13.27l-0.79,4a0.62,0.62,0,0,0,.17.57,0.53,0.53,0,0,0,.54.13l3.59-1.22a0.55,0.55,0,0,0,.24-0.17l8.06-9.52A0.63,0.63,0,0,0,107.5,10.86ZM96.23,21.17l0.39-1.94L98,20.57ZM99,20l-2-1.93,5.77-6.81,2,1.93Zm6.51-7.69-2-1.93,0.8-.94,2,1.93Z"/><path class="cls-1" d="M85.24,21.06a0.43,0.43,0,0,0-.59.23,0.49,0.49,0,0,0,.22.63,4.1,4.1,0,0,0,2.89.26,3.3,3.3,0,0,0,.82.55,3.54,3.54,0,0,0,1.53.34,4,4,0,0,0,3.29-1.75,0.5,0.5,0,0,0-.1-0.66,0.42,0.42,0,0,0-.62.11,3,3,0,0,1-3.74,1.1l-0.18-.09a4.17,4.17,0,0,0,.88-0.67,1.84,1.84,0,0,0,.61-1.84,1.55,1.55,0,0,0-2-.86,2,2,0,0,0-.68.34A2.16,2.16,0,0,0,87,21.11a2.58,2.58,0,0,0,.1.25A3.22,3.22,0,0,1,85.24,21.06Zm2.9-1.56a1.21,1.21,0,0,1,.7-0.23,0.58,0.58,0,0,1,.59.29,1,1,0,0,1-.38.83,3.34,3.34,0,0,1-1,.69,1.56,1.56,0,0,1-.16-0.33A1.18,1.18,0,0,1,88.13,19.5Z"/><path class="cls-1" d="M100.21,23.43a1.65,1.65,0,0,1-1.45,1.78H85.24a1.65,1.65,0,0,1-1.45-1.78V10.79c0-1.46.83-1.61,1.09-1.62h2.53a2.88,2.88,0,0,0,2.77-3V3.85c0-1.2.75-1.25,0.86-1.26h7.72a1.65,1.65,0,0,1,1.45,1.78v6.5l1.11-1.31V4.38a2.79,2.79,0,0,0-2.56-3H89.52l0,0-0.05,0,0,0,0,0,0,0,0,0L82.86,8.14a0.62,0.62,0,0,0-.17.43V23.43a2.79,2.79,0,0,0,2.56,3H98.76a2.79,2.79,0,0,0,2.56-3v-2l-1.11,1.31v0.74Zm-15.06-16,3.48-3.57C89,3.6,89.07,4.1,89.08,4.4V6.19A1.73,1.73,0,0,1,87.42,8h-2.2C84.76,7.87,85.14,7.44,85.15,7.43Z"/><path class="cls-1" d="M71.39,22.92H56.66a1,1,0,0,0-1,1v1.52a1,1,0,0,0,1,1H71.39a1,1,0,0,0,1-1V23.93A1,1,0,0,0,71.39,22.92Zm-0.06,2.47H56.72V24H71.33v1.4Z"/><path class="cls-1" d="M80.54,17.77A2.78,2.78,0,0,0,79,16.31h0c-0.32-.15-1.71-0.74-8.26-3.46l0.91-1.7,0.81,0.46a1,1,0,0,0,.29.11,1,1,0,0,0,1.13-.53l1.34-2.48a1.8,1.8,0,0,0,.15-1.35,1.76,1.76,0,0,0-.83-1.06L66.38,1.68A1.7,1.7,0,0,0,65.9,1.5,1.74,1.74,0,0,0,64,2.38L63,4.24a1.8,1.8,0,0,0-.15,1.35,1.76,1.76,0,0,0,.83,1.06L64.24,7,61.42,12.2l-0.54-.3a1.7,1.7,0,0,0-.48-0.18,1.74,1.74,0,0,0-1.88.88l-1,1.86a1.8,1.8,0,0,0-.15,1.35,1.76,1.76,0,0,0,.83,1.06l8.19,4.62a1.7,1.7,0,0,0,.48.18,1.74,1.74,0,0,0,1.88-.88l1-1.86a1.8,1.8,0,0,0-.68-2.42l-0.2-.11,0.44-.82c7,4.4,7.67,4.82,7.79,4.88h0a3.71,3.71,0,0,0,.66.2h0a2.19,2.19,0,0,0,2.64-1.08A2.25,2.25,0,0,0,80.54,17.77ZM64.26,5.61A0.59,0.59,0,0,1,64,5.26a0.6,0.6,0,0,1,0-.45L65,3a0.58,0.58,0,0,1,.63-0.29l0.16,0.06L74,7.34a0.59,0.59,0,0,1,.28.35,0.6,0.6,0,0,1,0,.45L73,10.52Zm4.48,12.75-1,1.86a0.58,0.58,0,0,1-.79.23l-8.19-4.62a0.59,0.59,0,0,1-.28-0.36,0.6,0.6,0,0,1,0-.45l1-1.86a0.58,0.58,0,0,1,.63-0.29l0.16,0.06,1.45,0.82h0l5.63,3.18h0l1.11,0.63A0.6,0.6,0,0,1,68.74,18.36Zm-0.88-2.53-5.43-3.06,2.82-5.24,4.27,2.41,1.16,0.65Zm11.5,3.23a1,1,0,0,1-1.36.45,2.75,2.75,0,0,1-.42-0.13c-0.39-.23-4.57-2.86-7.7-4.84l0.35-.64c3.46,1.44,8.08,3.36,8.36,3.49l0,0a1.63,1.63,0,0,1,.84.78A1.07,1.07,0,0,1,79.36,19.06Z"/></svg>
