<svg id="圖層_1" data-name="圖層 1" xmlns="http://www.w3.org/2000/svg" viewBox="0 0 190 90"><defs><style>.cls-1{fill:#de5b32;}.cls-2{fill:#fff;}</style></defs><title>usaPurchase_02</title><rect class="cls-1" width="190" height="90"/><path class="cls-2" d="M58.1,38.13a8,8,0,0,1,2.12-5.81,7.61,7.61,0,0,1,5.72-2.17,7.13,7.13,0,0,1,5.38,2.12,7.57,7.57,0,0,1,2,5.47,8.13,8.13,0,0,1-2.06,5.81,7.37,7.37,0,0,1-5.64,2.19,7.31,7.31,0,0,1-5.49-2.13A7.54,7.54,0,0,1,58.1,38.13ZM60,38a6.6,6.6,0,0,0,1.55,4.5,5.21,5.21,0,0,0,4.14,1.78A5.55,5.55,0,0,0,70,42.57,6.49,6.49,0,0,0,71.5,38,6.77,6.77,0,0,0,70,33.35a6,6,0,0,0-8.46.11A6.54,6.54,0,0,0,60,38Z"/><path class="cls-2" d="M89.52,45.49H87.28L78.84,33.31a6.84,6.84,0,0,1-.5-0.91H78.28a14.93,14.93,0,0,1,.08,2V45.49H76.58V30.4h2.36l8.21,12.06a11.75,11.75,0,0,1,.66,1h0a16.25,16.25,0,0,1-.12-2.27V30.4h1.79V45.49Z"/><path class="cls-2" d="M102.12,45.49H93.8V30.4h1.78V44h6.54v1.52Z"/><path class="cls-2" d="M108,31.85h-1.6V44H108v1.45h-5V44h1.6V31.85H103V30.4h5v1.45Z"/><path class="cls-2" d="M123.64,45.49H121.4L113,33.31a6.84,6.84,0,0,1-.5-0.91H112.4a14.93,14.93,0,0,1,.08,2V45.49h-1.79V30.4h2.36l8.21,12.06a11.75,11.75,0,0,1,.66,1h0a16.25,16.25,0,0,1-.12-2.27V30.4h1.79V45.49Z"/><path class="cls-2" d="M136.42,45.49h-8.5V30.4h8.14v1.52h-6.36v5.13h5.88v1.52h-5.88V44h6.73v1.52Z"/><path class="cls-2" d="M39.18,64.89H30.58a6.24,6.24,0,0,1-2.41,3.18,21.34,21.34,0,0,1-6.44,2.51l-0.65-1a24.56,24.56,0,0,0,5.53-1.89,5.5,5.5,0,0,0,2.82-2.84H21.77v-1h7.91a6.07,6.07,0,0,0,.22-1.61l1.11,0a9.57,9.57,0,0,1-.17,1.57h8.35v1Zm0.57-3.25H21.14V60.57h8.73v-2H22.94v-1h6.94V55.69H22.08v-1H38.8v1H31v1.92h7v1H31v2h8.77v1.07ZM28.35,53.7l-1,.65a9.34,9.34,0,0,0-2.22-1.67L26.18,52A8.92,8.92,0,0,1,28.35,53.7ZM39.59,69.79l-0.69.9A41,41,0,0,0,31.16,67l0.59-.92A41.36,41.36,0,0,1,39.59,69.79Zm-4.2-17.11a10.63,10.63,0,0,1-2.31,1.67l-1-.65a10.34,10.34,0,0,0,2.35-1.64Z"/><path class="cls-2" d="M60.19,70.58H59.13V69.11H44.62v1.43H43.5V52.62H60.19v18Zm-1.07-2.51V53.66H44.62V68.07H59.13Zm-7.06-3.22a48.92,48.92,0,0,1-6.45,1.46l-0.15-1a43.31,43.31,0,0,0,6.5-1.4Zm6.35-.56a8.16,8.16,0,0,1-.71,1.92,3.13,3.13,0,0,1-.71,1,1.32,1.32,0,0,1-.76.19q-1,0-2-2.17a15.06,15.06,0,0,1-2.34,2.2l-0.86-.75a11.19,11.19,0,0,0,2.67-2.58,24.43,24.43,0,0,1-1.27-6.59h-7v-1h6.86q-0.05-1,0-2.2h1.08q0,0.9,0,2.2h4.72v1H53.49a23.94,23.94,0,0,0,1,5.52,24.18,24.18,0,0,0,2.12-4.27l1,0.42a27.21,27.21,0,0,1-2.63,5,7.54,7.54,0,0,0,.74,1.46,1.22,1.22,0,0,0,.54.56q0.5,0,1.24-2.5Zm-7.29-1.07H46.48V59.16h4.65v4.06ZM50,62.16v-2h-2.5v2H50Zm7-6.42-0.94.44A7.76,7.76,0,0,0,55,54.75l0.92-.5A6.12,6.12,0,0,1,57,55.74Z"/><path class="cls-2" d="M67.1,64.58a17.13,17.13,0,0,1-2.43,4.31l-0.94-.64a17,17,0,0,0,2.39-4.15Zm6.53-1.68H69.3v7.71H68.23V62.9H63.87v-1h4.37V59.83H64.11v-1h2.61a17,17,0,0,0-1.12-3.12l0.75-.5h-2.1V54.08h3.94a7.71,7.71,0,0,0-.9-1.52l1-.44a11.23,11.23,0,0,1,1.1,2h3.74v1.09H71.44l0.79,0.48a29.63,29.63,0,0,1-1.33,3.14H73.4v1H69.3v2.06h4.32v1Zm-2.51-7.73H66.67a23.26,23.26,0,0,1,1.22,3.62h1.8A19.3,19.3,0,0,0,71.12,55.17ZM73,66.93l-1,.58a21.23,21.23,0,0,0-1.47-3l0.9-.5A17.57,17.57,0,0,1,73,66.93ZM82.38,60H80.07V70.63H79V60H75.79q0,7-2.72,10.65L72.17,70a14,14,0,0,0,2-4.14,21.37,21.37,0,0,0,.59-5.58V54a21.53,21.53,0,0,0,6.58-1.79l0.84,0.86a24.25,24.25,0,0,1-6.35,1.84V59h6.57v1Z"/><path class="cls-2" d="M103.9,59.14l-0.32,1.1a64.53,64.53,0,0,1-9.23-.34,11.44,11.44,0,0,1-4.72-1.82A17.07,17.07,0,0,1,86,60.9l-0.75-.84A12.07,12.07,0,0,0,90.44,55l0.94,0.48a7.24,7.24,0,0,1-1.1,1.76A9.43,9.43,0,0,0,94,58.72V53.78H86.08v-1h17.31a16.73,16.73,0,0,1-1,3l-1.05-.3a11.55,11.55,0,0,0,.61-1.72H95.15V56h5.61v1H95.15v1.92a40.56,40.56,0,0,0,5.41.33Q102,59.22,103.9,59.14Zm-0.32,11.14-0.92.63q-0.78-1.16-.94-1.34-8.85.63-15.17,0.56l-0.32-1.07q1,0,2.4,0,3,0,5.41-.11V66.32H87.51V61.8H94V60.59h1.13V61.8h6.51v4.52H95.17v2.58q4.16-.13,5.78-0.34a9.65,9.65,0,0,0-1-1l0.88-.66A15.7,15.7,0,0,1,103.57,70.27Zm-9.54-5V62.86H88.67v2.41H94Zm6.5,0V62.86H95.17v2.41h5.37Z"/><path class="cls-2" d="M125.29,70.06H106.68v-1H110V57.41h4.43a15.4,15.4,0,0,0,.83-2H107v-1h8.58q0.5-1.52.67-2.24l1.07,0.24q-0.39,1.48-.55,2H125v1h-8.53q-0.23.63-.79,2H122V69.07h3.31v1Zm-4.47-9.68v-2h-9.69v2h9.69Zm0,2.88v-2h-9.69v2h9.69Zm0,2.91v-2h-9.69v2h9.69Zm0,2.9v-2h-9.69v2h9.69Z"/><path class="cls-2" d="M133.87,65.36h-3.25l0.59,0.48a19.41,19.41,0,0,1-2.35,4.79L128.07,70a25.34,25.34,0,0,0,2.21-4.59h-1.35V52.94h4.94V65.36Zm-1-8.67V53.91H130v2.78h2.82Zm0,3.75V57.69H130v2.75h2.82Zm0,3.93V61.47H130v2.89h2.82Zm1.49,5-0.92.42a20.5,20.5,0,0,0-1.43-3.2l0.94-.42A20.45,20.45,0,0,1,134.32,69.33ZM146.77,67h-1.45v2.1a1.49,1.49,0,0,1-.26.93,1.24,1.24,0,0,1-.66.45,6.94,6.94,0,0,1-1.57.11q-0.58,0-1.09,0l-0.41-1.07,2.39,0a0.51,0.51,0,0,0,.56-0.58V67h-7.12v3.64h-1V67H134.4V66h1.73v-5h4V59.52h-5.45v-0.9h3.17V57h-2.29V56.07h2.29v-1.4h-3V53.74h3V52.2h1v1.54h3.53V52.2h1.05v1.54h2.95v0.92h-2.95v1.4h2.25V57h-2.25v1.62h3.27v0.9h-5.54v1.58h4.13v5h1.45V67Zm-6.65-3.37V62.06h-2.95V63.6h2.95Zm0,2.45V64.56h-2.95V66h2.95Zm2.29-10v-1.4h-3.53v1.4h3.53Zm0,2.54V57h-3.53v1.62h3.53Zm1.89,5V62.06h-3.1V63.6h3.1Zm0,2.45V64.56h-3.1V66h3.1Z"/><path class="cls-2" d="M157.75,55.25L157,56a17.39,17.39,0,0,0-2.86-2.35q-0.54.6-1.73,1.83h3.47v1h-3.57V55.67A29.24,29.24,0,0,1,150,57.55l-0.57-1a14.38,14.38,0,0,0,4.51-4.47l1,0.32a3.26,3.26,0,0,1-.24.46A23.42,23.42,0,0,1,157.75,55.25ZM158,69.93l-1,.56q-0.56-1.32-.75-1.68-2,.71-5.23,1.74l-0.47-.92a1,1,0,0,0,.43-0.94V57.75h6.25V64.5H152v4.59a38.81,38.81,0,0,0,3.76-1.16,19.5,19.5,0,0,0-1.13-1.85l0.94-.5A31.55,31.55,0,0,1,158,69.93Zm-1.86-9.38V58.83H152v1.72h4.11Zm0,2.87V61.58H152v1.85h4.11Zm11.81-6.21h-1.1V55.34h-7.33v1.87h-1.05v-2.9h4.14q-0.33-.72-1-1.83l1-.46a15,15,0,0,1,1.17,2.29h4.14v2.9ZM167.2,69.37h-6.82v1.17h-1.1V57.81h7.17v4.6h-6.07v2.1h6.82v4.85Zm-1.84-8V58.85h-5v2.51h5Zm0.75,6.93V65.57h-5.74v2.73h5.74Z"/><ellipse class="cls-2" cx="22.78" cy="22.85" rx="18.56" ry="18.22"/><path class="cls-1" d="M18.49,28.94a0.14,0.14,0,0,0-.08-0.11l-0.6-.28a0.15,0.15,0,0,0-.14,0,4.86,4.86,0,0,1-2.51.66,4.56,4.56,0,0,1-3.57-1.56,4.87,4.87,0,0,1-1-4.14c0.61-3.23,2.64-5.85,4.52-5.85a3.08,3.08,0,0,1,2,.92,0.14,0.14,0,0,0,.19,0l0.43-.37a0.14,0.14,0,0,0,.05-0.1,0.14,0.14,0,0,0,0-.11,4,4,0,0,0-2.63-1.19c-2.32,0-4.67,2.88-5.37,6.55a5.69,5.69,0,0,0,1.14,4.84,5.42,5.42,0,0,0,4.23,1.86,5.63,5.63,0,0,0,3.27-1A0.14,0.14,0,0,0,18.49,28.94Z"/><path class="cls-1" d="M37.63,22.91a4.15,4.15,0,0,0-3.11-1.79H30.91l-5.74-7.37a0.42,0.42,0,0,0-.33-0.16H23.37a0.42,0.42,0,0,0-.33.16,0.4,0.4,0,0,0-.06.36l2.28,7.48-3.94.14L19,19.39a0.42,0.42,0,0,0-.29-0.12h-1a0.41,0.41,0,0,0-.35.19,0.4,0.4,0,0,0,0,.39l1.72,3.59-1.48,3.27a0.4,0.4,0,0,0,0,.32,0.41,0.41,0,0,0,.23.22l0.88,0.33a0.43,0.43,0,0,0,.43-0.09l2.35-2.19,3.66,0.07c-0.31,1.18-1.34,4.59-2.2,7.39a0.4,0.4,0,0,0,.06.36,0.42,0.42,0,0,0,.33.16h1.47a0.42,0.42,0,0,0,.33-0.16l5.79-7.45h3.61a3.58,3.58,0,0,0,3.16-2.42A0.4,0.4,0,0,0,37.63,22.91Zm-11.1,6h0.84l-2.79,3.6H23.88C26.17,25,26.12,24.95,26,24.74a0.42,0.42,0,0,0-.33-0.16l-4.31-.08h0a0.48,0.48,0,0,0-.27.11l-2.29,2.13-0.23-.09,1.38-3.05a0.4,0.4,0,0,0,0-.34l-1.53-3.18H18.5l2.35,2.35a0.41,0.41,0,0,0,.31.12h0l4.65-.16a0.42,0.42,0,0,0,.32-0.17,0.4,0.4,0,0,0,.06-0.35L23.92,14.4h0.71L27.43,18H26.34a0.4,0.4,0,1,0,0,.81h1.72l2.31,3a0.42,0.42,0,0,0,.33.16h2.42a2.56,2.56,0,0,1,.79,1.8A1.64,1.64,0,0,1,33,24.86H30.71a0.42,0.42,0,0,0-.33.16L28,28.07H26.54A0.4,0.4,0,1,0,26.54,28.88Zm8.2-5a2.8,2.8,0,0,0-.56-1.91H34.5a3.44,3.44,0,0,1,2.32,1.25,2.63,2.63,0,0,1-2.3,1.68H34.25A2,2,0,0,0,34.73,23.84Z"/><path class="cls-1" d="M18.14,16h4.53a0.4,0.4,0,1,0,0-.81H18.14A0.4,0.4,0,1,0,18.14,16Z"/><path class="cls-1" d="M22.67,16.7H20.11a0.4,0.4,0,1,0,0,.81h2.56A0.4,0.4,0,1,0,22.67,16.7Z"/><path class="cls-1" d="M22.67,18.24H21A0.4,0.4,0,1,0,21,19h1.72A0.4,0.4,0,1,0,22.67,18.24Z"/><path class="cls-1" d="M23.08,31.3a0.41,0.41,0,0,0-.41-0.4H18.14a0.4,0.4,0,1,0,0,.81h4.53A0.41,0.41,0,0,0,23.08,31.3Z"/><path class="cls-1" d="M19.7,29.75a0.41,0.41,0,0,0,.41.4h2.56a0.4,0.4,0,1,0,0-.81H20.11A0.41,0.41,0,0,0,19.7,29.75Z"/><path class="cls-1" d="M22.67,28.61a0.4,0.4,0,1,0,0-.81H21a0.4,0.4,0,1,0,0,.81h1.72Z"/><path class="cls-1" d="M17.77,22.78a0.36,0.36,0,0,0-.31-0.21L16,22.51l-0.76-1.19a0.36,0.36,0,0,0-.3-0.17h0a0.36,0.36,0,0,0-.3.23l-0.5,1.32L12.74,23a0.36,0.36,0,0,0-.26.27,0.35,0.35,0,0,0,.13.35l1.12,0.87-0.1,1.4a0.35,0.35,0,0,0,.18.33,0.36,0.36,0,0,0,.38,0l1.19-.78L16.7,26a0.39,0.39,0,0,0,.15,0h0a0.36,0.36,0,0,0,.26-0.11,0.35,0.35,0,0,0,.1-0.25,0.35,0.35,0,0,0,0-.17L16.8,24.22l0.92-1.08A0.35,0.35,0,0,0,17.77,22.78Zm-3.45,1.31-0.7-.54,0.87-.21a0.36,0.36,0,0,0,.25-0.22L15,22.3,15.52,23a0.36,0.36,0,0,0,.29.17l0.89,0-0.57.67a0.35,0.35,0,0,0-.07.32l0.24,0.84-0.83-.33a0.37,0.37,0,0,0-.33,0l-0.74.48,0.06-.87A0.35,0.35,0,0,0,14.32,24.09Z"/></svg>