<svg id="圖層_1" data-name="圖層 1" xmlns="http://www.w3.org/2000/svg" viewBox="0 0 125 25"><defs><style>.cls-1{fill:none;}.cls-2{fill:#e25b0f;}.cls-3{fill:#e7702a;}.cls-4{fill:#fff;}</style></defs><title>icons_nav</title><rect class="cls-1" width="125" height="25"/><path class="cls-2" d="M7,18.27H5.27v2H4.78v-2h-2V17.82h2v-2h0.5v2H7v0.45ZM7,21.8H5.23a1.94,1.94,0,0,1-.1.46A7,7,0,0,1,6.65,23.4l-0.33.37a7,7,0,0,0-1.32-1,4.21,4.21,0,0,1-1.72,1.76l-0.41-.35A3.06,3.06,0,0,0,4.72,21.8H2.82V21.33H4.75V20.52H5.27v0.29a4.32,4.32,0,0,1,0,.52H7V21.8ZM4.37,18.92a5.09,5.09,0,0,1-1.06,1.59l-0.4-.3a7,7,0,0,0,1-1.5ZM4.25,17.25l-0.44.23a7.1,7.1,0,0,0-.7-1.25L3.56,16A7.23,7.23,0,0,1,4.25,17.25Zm2.28,3.61-0.39.22a6.55,6.55,0,0,0-.54-0.57L6,20.26A3.56,3.56,0,0,1,6.53,20.86ZM6.93,20l-0.42.27A8.66,8.66,0,0,0,5.69,19l0.42-.26A8,8,0,0,1,6.93,20ZM6.84,16.23a5,5,0,0,1-.68,1.18l-0.44-.25A4.65,4.65,0,0,0,6.38,16Zm4.54,0.24H9.52a11.37,11.37,0,0,1-.3,1.19h1.7v4.78H8.64L9,22.77A6.47,6.47,0,0,1,7.31,24.4L7,24A5.5,5.5,0,0,0,8.6,22.43H7.48V17.66H8.69A8.3,8.3,0,0,0,9,16.47H7V16h4.33v0.45Zm-1,2.53V18.11H8V19h2.42Zm0,1.42V19.51H8v1h2.45Zm0,1.51v-1H8v1h2.42ZM11.37,24L11,24.45a6.32,6.32,0,0,0-1.59-1.31l0.29-.36a5.52,5.52,0,0,1,1.67,1.29v0Z"/><path class="cls-2" d="M17.72,20.44V22.5a7.83,7.83,0,0,1-.11,1.24,0.85,0.85,0,0,1-.23.4,0.92,0.92,0,0,1-.36.21,3.17,3.17,0,0,1-.78.06H15.52l-0.18-.52h1.25a0.5,0.5,0,0,0,.5-0.35,12.85,12.85,0,0,0,.11-2.61H14.93a6.17,6.17,0,0,1-1.71,3.49L12.87,24q1.73-1.63,1.67-5H13.62V16H17.7v3H15.07A12.79,12.79,0,0,1,15,20.44h2.72Zm-0.53-2v-2H14.13v2h3.06Zm2.19,4.11H18.89V16.46h0.48v6.09Zm1.92,1.07a0.72,0.72,0,0,1-.66.77h-1.5l-0.21-.51h1.6a0.22,0.22,0,0,0,.18-0.12,0.4,0.4,0,0,0,.08-0.22V15.78H21.3v7.84Z"/><path class="cls-3" d="M21.59,0.9H2.5a0.8,0.8,0,0,0-.85.73,0.8,0.8,0,0,0,.85.73H21.6a0.8,0.8,0,0,0,.85-0.73A0.8,0.8,0,0,0,21.59.9Z"/><path class="cls-3" d="M21.59,5.84H2.5a0.8,0.8,0,0,0-.85.73,0.8,0.8,0,0,0,.85.73H21.6a0.8,0.8,0,0,0,.85-0.73A0.8,0.8,0,0,0,21.59,5.84Z"/><path class="cls-3" d="M21.59,10.79H2.5a0.8,0.8,0,0,0-.85.73,0.8,0.8,0,0,0,.85.73H21.6a0.8,0.8,0,0,0,.85-0.73A0.8,0.8,0,0,0,21.59,10.79Z"/><path class="cls-3" d="M48.68,21.53L43.4,16.25a9.72,9.72,0,1,0-2.26,2.26l5.28,5.28a1.07,1.07,0,0,0,.75.32,0.91,0.91,0,0,0,.65-0.27l0.91-.91A1,1,0,0,0,48.68,21.53ZM40.33,17.7a8.49,8.49,0,1,1,1.55-1.36l-0.32.33L41.23,17A8.63,8.63,0,0,1,40.33,17.7Zm6.82,5.21L42,17.79l0.33-.32,0.32-.33,5.11,5.11Z"/><path class="cls-3" d="M67,13a6.9,6.9,0,1,0-9,0,7,7,0,0,0,1,.73,6.88,6.88,0,0,0,7,0,10.53,10.53,0,0,1,6.91,8.6,0.64,0.64,0,0,1-.48.77H52.54a0.57,0.57,0,0,1-.48-0.63A10.51,10.51,0,0,1,56.48,15h0a0.47,0.47,0,0,0,.11-0.14V14.81h0a0.51,0.51,0,0,0-.06-0.48A0.52,0.52,0,0,0,56,14.12h0a1.88,1.88,0,0,0-.35.23h0A11.53,11.53,0,0,0,51,23.6a0.52,0.52,0,0,0,.52.52h22A0.52,0.52,0,0,0,74,23.6,11.56,11.56,0,0,0,67,13Zm-1.15-.42A5.85,5.85,0,1,1,68.34,7.8a5.85,5.85,0,0,1-2.49,4.78Z"/><path class="cls-3" d="M83,17.83H95.8a0.49,0.49,0,0,0,.46-0.33l3.2-9.28a0.49,0.49,0,0,0-.93-0.32h0l-2.94,8.53h0a0.81,0.81,0,0,1-.6.43H82.88a0.68,0.68,0,0,1-.62-0.43h0l-3-13A0.49,0.49,0,0,0,78.75,3H75.82a0.5,0.5,0,0,0,0,1h2.26a0.34,0.34,0,0,1,.34.24h0l3.47,14.87A2.33,2.33,0,1,0,85,20.33l-0.06-.13h0a0.2,0.2,0,0,1,.21-0.31h7.47a0.23,0.23,0,0,1,.19.31h0a2.3,2.3,0,0,0-.25,1,2.33,2.33,0,1,0,3.74-1.84h0a1.84,1.84,0,0,0-.88-0.47H83.27a0.42,0.42,0,0,1-.47-0.23h0l-0.12-.51h0a0.28,0.28,0,0,1,.23-0.32H83ZM94.85,19.9a1.35,1.35,0,1,1-1.35,1.35h0A1.35,1.35,0,0,1,94.85,19.9ZM84.17,21.25a1.35,1.35,0,1,1-1.35-1.35h0A1.35,1.35,0,0,1,84.17,21.25Z"/><path class="cls-4" d="M108,17.83h12.8a0.49,0.49,0,0,0,.46-0.33l3.2-9.28a0.49,0.49,0,0,0-.93-0.32h0l-2.94,8.53h0a0.81,0.81,0,0,1-.6.43H107.88a0.68,0.68,0,0,1-.62-0.43h0l-3-13A0.49,0.49,0,0,0,103.75,3h-2.93a0.5,0.5,0,0,0,0,1h2.26a0.34,0.34,0,0,1,.34.24h0l3.47,14.87A2.33,2.33,0,1,0,110,20.33l-0.06-.13h0a0.2,0.2,0,0,1,.21-0.31h7.47a0.23,0.23,0,0,1,.19.31h0a2.3,2.3,0,0,0-.25,1,2.33,2.33,0,1,0,3.74-1.84h0a1.84,1.84,0,0,0-.88-0.47h-12.1a0.42,0.42,0,0,1-.47-0.23h0l-0.12-.51h0a0.28,0.28,0,0,1,.23-0.32H108Zm11.85,2.07a1.35,1.35,0,1,1-1.35,1.35h0A1.35,1.35,0,0,1,119.85,19.9Zm-10.68,1.35a1.35,1.35,0,1,1-1.35-1.35h0A1.35,1.35,0,0,1,109.17,21.25Z"/></svg>