<svg id="圖層_7" data-name="圖層 7" xmlns="http://www.w3.org/2000/svg" xmlns:xlink="http://www.w3.org/1999/xlink" viewBox="0 0 130 60"><defs><style>.cls-1{fill:none;}.cls-2{fill:#698eb8;}.cls-3{fill:#fff;}.cls-4{fill:#f7a574;}.cls-5{clip-path:url(#clip-path);}</style><clipPath id="clip-path"><rect class="cls-1" x="70" width="60" height="60" rx="30" ry="30"/></clipPath></defs><title>手機版_我的帳戶_問答中心_20160316_V1.0</title><rect class="cls-2" width="60" height="60" rx="30" ry="30"/><path class="cls-3" d="M37.58,30a11.53,11.53,0,1,0-1.69,1.22A17.65,17.65,0,0,1,47.46,45.65a1.07,1.07,0,0,1-1,1.3H13.31a1,1,0,0,1-.8-1.06,17.61,17.61,0,0,1,7.4-12.47h0a0.8,0.8,0,0,0,.18-0.24l0-.09,0,0h0a0.86,0.86,0,0,0-.1-0.8,0.87,0.87,0,0,0-.89-0.35h0l-0.06,0-0.08,0L19,32a3.16,3.16,0,0,0-.58.39h0a19.32,19.32,0,0,0-7.76,15.47,0.88,0.88,0,0,0,.88.88H48.47a0.88,0.88,0,0,0,.87-0.88A19.38,19.38,0,0,0,37.58,30Zm-1.93-.71a9.8,9.8,0,1,1,4.17-8A9.74,9.74,0,0,1,35.64,29.32Z"/><rect class="cls-4" x="70" width="60" height="60" rx="30" ry="30"/><g class="cls-5"><path class="cls-3" d="M100.71,47.24a4.06,4.06,0,0,0,4.24-3.87H96.47A4.06,4.06,0,0,0,100.71,47.24Z"/><ellipse class="cls-3" cx="100.71" cy="57.26" rx="1.47" ry="1.34"/><path class="cls-3" d="M121.08,43.75C118.37,30.46,109.27,20,100.35,20c-4.35,0-8.91,2.52-12.83,7.09a37.25,37.25,0,0,0-7.89,16.61c-1.35,6.63.21,12.81,4.4,17.41,3.92,4.31,9.72,6.68,16.32,6.68s12.4-2.37,16.32-6.68C120.86,56.56,122.43,50.38,121.08,43.75ZM100.35,22.12c7.65,0,15.85,9.69,18.41,21.66a2.57,2.57,0,0,1-1.55,2.83c-14.53,7.3-28.74,1.92-33.58-.37A2.75,2.75,0,0,1,82.12,43C84.86,31.39,92.87,22.12,100.35,22.12Zm8.11,29.52v3.79l-5-3.19A38,38,0,0,0,108.46,51.65Zm-10.57.5L93,54.82V51.44l0.24,0A42.54,42.54,0,0,0,97.89,52.15Zm17,7.68c-3.48,3.82-8.66,5.93-14.57,5.93s-11.09-2.11-14.57-5.93a16.66,16.66,0,0,1-4.31-10.36c0-.39.13-1.88,2-1.11h0A45.55,45.55,0,0,0,90.87,51v5.53a0.94,0.94,0,0,0,.53.83,1.13,1.13,0,0,0,1,0l8.26-4.47L108.91,58a1.13,1.13,0,0,0,1.08.06,1,1,0,0,0,.56-0.84V51.19a36.9,36.9,0,0,0,6.82-2.43h0s1.84-.54,1.84,1A16.62,16.62,0,0,1,114.92,59.83Z"/><circle class="cls-3" cx="92.69" cy="38" r="1.22"/><circle class="cls-3" cx="108.25" cy="38" r="1.22"/><path class="cls-3" d="M124.76,35.11a7.35,7.35,0,0,0-5.92-5.05,19.11,19.11,0,0,0-37,0,7.36,7.36,0,0,0-1.4,14.32l4.44-14A7.37,7.37,0,0,0,83.63,30a17.45,17.45,0,0,1,33.42,0,7.38,7.38,0,0,0-1.52.31l3.56,11.27a6.42,6.42,0,0,1-6.24,2.59,2.28,2.28,0,1,0-.43,1.34,9,9,0,0,0,1.43.13,7.79,7.79,0,0,0,5.73-2.52L120,44.34A7.36,7.36,0,0,0,124.76,35.11Z"/></g></svg>
