<svg id="浮動按鈕" xmlns="http://www.w3.org/2000/svg" viewBox="0 0 42 16"><defs><style>.cls-1{fill:none;stroke:#fff;stroke-linecap:round;stroke-linejoin:round;stroke-width:2px;}.cls-2{fill:#fff;}</style></defs><title>floatBtnIcon</title><polyline class="cls-1" points="22.52 13.47 31.59 3.47 40.52 13.47"/><path class="cls-2" d="M18.48,0.49H1.9a0.71,0.71,0,0,0-.71.7V12a0.71,0.71,0,0,0,.71.7H8v2H6.71a0.39,0.39,0,1,0,0,.78h7a0.39,0.39,0,1,0,0-.78H12.35v-2h6.12a0.71,0.71,0,0,0,.71-0.7V1.19A0.71,0.71,0,0,0,18.48.49ZM11.56,14.71H8.82v-2h2.74v2ZM2.61,11.9A0.57,0.57,0,0,1,2,11.34V1.79a0.73,0.73,0,0,1,.81-0.52h14.8a0.73,0.73,0,0,1,.8.66v9.29a0.73,0.73,0,0,1-.81.68h-15Z"/><path class="cls-2" d="M16.69,2.43h-13a0.3,0.3,0,0,0-.29.31V9.16a0.3,0.3,0,0,0,.29.31h13A0.3,0.3,0,0,0,17,9.16V2.74A0.3,0.3,0,0,0,16.69,2.43ZM4.51,8.85A0.57,0.57,0,0,1,4,8.25V3.58A0.58,0.58,0,0,1,4.64,3H15.87a0.52,0.52,0,0,1,.53.53V8.25a0.7,0.7,0,0,1-.73.6H4.51Z"/><ellipse class="cls-2" cx="10.19" cy="10.69" rx="0.54" ry="0.53"/></svg>
