<svg id="紅利折抵" xmlns="http://www.w3.org/2000/svg" viewBox="0 0 100 20"><defs><style>.cls-1{opacity:0.6;}.cls-2{fill:#3a5b9f;}.cls-3{fill:#fff;}</style></defs><title>銀行優惠_20160318_V1_C6</title><g class="cls-1"><path d="M55,7.37a5,5,0,0,0-9.83,0,3.32,3.32,0,0,0,.71,6.56,0.32,0.32,0,0,0,.32-0.32v-6a0.32,0.32,0,0,0-.32-0.32H45.84a4.42,4.42,0,0,1,8.52,0h0a0.32,0.32,0,0,0-.32.32v6a0.32,0.32,0,0,0,.2.3,3.38,3.38,0,0,1-2.85,1.23s0,0,0-.07a1.51,1.51,0,1,0-.17.7l0.38,0A4.17,4.17,0,0,0,55,13.85a3.32,3.32,0,0,0,0-6.48m-11.8,3.24A2.68,2.68,0,0,1,45,8.07a0.44,0.44,0,0,1,.55.41v4.21c0,0.52-.31.52-0.5,0.47a2.68,2.68,0,0,1-1.86-2.55m7.26,5a0.87,0.87,0,1,1,.23-0.6h0a0.87,0.87,0,0,1-.23.59m4.86-2.56h0a0.5,0.5,0,0,1-.71-0.39V8.27c0-.13.12-0.31,0.58-0.19a2.68,2.68,0,0,1,.13,5"/></g><g class="cls-1"><path d="M70.18,10.74A1.23,1.23,0,0,0,71.41,9.5H68.94A1.23,1.23,0,0,0,70.18,10.74Z"/><path d="M75.16,8.14C74.24,4.61,72.4,2.59,70.1,2.59c-2.65,0-4.38,1.91-5.15,5.68l-0.05.24c-0.09.41-.25,1.12-0.38,1.91a0.29,0.29,0,0,0,0,.11l0,0.19a12.21,12.21,0,0,0-.16,1.76c0,2.72,2.6,4.94,5.79,4.94s5.59-2,5.79-4.92A13.62,13.62,0,0,0,75.16,8.14Zm-9.68.5,0.05-.25c0.7-3.45,2.24-5.19,4.56-5.19,2,0,3.65,1.91,4.48,5.1,0.22,0.86.39,1.53,0.51,2.08a8.5,8.5,0,0,1-6.88,1.24,10.6,10.6,0,0,1-3.07-1.24C65.26,9.66,65.4,9,65.48,8.64Zm7.07,3.54v1.29l-1.5-1A9,9,0,0,0,72.55,12.18Zm-3.08.25L68,13.28V12.2h0A10.11,10.11,0,0,0,69.47,12.43Zm5.81,0C75.11,15,73,16.8,70.1,16.8s-5.18-1.94-5.18-4.33A10.83,10.83,0,0,1,65,11a11.22,11.22,0,0,0,2.4,1v1.77a0.3,0.3,0,0,0,.46.26l2.4-1.42,2.39,1.66a0.3,0.3,0,0,0,.17.05,0.3,0.3,0,0,0,.14,0,0.3,0.3,0,0,0,.16-0.27V12a9.33,9.33,0,0,0,2-1A6.16,6.16,0,0,1,75.28,12.46Z"/><circle cx="70.3" cy="13.93" r="0.43"/><circle cx="70.3" cy="15.41" r="0.43"/></g><path class="cls-2" d="M15.86,3H4.14A1.18,1.18,0,0,0,3,4.14V15.86A1.18,1.18,0,0,0,4.14,17H15.86A1.18,1.18,0,0,0,17,15.86V4.14A1.18,1.18,0,0,0,15.86,3Z"/><path id="f" class="cls-3" d="M12.05,10.29l0.29-1.47H10.88V7.66c0-.44.23-0.59,0.88-0.59h0.59V5.6H11.17A1.89,1.89,0,0,0,9.12,7.66V8.83H7.66v1.47H9.12v4.1h1.76v-4.1h1.17Z"/><g class="cls-1"><path d="M97,3.56H83.12a0.6,0.6,0,0,0-.6.6v9.27a0.6,0.6,0,0,0,.6.6h5.14v1.75h-1.1a0.33,0.33,0,0,0,0,.67H93a0.33,0.33,0,0,0,0-.67H91.9V14H97a0.6,0.6,0,0,0,.6-0.6V4.16A0.6,0.6,0,0,0,97,3.56ZM91.23,15.78H88.93V14h2.31v1.75Zm-7.52-2.42a0.48,0.48,0,0,1-.53-0.48V4.67a0.61,0.61,0,0,1,.68-0.45H96.3a0.62,0.62,0,0,1,.67.56v8a0.62,0.62,0,0,1-.68.59H83.72Z"/><path d="M95.54,5.22H84.64a0.26,0.26,0,0,0-.25.27V11a0.26,0.26,0,0,0,.25.27h10.9A0.26,0.26,0,0,0,95.79,11V5.49A0.26,0.26,0,0,0,95.54,5.22ZM85.31,10.74a0.49,0.49,0,0,1-.43-0.52v-4a0.5,0.5,0,0,1,.53-0.46h9.44a0.44,0.44,0,0,1,.44.46v4a0.6,0.6,0,0,1-.61.52H85.31Z"/><circle cx="90.08" cy="12.32" r="0.45"/></g><g class="cls-1"><path d="M38.93,15.77l-3.15-2.42a5.15,5.15,0,1,0-4.58,2.79,5.11,5.11,0,0,0,3.57-1.43l3.13,2.4a0.57,0.57,0,0,0,.35.12A0.49,0.49,0,0,0,38.64,17l0.42-.54A0.53,0.53,0,0,0,38.93,15.77ZM35,13.5l-0.15.21-0.14.18-0.2.23-0.22.21a4.55,4.55,0,1,1-.35-7A4.55,4.55,0,0,1,35.3,13l-0.14.27Zm3.22,3.09-3-2.34,0.14-.18,0.15-.21,3,2.34Z"/><path d="M31.85,7.27a4.27,4.27,0,0,0-3.63,1.89,0.3,0.3,0,0,0,.51.33,3.74,3.74,0,0,1,3.09-1.62A0.3,0.3,0,0,0,31.85,7.27Z"/><path d="M29.81,16.39a0.74,0.74,0,0,0-.45,0h0a5.81,5.81,0,0,1-2.37.49h0A5.36,5.36,0,0,1,22.77,15a5.94,5.94,0,0,1-1.13-5c0.72-3.85,3.12-7,5.36-7a4.59,4.59,0,0,1,3.37,2.22,0.88,0.88,0,0,0,.77-0.06C30,3.51,28.47,2.42,27,2.42a5,5,0,0,0-3.72,2.25A12.33,12.33,0,0,0,21,9.94a6.59,6.59,0,0,0,1.27,5.53A6,6,0,0,0,27,17.58h0a6.29,6.29,0,0,0,3.34-.91A0.76,0.76,0,0,0,29.81,16.39Z"/></g></svg>
