<?xml version="1.0" encoding="utf-8"?>
<!-- Generator: Adobe Illustrator 19.2.0, SVG Export Plug-In . SVG Version: 6.00 Build 0)  -->
<svg version="1.1" id="Layer_1" xmlns="http://www.w3.org/2000/svg" xmlns:xlink="http://www.w3.org/1999/xlink" x="0px" y="0px"
	 viewBox="0 0 400 156" style="enable-background:new 0 0 400 156;" xml:space="preserve">
<style type="text/css">
	.st0{fill:none;}
	.st1{fill:url(#SVGID_1_);}
	.st2{fill:url(#SVGID_2_);}
	.st3{fill:url(#SVGID_3_);}
	.st4{fill:#001856;}
	.st5{fill:url(#SVGID_4_);}
	.st6{fill:url(#SVGID_5_);}
	.st7{fill:url(#SVGID_6_);}
</style>
<g>
	<g>
		<g>
			<g>
				<g>
					<path class="st0" d="M80.9,51.6c8.4-11.8,21.4-22.4,34.9-28.7c0,0-0.1,0-0.1-0.1C102.2,29.2,89.3,39.8,80.9,51.6z"/>
					<radialGradient id="SVGID_1_" cx="70.2937" cy="76.6016" r="51.9789" gradientUnits="userSpaceOnUse">
						<stop  offset="0.2708" style="stop-color:#FFFFFF"/>
						<stop  offset="0.4843" style="stop-color:#FDFDFD"/>
						<stop  offset="0.6883" style="stop-color:#F3F3F2"/>
						<stop  offset="0.888" style="stop-color:#E2E1E0"/>
						<stop  offset="1" style="stop-color:#D5D5D2"/>
					</radialGradient>
					<path class="st1" d="M73.8,55.1c8.7-14,24.1-26.9,40.1-33.5c-22.7-13.7-61.6,8.2-77.6,34c-16.2,26-11,58.9,11.6,73.4
						c13.1,8.4,29.1,8.8,43.4,2.6c-2-0.9-4-1.9-5.9-3.1C62.7,114,57.5,81.1,73.8,55.1z"/>
					<radialGradient id="SVGID_2_" cx="112.9347" cy="76.223" r="52.0859" gradientUnits="userSpaceOnUse">
						<stop  offset="0.19" style="stop-color:#FFEC00"/>
						<stop  offset="0.4033" style="stop-color:#FBCD00"/>
						<stop  offset="0.8859" style="stop-color:#ED7103"/>
						<stop  offset="1" style="stop-color:#EA5608"/>
					</radialGradient>
					<path class="st2" d="M114.6,113.3c-9.6-16.5-9.3-39.3,2.7-58.4c2.9-4.7,6.6-9.3,10.9-13.6c8.2-8.2,18.3-15.3,28.7-19.7
						c0,0,0,0,0,0c-5.7-3.7-12.5-5-19.7-4.5c-6.8,0.5-14.1,2.6-21.1,5.8c-13.6,6.3-26.5,16.9-34.9,28.7c-0.8,1.1-1.6,2.3-2.3,3.5
						c-16.2,26.1-11,58.9,11.6,73.4c1.2,0.7,2.3,1.4,3.5,2c5.7,2.9,11.8,4.5,18,4.7c-0.6,0-1.2,0.1-1.8,0.1c0.5,0,1.1,0.1,1.7,0.1
						c7.5,0.3,15.1-1.2,22.2-4.3c-1.7-0.8-3.4-1.7-5.1-2.8C122.8,124.5,118,119.3,114.6,113.3z"/>
					<radialGradient id="SVGID_3_" cx="164.6585" cy="75.8518" r="55.7552" gradientUnits="userSpaceOnUse">
						<stop  offset="0.2708" style="stop-color:#FFFFFF"/>
						<stop  offset="0.4843" style="stop-color:#FDFDFD"/>
						<stop  offset="0.6883" style="stop-color:#F3F3F2"/>
						<stop  offset="0.888" style="stop-color:#E2E1E0"/>
						<stop  offset="1" style="stop-color:#D5D5D2"/>
					</radialGradient>
					<path class="st3" d="M200.3,21.2c-5.7-3.7-12.5-5-19.7-4.5c-7.1,0.5-14.6,2.7-22,6.2c-11,5.2-21.5,13.2-29.4,22.4
						c-2.7,3.1-5.1,6.3-7.1,9.5c-11,17.7-12.1,38.4-4.7,54.5c3.5,7.6,9,14.2,16.3,18.9c0.9,0.6,1.8,1.1,2.8,1.6
						c5.9,3.2,12.3,4.9,18.8,5.1c18.2,0.8,37.3-9.3,48.7-27.7C220.2,81.3,222.9,35.7,200.3,21.2z"/>
				</g>
				<g>
					<g>
						<path class="st4" d="M124.4,63.6l-0.9,2.7c0.9-1.1,1.9-1.9,3-2.5c1.1-0.5,2.2-0.8,3.4-0.8c1.5,0,2.7,0.3,3.5,1.1
							c0.8,0.7,1.2,1.7,1.2,2.8c0,1.1-0.4,3-1,5.6l-5.3,20.9l-8.9,0.1l5.3-20.6c0.5-2,0.8-3.3,0.8-3.8c0-0.4-0.3-0.7-0.9-0.6
							c-0.6,0-1.1,0.3-1.4,0.8c-0.3,0.5-0.7,1.9-1.3,4.1l-5.1,20.1l-8.9,0.1l7.6-29.8L124.4,63.6z"/>
						<path class="st4" d="M147.5,74l0.6-2.2c0.4-1.6,0.6-2.5,0.5-3c-0.1-0.4-0.3-0.7-0.8-0.7c-0.6,0-1.1,0.2-1.3,0.6
							c-0.2,0.4-0.6,1.4-1,3.1l-0.6,2.2L147.5,74z M155.2,78.7l-11.5,0.1l-1.6,6.4c-0.3,1.4-0.5,2.2-0.4,2.6
							c0.1,0.4,0.4,0.6,0.9,0.6c0.7,0,1.2-0.3,1.5-0.8c0.4-0.5,0.7-1.5,1.1-3l1-3.9l8.5-0.1l-0.6,2.2c-0.5,1.8-0.9,3.2-1.4,4.2
							c-0.5,1-1.3,2.1-2.4,3.2c-1.1,1.1-2.4,2-3.8,2.6c-1.4,0.6-3.1,0.9-5.1,0.9c-1.9,0-3.5-0.2-4.8-0.8c-1.3-0.5-2.2-1.3-2.8-2.3
							c-0.6-1-0.8-2-0.9-3.2c0-1.1,0.3-2.8,0.8-5l2.2-8.7c0.6-2.6,1.5-4.6,2.6-6.2c1.1-1.5,2.5-2.7,4.3-3.5c1.8-0.8,3.7-1.2,5.7-1.3
							c2.5,0,4.4,0.4,5.8,1.4c1.4,1,2.2,2.2,2.4,3.8c0.2,1.6,0,3.8-0.7,6.7L155.2,78.7z"/>
						<path class="st4" d="M190.8,63l-11.2,29.8h-9.4c0-0.1-0.1-0.2-0.1-0.3c0.4-3.6,1-8.3,1.8-14c-1,2.6-2,5.3-3.2,8l-2.6,6.5
							l-9.6,0.1l3.8-29.7l7.6-0.1c-0.1,0.8-0.9,6.5-2.4,17.1c0.4-1.1,2.6-6.8,6.4-17.1l7.3-0.1l-2.5,17.1c1.6-5.1,3.7-10.8,6.4-17.2
							L190.8,63z"/>
						<path class="st4" d="M202,73.4l0.5-2.2c0.4-1.6,0.6-2.6,0.5-3c0-0.5-0.3-0.7-0.8-0.7c-0.6,0-1.1,0.2-1.3,0.6
							c-0.2,0.4-0.6,1.4-1,3.1l-0.6,2.2L202,73.4z M209.7,78.2l-11.5,0.1l-1.7,6.4c-0.3,1.4-0.5,2.2-0.4,2.6
							c0.1,0.4,0.4,0.6,0.9,0.6c0.7,0,1.2-0.2,1.5-0.8c0.4-0.5,0.7-1.5,1.1-3l1-3.9l8.5-0.1l-0.6,2.2c-0.5,1.8-0.9,3.3-1.4,4.3
							c-0.5,1-1.3,2-2.4,3.2c-1.1,1.1-2.4,2-3.8,2.6c-1.4,0.6-3.1,0.9-5,0.9c-1.9,0-3.5-0.2-4.8-0.8c-1.3-0.5-2.2-1.3-2.8-2.2
							c-0.6-1-0.8-2-0.9-3.2c0-1.2,0.3-2.8,0.8-5.1l2.2-8.7c0.7-2.6,1.5-4.6,2.6-6.1c1.1-1.5,2.5-2.7,4.3-3.5
							c1.8-0.8,3.7-1.2,5.7-1.2c2.5,0,4.4,0.5,5.8,1.4c1.4,1,2.2,2.2,2.4,3.8c0.2,1.6,0,3.8-0.7,6.7L209.7,78.2z"/>
						<path class="st4" d="M225.9,70.5c0.3-1.4,0.5-2.2,0.4-2.6c-0.1-0.4-0.3-0.6-0.9-0.6c-0.5,0-0.9,0.2-1.3,0.7
							c-0.3,0.4-0.7,1.3-1,2.5l-2.6,10c-0.3,1.3-0.5,2.2-0.4,2.6c0.1,0.4,0.4,0.6,0.9,0.6c0.6,0,1-0.3,1.3-0.7
							c0.3-0.5,0.7-1.6,1.1-3.3L225.9,70.5z M236.8,62.6L231,85.5c-0.8,3.1-1.4,5.1-1.8,6c-0.4,0.9-1.1,1.9-2.2,2.9
							c-1.1,1-2.5,1.8-4.1,2.3c-1.7,0.6-3.6,0.8-5.9,0.8c-2.9,0-5-0.4-6.5-1.4c-1-0.6-1.3-1.4-1.3-2.7v-3.1l8.8,0
							c-0.4,1.3,0,2,0.9,2c0.7,0,1.2-0.2,1.5-0.6c0.3-0.4,0.7-1.3,1-2.6l0.6-2.3c-1,0.7-1.9,1.3-2.8,1.6c-0.9,0.4-1.9,0.6-2.8,0.6
							c-1.6,0-2.8-0.3-3.7-0.9c-0.9-0.6-1.4-1.5-1.5-2.6c-0.1-1.1,0.1-2.6,0.6-4.6l2.8-10.8c0.7-2.8,1.7-4.9,3.1-6.1
							c1.3-1.2,3-1.9,5-1.9c1.1,0,2.1,0.2,2.9,0.7c0.8,0.5,1.5,1.1,2,2.1l1.2-2.3L236.8,62.6z"/>
						<path class="st4" d="M249.3,70.3c0.3-1.4,0.5-2.2,0.4-2.6c-0.1-0.4-0.4-0.5-0.9-0.5c-0.5,0-0.9,0.2-1.3,0.6
							c-0.3,0.4-0.6,1.3-1,2.5l-2.6,10c-0.3,1.3-0.5,2.2-0.4,2.6c0.1,0.4,0.3,0.6,0.9,0.6c0.6,0,1-0.2,1.3-0.7
							c0.3-0.5,0.7-1.6,1.1-3.3L249.3,70.3z M260.3,62.4l-5.8,23c-0.8,3.1-1.4,5.1-1.8,6c-0.4,0.9-1.1,1.8-2.2,2.9
							c-1.1,1-2.5,1.8-4.1,2.3c-1.7,0.5-3.6,0.8-5.9,0.9c-2.9,0-5-0.4-6.5-1.4c-1.5-1-1.9-2.9-1.2-5.8l8.7-0.1c-0.3,1.4,0,2,0.9,2
							c0.7,0,1.2-0.2,1.5-0.6c0.3-0.4,0.7-1.3,1-2.6l0.6-2.3c-0.9,0.7-1.9,1.3-2.8,1.6c-0.9,0.4-1.9,0.6-2.8,0.6
							c-1.6,0-2.9-0.3-3.7-0.9c-0.9-0.6-1.4-1.5-1.5-2.6c-0.1-1,0.1-2.6,0.6-4.5l2.7-10.8c0.7-2.8,1.8-4.9,3.1-6.1
							c1.3-1.2,3-1.9,5.1-1.9c1.1,0,2.1,0.2,2.9,0.7c0.8,0.4,1.4,1.1,1.9,2.1l1.2-2.3L260.3,62.4z"/>
					</g>
				</g>
			</g>
		</g>
	</g>
	<g>
		<g>
			<path class="st4" d="M261.4,88.7h5v4.7h-5V88.7z"/>
			<path class="st4" d="M278.9,88.6l4.5,0.5c-0.2,0.9-0.6,1.7-1.2,2.4c-0.6,0.7-1.3,1.2-2.1,1.6c-0.9,0.4-2,0.6-3.3,0.6
				c-1.3,0-2.4-0.1-3.2-0.4c-0.9-0.2-1.6-0.6-2.2-1.2c-0.6-0.5-1.1-1.2-1.5-1.9c-0.4-0.7-0.5-1.7-0.5-2.9c0-1.3,0.2-2.3,0.6-3.1
				c0.3-0.6,0.7-1.2,1.3-1.7c0.5-0.5,1.1-0.8,1.7-1.1c0.9-0.4,2.1-0.6,3.5-0.6c2,0,3.5,0.4,4.6,1.1c1,0.7,1.8,1.8,2.2,3.1l-4.4,0.6
				c-0.1-0.5-0.4-0.9-0.8-1.2c-0.4-0.3-0.9-0.4-1.5-0.4c-0.8,0-1.4,0.3-1.9,0.8c-0.5,0.6-0.7,1.4-0.7,2.5c0,1,0.2,1.8,0.7,2.3
				c0.5,0.5,1.1,0.8,1.8,0.8c0.6,0,1.1-0.2,1.5-0.5C278.4,89.7,278.7,89.2,278.9,88.6z"/>
			<path class="st4" d="M285.5,87.3c0-1.9,0.6-3.4,1.9-4.6c1.3-1.2,3-1.8,5.1-1.8c2.4,0,4.3,0.7,5.5,2.1c1,1.1,1.5,2.6,1.5,4.2
				c0,1.9-0.6,3.4-1.9,4.6c-1.2,1.2-3,1.8-5.2,1.8c-2,0-3.5-0.5-4.8-1.5C286.3,90.9,285.5,89.3,285.5,87.3z M290.3,87.3
				c0,1.1,0.2,1.9,0.7,2.4c0.4,0.5,1,0.8,1.6,0.8c0.7,0,1.2-0.3,1.6-0.8c0.4-0.5,0.6-1.3,0.6-2.5c0-1.1-0.2-1.8-0.7-2.4
				c-0.4-0.5-1-0.8-1.6-0.8c-0.7,0-1.2,0.3-1.7,0.8C290.5,85.4,290.3,86.2,290.3,87.3z"/>
			<path class="st4" d="M302.5,81.1h4.4v1.8c0.6-0.7,1.3-1.3,1.9-1.6c0.6-0.3,1.4-0.5,2.3-0.5c1,0,1.7,0.2,2.3,0.5
				c0.6,0.3,1,0.9,1.4,1.5c0.7-0.8,1.4-1.3,2-1.6c0.6-0.3,1.4-0.4,2.2-0.4c1.3,0,2.3,0.4,3.1,1.2c0.7,0.8,1.1,2,1.1,3.7v7.7h-4.7v-7
				c0-0.6-0.1-1-0.3-1.2c-0.3-0.4-0.7-0.6-1.2-0.6c-0.5,0-1,0.2-1.3,0.6c-0.3,0.4-0.5,1-0.5,1.9v6.3h-4.7v-6.7c0-0.5,0-0.9-0.1-1.1
				c-0.1-0.3-0.3-0.6-0.5-0.7c-0.2-0.2-0.5-0.3-0.9-0.3c-0.5,0-1,0.2-1.3,0.6c-0.3,0.4-0.5,1.1-0.5,2v6.2h-4.7V81.1z"/>
			<path class="st4" d="M326.6,88.7h5v4.7h-5V88.7z"/>
			<path class="st4" d="M340.7,76.5v4.7h2.6v3.4h-2.6v4.3c0,0.5,0,0.9,0.1,1c0.2,0.3,0.4,0.4,0.8,0.4c0.3,0,0.8-0.1,1.5-0.3l0.3,3.2
				c-1.2,0.3-2.2,0.4-3.3,0.4c-1.2,0-2-0.1-2.6-0.4c-0.6-0.3-1-0.8-1.2-1.4c-0.3-0.6-0.4-1.6-0.4-3v-4.3h-1.7v-3.4h1.7v-2.2
				L340.7,76.5z"/>
			<path class="st4" d="M344.7,81.1h4.5l2,7.7l2.5-7.7h4.2l2.6,7.7l2-7.7h4.5l-4.5,12.2h-4.2l-2.5-7.4l-2.4,7.4h-4.2L344.7,81.1z"/>
		</g>
		<g>
			<path class="st4" d="M215.3,119.9c0.7,0.4,2.9,2,3.4,2.4l-1.2,1.4c-0.5-0.5-1.4-1.3-2.2-2v4.8h-2v-4.7c-0.9,1.3-2,2.5-3,3.3
				c-0.3-0.4-0.9-1.1-1.4-1.4c1.5-0.9,3.1-2.6,4.1-4.3h-3.6v-1.6h3.9V116h-4.2v-1.6h2.4c-0.1-0.8-0.5-1.9-0.8-2.7l1.4-0.4h-2.5v-1.6
				h3.7v-2.2l2.5,0.1c0,0.2-0.2,0.3-0.5,0.3v1.7h3.8v1.6h-2.5l1.8,0.5c0,0.1-0.2,0.2-0.5,0.2c-0.3,0.7-0.7,1.7-1.1,2.4h2.7v1.6h-3.9
				c-0.1,0.1-0.2,0.1-0.4,0.1v1.7h3.9v1.6h-3.9V119.9z M215.2,114.2c0.4-0.8,0.8-2.1,1.1-3h-3.9c0.5,0.9,0.8,2.2,0.9,3l-0.5,0.1h2.7
				L215.2,114.2z M229.2,114.3v1.8h-2.3v10.4h-2v-10.4h-2.7c0,2.3-0.1,7.2-3.4,10.4c-0.3-0.4-1-1.1-1.5-1.3c2.7-2.5,2.9-6,2.9-8.8
				v-7l1.2,0.3c2.1-0.6,4.3-1.4,5.6-2.2l2,1.4c-0.1,0.1-0.3,0.1-0.5,0.1c-1.5,0.8-4,1.5-6.3,2.1v3.2H229.2z"/>
			<path class="st4" d="M244.7,115.9c-3.8,0-6-0.4-7.5-2.3c-0.8,1.5-2,2.6-3.5,3.4c-0.3-0.3-1-0.9-1.4-1.2c2.3-0.9,3.6-2.7,4-5.3
				l2.4,0.3c0,0.2-0.2,0.3-0.5,0.3c0,0.2-0.1,0.5-0.2,0.7c0.7,1.3,1.7,2,3.3,2.3v-4.1h-8v-1.6H250l0.4,0l1.2,0.1
				c0,0.3-1,2.6-1.8,3.8l-1.5-0.4v1h-5.1v1.4c0.5,0,1,0,1.5,0c0.9,0,6.2,0,7.4,0c-0.3,0.4-0.5,1.2-0.6,1.6H244.7z M249.5,122.1h-2.3
				c1.8,1,3.8,2.4,4.9,3.4l-1.8,1.1c-0.4-0.4-0.9-0.8-1.5-1.3c-5.4,0.2-11,0.4-14.7,0.5c0,0.2-0.2,0.3-0.4,0.3l-0.7-2.1
				c2.1,0,5.1,0,8.3-0.1v-1.8h-6v-4.9h6v-1.2l2.5,0.1c0,0.2-0.2,0.3-0.5,0.3v0.8h6.3V122.1z M237.1,120.6h4.1v-1.9h-4.1V120.6z
				 M247.4,118.7h-4.2v1.9h4.2V118.7z M243.2,123.9l3.5-0.1c-0.5-0.3-1.1-0.7-1.6-1l1.5-0.8h-3.4V123.9z M248.3,111.4
				c0.2-0.4,0.4-0.9,0.7-1.4h-5.7v1.4H248.3z"/>
			<path class="st4" d="M266.3,121.2v3h8.3v1.7h-18.5v-1.7h8v-3h-6.3v-1.7h6.3v-2.8h-5.2v-1.6c-0.8,0.6-1.7,1.1-2.5,1.5
				c-0.3-0.4-0.8-1.1-1.2-1.5c3.7-1.9,7.3-5.1,9-7.8l2.8,0.1c-0.1,0.2-0.2,0.3-0.5,0.3c2.1,2.7,5.9,5.5,9.1,7
				c-0.5,0.5-1,1.1-1.3,1.7c-0.8-0.4-1.6-0.9-2.4-1.4v1.6h-5.5v2.8h6.4v1.7H266.3z M271.5,114.9c-2.5-1.7-4.9-3.8-6.3-5.7
				c-1.3,1.8-3.5,3.9-6.1,5.7H271.5z"/>
			<path class="st4" d="M285.8,121.6c1.1-0.7,2.4-1.4,3.7-2.2l0.6,1.6c-1.7,1.2-3.6,2.3-4.8,3.1c0,0.2-0.1,0.3-0.2,0.4l-1.2-1.9
				c0.3-0.2,0.7-0.3,1.1-0.6v0c-2.2,0.6-4.5,1.2-6,1.6c0,0.2-0.2,0.3-0.3,0.3l-0.6-2.1c0.8-0.2,1.8-0.4,3-0.7v-4.6h-2.4v-1.8h2.4v-4
				h-2.6v-1.8h7.3v1.8H283v4h2.3v1.8H283v4.1c0.9-0.2,1.8-0.4,2.6-0.7L285.8,121.6z M292.6,112.8v0.6c0.9,4.9,2.4,7.7,6.2,10.1
				c-0.5,0.3-1,1-1.3,1.5c-2.3-1.6-3.8-3.3-4.9-5.5v4.8c0,2-1,2.3-4.3,2.3c-0.1-0.5-0.4-1.3-0.7-1.9c0.6,0,1.2,0,1.6,0
				c1.4,0,1.5,0,1.5-0.4v-11.4h-5.4V111h5.4v-3.6l2.5,0.1c0,0.2-0.2,0.3-0.5,0.4v3.1h5.9v1.8H292.6z M287.2,114
				c0.9,1.1,1.9,2.6,2.3,3.7l-1.7,0.8c-0.4-1-1.3-2.6-2.2-3.8L287.2,114z M294.9,107.6c1.1,0.6,2.4,1.5,3.1,2.2l-1.2,1.1
				c-0.6-0.7-1.9-1.7-3-2.3L294.9,107.6z M298.5,114.8c-0.1,0.2-0.3,0.2-0.5,0.2c-0.7,1-1.9,2.5-2.7,3.4c0,0-1.4-0.8-1.4-0.8
				c0.9-1,2.1-2.6,2.7-3.8L298.5,114.8z"/>
			<path class="st4" d="M312.5,124h8.7v1.9h-19.4V124h8.6v-4.7h-6.2v-1.9h6.2v-4.1h-4.9c-0.7,1.4-1.5,2.6-2.4,3.6
				c-0.4-0.3-1.2-0.9-1.7-1.2c1.7-1.8,3.2-4.9,4-7.9l2.5,0.7c-0.1,0.2-0.2,0.2-0.5,0.2c-0.3,0.9-0.6,1.9-1,2.7h4v-3.9l2.6,0.2
				c0,0.2-0.2,0.3-0.5,0.3v3.4h7.7v1.9h-7.7v4.1h6.8v1.9h-6.8V124z"/>
			<path class="st4" d="M325.5,113.1c1.3,0.5,3.1,1.3,4,2l-1.2,1.6c-0.8-0.7-2.6-1.6-3.9-2.2L325.5,113.1z M325,125
				c1.1-1.6,2.7-4.3,3.9-6.6l1.5,1.2c-1.1,2.2-2.4,4.6-3.4,6.2c0.1,0.1,0.1,0.2,0.1,0.3c0,0.1,0,0.2-0.1,0.3L325,125z M326.7,107.6
				c1.4,0.5,3.1,1.4,3.9,2.1l-1.2,1.6c-0.8-0.7-2.5-1.7-3.9-2.3L326.7,107.6z M344.5,115.4h-6.1v3h4.7v8H341v-0.8h-7.1v0.9h-2v-8.1
				h4.4v-3h-6v-1.9h6v-3c-1.6,0.2-3.2,0.4-4.8,0.6c-0.1-0.5-0.4-1.2-0.6-1.6c3.9-0.4,8.3-1.1,10.8-2l1.8,1.6
				c-0.1,0.1-0.2,0.1-0.5,0.1c-1.3,0.4-2.9,0.8-4.6,1.1v3.3h6.1V115.4z M341,123.9v-3.7h-7.1v3.7H341z"/>
			<path class="st4" d="M350.3,119.8c0,0.1-0.2,0.2-0.5,0.2c-0.2,1.7-0.6,3.6-1.2,4.8c-0.3-0.2-1-0.5-1.4-0.7
				c0.6-1.1,0.9-3.1,1.1-4.9L350.3,119.8z M366.8,108.4v16.1c0,1.8-0.7,2-3.9,2c-0.1-0.5-0.3-1.2-0.6-1.7c0.5,0,0.9,0,1.3,0
				c1.2,0,1.3,0,1.3-0.4v-14.4h-7.4v16.4h-1.8v-3.5l-1.5,0.5c-0.2-1-0.7-2.6-1.2-3.8l1.5-0.4c0.5,1.1,1.1,2.6,1.3,3.6v-4.5l-1.4,0.6
				c-0.1-0.3-0.2-0.7-0.4-1.1l-1.5,0.1v8.5h-1.8v-8.4c-1,0-2,0.1-2.7,0.1c0,0.2-0.2,0.3-0.3,0.3l-0.4-2l1.5,0c0.4-0.5,0.8-1,1.3-1.6
				c-0.6-0.9-1.7-2.1-2.6-3c0.4-0.5,0.7-0.9,1-1.3c0.2,0.2,0.4,0.3,0.6,0.5c0.6-1.2,1.3-2.6,1.7-3.7l2,0.8c-0.1,0.1-0.3,0.2-0.5,0.2
				c-0.5,1.1-1.4,2.7-2.1,3.8c0.4,0.4,0.7,0.8,0.9,1.1c0.8-1.2,1.5-2.5,2.1-3.5l2,0.9c-0.1,0.1-0.3,0.2-0.5,0.2
				c-1,1.6-2.6,3.8-4,5.6l2.8-0.1c-0.3-0.6-0.6-1.2-1-1.8l1.5-0.6c0.8,1.2,1.5,2.6,2,3.7v-9.4H366.8z M360.5,121.2
				c0,0.5,0.1,0.7,0.4,0.7h2.1c0.3,0,0.9,0,1.2-0.1c0,0.4,0.1,1.1,0.2,1.5c-0.3,0.1-0.8,0.1-1.3,0.1h-2.1c-1.8,0-2.1-0.6-2.1-2.2
				v-2.4H358v-1.5h2.3v-1.9l2.2,0.1c0,0.2-0.2,0.3-0.5,0.3v1.5h2.4v1.5h-4V121.2z M364.4,113.8v1.5h-6.3v-1.5h1
				c-0.1-0.8-0.5-1.9-0.9-2.7l1.3-0.4c0.5,0.9,0.8,2,1,2.7l-1,0.3h3l-0.8-0.3c0.4-0.8,0.8-2.1,1.1-2.9l1.8,0.6
				c0,0.1-0.2,0.2-0.5,0.2c-0.3,0.7-0.7,1.7-1.1,2.4H364.4z"/>
		</g>
	</g>
</g>
</svg>
