<svg id="bk" xmlns="http://www.w3.org/2000/svg" xmlns:xlink="http://www.w3.org/1999/xlink" viewBox="0 0 375 262.24"><defs><style>.cls-1{fill:none;}.cls-13,.cls-2{fill:#df8453;}.cls-3{mix-blend-mode:soft-light;}.cls-10,.cls-11,.cls-12,.cls-4,.cls-5,.cls-6,.cls-7,.cls-8,.cls-9{fill:#fff;}.cls-4{opacity:0.8;}.cls-5{opacity:0.9;}.cls-13,.cls-6{opacity:0.5;}.cls-7{opacity:0.7;}.cls-9{opacity:0.4;}.cls-10{opacity:0.3;}.cls-11{opacity:0.2;}.cls-12{opacity:0.6;}.cls-14{fill:url(#新增圖樣色票_2);}</style><pattern id="新增圖樣色票_2" data-name="新增圖樣色票 2" width="64.25" height="64.25" patternTransform="translate(0 45)" patternUnits="userSpaceOnUse" viewBox="0 0 64.25 64.25"><rect class="cls-1" width="64.25" height="64.25"/><rect class="cls-2" width="64.24" height="64.24"/><g class="cls-3"><polyline class="cls-4" points="0 64.24 6.46 56.45 0 48.4"/></g><g class="cls-3"><polyline class="cls-5" points="0 48.4 6.41 40.36 0 32.32"/><polygon class="cls-6" points="6.38 24.26 0 32.32 6.41 40.36 12.84 32.3 6.38 24.26"/><polygon class="cls-4" points="12.82 16.2 6.38 24.26 12.84 32.3 19.25 24.29 12.82 16.2"/><polyline class="cls-7" points="0 32.32 6.38 24.26 0 16.2"/><polyline class="cls-5" points="64.24 32.22 57.95 40.37 64.24 48.58"/><polygon class="cls-7" points="64.24 32.22 57.87 24.28 64.24 16.16 64.24 32.22"/></g><g class="cls-3"><polyline class="cls-4" points="64.24 48.58 57.97 56.47 64.24 64.24"/></g><g class="cls-3"><polygon class="cls-6" points="51.43 16.17 45.02 24.29 51.48 32.33 57.87 24.28 51.43 16.17"/></g><g class="cls-3"><polyline class="cls-4" points="38.65 64.24 32.19 56.48 25.77 64.24"/><polyline class="cls-7" points="25.77 64.24 19.35 56.44 12.87 64.24"/></g><g class="cls-3"><polyline class="cls-4" points="51.49 64.24 45.1 56.45 38.65 64.24"/></g><g class="cls-3"><polyline class="cls-8" points="51.49 64.24 57.97 56.47 64.24 64.24"/></g><g class="cls-3"><polygon class="cls-4" points="44.97 8.13 38.57 16.18 45.02 24.29 51.43 16.17 44.97 8.13"/><polygon class="cls-7" points="32.12 8.13 25.68 16.25 32.13 24.29 38.57 16.18 32.12 8.13"/></g><g class="cls-3"><polygon class="cls-8" points="6.47 7.98 12.82 16.2 6.38 24.26 0 16.2 6.47 7.98"/><polyline class="cls-7" points="0 0 6.47 7.98 0 16.2"/><polygon class="cls-9" points="19.27 8.08 25.68 16.25 19.25 24.29 12.82 16.2 19.27 8.08"/><polygon class="cls-5" points="12.9 0 19.27 8.08 12.82 16.2 6.47 7.98 12.9 0"/><polygon class="cls-10" points="57.88 8.17 64.24 16.16 57.87 24.28 51.43 16.17 57.88 8.17"/><polygon class="cls-7" points="51.49 0 57.88 8.17 51.44 16.16 44.98 8.12 51.49 0"/><polygon class="cls-8" points="25.77 0 32.12 8.13 25.68 16.25 19.27 8.08 25.77 0"/></g><g class="cls-3"><polyline class="cls-7" points="64.24 0 57.88 8.17 64.24 16.16"/></g><g class="cls-3"><polyline class="cls-4" points="38.45 0 32.12 8.13 25.77 0"/><polyline class="cls-7" points="25.77 0 19.27 8.08 12.9 0"/></g><g class="cls-3"><polyline class="cls-4" points="51.49 0 44.97 8.12 38.45 0"/></g><g class="cls-3"><polyline class="cls-8" points="0 0 6.47 7.98 12.9 0"/><line class="cls-8" x2="6.47" y2="7.98"/><line class="cls-8" x2="6.47" y2="7.98"/></g><g class="cls-3"><polyline class="cls-8" points="51.49 0 57.88 8.17 64.24 0"/></g><g class="cls-3"><polyline class="cls-8" points="0 64.24 6.46 56.45 12.87 64.24"/></g><g class="cls-3"><polygon class="cls-8" points="12.9 48.38 19.35 56.44 12.87 64.24 6.46 56.45 12.9 48.38"/><polygon class="cls-7" points="6.42 40.36 12.88 48.4 6.46 56.45 0 48.4 6.42 40.36"/><polygon class="cls-9" points="25.77 48.35 32.2 56.48 25.77 64.24 19.35 56.44 25.77 48.35"/><polygon class="cls-5" points="19.32 40.34 25.77 48.35 19.36 56.44 12.89 48.4 19.32 40.34"/><polygon class="cls-4" points="12.86 32.3 19.32 40.34 12.88 48.4 6.42 40.36 12.86 32.3"/><polygon class="cls-5" points="38.64 48.39 45.08 56.48 38.65 64.24 32.2 56.48 38.64 48.39"/><polygon class="cls-4" points="32.18 40.37 38.64 48.41 32.2 56.48 25.77 48.35 32.18 40.37"/><polygon class="cls-7" points="25.72 32.33 32.18 40.37 25.77 48.35 19.32 40.34 25.72 32.33"/><polygon class="cls-11" points="19.25 24.29 25.72 32.33 19.32 40.34 12.82 32.35 19.25 24.29"/><polygon class="cls-10" points="45.06 40.37 51.52 48.41 45.08 56.48 38.62 48.44 45.06 40.37"/><polygon class="cls-12" points="38.6 32.33 45.06 40.37 38.62 48.44 32.18 40.37 38.6 32.33"/><polygon class="cls-5" points="32.14 24.29 38.6 32.33 32.18 40.37 25.7 32.35 32.14 24.29"/><polygon class="cls-6" points="25.68 16.25 32.14 24.29 25.7 32.35 19.24 24.31 25.68 16.25"/><polygon class="cls-7" points="57.95 40.37 64.24 48.58 57.97 56.47 51.51 48.43 57.95 40.37"/><polygon class="cls-5" points="51.48 32.33 57.95 40.37 51.51 48.43 45.04 40.39 51.48 32.33"/><polygon class="cls-4" points="45.02 24.29 51.48 32.33 45.04 40.39 38.58 32.35 45.02 24.29"/><polygon class="cls-8" points="38.57 16.18 45.02 24.29 38.58 32.35 32.12 24.31 38.57 16.18"/><polygon class="cls-11" points="38.45 0 44.97 8.12 38.57 16.18 32.12 8.13 38.45 0"/><polygon class="cls-8" points="57.87 24.28 64.24 32.22 57.95 40.37 51.48 32.33 57.87 24.28"/><polygon class="cls-8" points="51.52 48.41 57.97 56.47 51.49 64.24 45.1 56.45 51.52 48.41"/></g><rect class="cls-13" width="64.25" height="64.25"/></pattern></defs><title>手機版_次分類頁</title><rect class="cls-14" width="375" height="262.24"/></svg>
